<?xml version="1.0" encoding="UTF-8" standalone="no"?>
<!DOCTYPE svg PUBLIC "-//W3C//DTD SVG 1.1//EN"
 "http://www.w3.org/Graphics/SVG/1.1/DTD/svg11.dtd">
<!-- Generated by graphviz version 2.43.0 (0)
 -->
<!-- Title: src/cidadao.cpp Pages: 1 -->
<svg width="703pt" height="252pt"
 viewBox="0.00 0.00 702.76 252.00" xmlns="http://www.w3.org/2000/svg" xmlns:xlink="http://www.w3.org/1999/xlink">
<g id="graph0" class="graph" transform="scale(1 1) rotate(0) translate(4 248)">
<title>src/cidadao.cpp</title>
<polygon fill="white" stroke="transparent" points="-4,4 -4,-248 698.76,-248 698.76,4 -4,4"/>
<!-- Node1 -->
<g id="node1" class="node">
<title>Node1</title>
<g id="a_node1"><a xlink:title=" ">
<polygon fill="#bfbfbf" stroke="black" points="133.26,-224.5 133.26,-243.5 225.26,-243.5 225.26,-224.5 133.26,-224.5"/>
<text text-anchor="middle" x="179.26" y="-231.5" font-family="Helvetica,sans-Serif" font-size="10.00">src/cidadao.cpp</text>
</a>
</g>
</g>
<!-- Node2 -->
<g id="node2" class="node">
<title>Node2</title>
<g id="a_node2"><a xlink:href="cidadao_8hpp.html" target="_top" xlink:title="Arquivo da classe Cidadao.">
<polygon fill="white" stroke="black" points="141.26,-168.5 141.26,-187.5 217.26,-187.5 217.26,-168.5 141.26,-168.5"/>
<text text-anchor="middle" x="179.26" y="-175.5" font-family="Helvetica,sans-Serif" font-size="10.00">cidadao.hpp</text>
</a>
</g>
</g>
<!-- Node1&#45;&gt;Node2 -->
<g id="edge1" class="edge">
<title>Node1&#45;&gt;Node2</title>
<path fill="none" stroke="midnightblue" d="M179.26,-224.08C179.26,-217.01 179.26,-206.86 179.26,-197.99"/>
<polygon fill="midnightblue" stroke="midnightblue" points="182.76,-197.75 179.26,-187.75 175.76,-197.75 182.76,-197.75"/>
</g>
<!-- Node3 -->
<g id="node3" class="node">
<title>Node3</title>
<g id="a_node3"><a xlink:title=" ">
<polygon fill="white" stroke="#bfbfbf" points="208.26,-0.5 208.26,-19.5 268.26,-19.5 268.26,-0.5 208.26,-0.5"/>
<text text-anchor="middle" x="238.26" y="-7.5" font-family="Helvetica,sans-Serif" font-size="10.00">iostream</text>
</a>
</g>
</g>
<!-- Node2&#45;&gt;Node3 -->
<g id="edge2" class="edge">
<title>Node2&#45;&gt;Node3</title>
<path fill="none" stroke="midnightblue" d="M145.56,-168.4C84.55,-151.25 -33.96,-109.8 10.26,-56 33.58,-27.63 139.05,-16.85 198.03,-12.99"/>
<polygon fill="midnightblue" stroke="midnightblue" points="198.36,-16.48 208.12,-12.37 197.92,-9.49 198.36,-16.48"/>
</g>
<!-- Node4 -->
<g id="node4" class="node">
<title>Node4</title>
<g id="a_node4"><a xlink:href="usuario_8hpp.html" target="_top" xlink:title="Arquivo da classe Usuario.">
<polygon fill="white" stroke="black" points="330.26,-112.5 330.26,-131.5 404.26,-131.5 404.26,-112.5 330.26,-112.5"/>
<text text-anchor="middle" x="367.26" y="-119.5" font-family="Helvetica,sans-Serif" font-size="10.00">usuario.hpp</text>
</a>
</g>
</g>
<!-- Node2&#45;&gt;Node4 -->
<g id="edge3" class="edge">
<title>Node2&#45;&gt;Node4</title>
<path fill="none" stroke="midnightblue" d="M209.05,-168.44C241.09,-159.24 292.19,-144.56 327.61,-134.39"/>
<polygon fill="midnightblue" stroke="midnightblue" points="328.96,-137.64 337.61,-131.52 327.03,-130.91 328.96,-137.64"/>
</g>
<!-- Node5 -->
<g id="node5" class="node">
<title>Node5</title>
<g id="a_node5"><a xlink:title=" ">
<polygon fill="white" stroke="#bfbfbf" points="514.26,-0.5 514.26,-19.5 558.26,-19.5 558.26,-0.5 514.26,-0.5"/>
<text text-anchor="middle" x="536.26" y="-7.5" font-family="Helvetica,sans-Serif" font-size="10.00">string</text>
</a>
</g>
</g>
<!-- Node4&#45;&gt;Node5 -->
<g id="edge4" class="edge">
<title>Node4&#45;&gt;Node5</title>
<path fill="none" stroke="midnightblue" d="M404.49,-118.2C457.31,-113.36 549.87,-101.41 570.26,-76 582.5,-60.75 567.82,-40.41 554.11,-26.57"/>
<polygon fill="midnightblue" stroke="midnightblue" points="556.44,-23.95 546.77,-19.62 551.63,-29.04 556.44,-23.95"/>
</g>
<!-- Node6 -->
<g id="node6" class="node">
<title>Node6</title>
<g id="a_node6"><a xlink:title=" ">
<polygon fill="white" stroke="#bfbfbf" points="343.76,-56.5 343.76,-75.5 390.76,-75.5 390.76,-56.5 343.76,-56.5"/>
<text text-anchor="middle" x="367.26" y="-63.5" font-family="Helvetica,sans-Serif" font-size="10.00">vector</text>
</a>
</g>
</g>
<!-- Node4&#45;&gt;Node6 -->
<g id="edge5" class="edge">
<title>Node4&#45;&gt;Node6</title>
<path fill="none" stroke="midnightblue" d="M367.26,-112.08C367.26,-105.01 367.26,-94.86 367.26,-85.99"/>
<polygon fill="midnightblue" stroke="midnightblue" points="370.76,-85.75 367.26,-75.75 363.76,-85.75 370.76,-85.75"/>
</g>
<!-- Node7 -->
<g id="node7" class="node">
<title>Node7</title>
<g id="a_node7"><a xlink:href="hospital_8hpp.html" target="_top" xlink:title="Arquivo da classe Hospital.">
<polygon fill="white" stroke="black" points="617.76,-56.5 617.76,-75.5 694.76,-75.5 694.76,-56.5 617.76,-56.5"/>
<text text-anchor="middle" x="656.26" y="-63.5" font-family="Helvetica,sans-Serif" font-size="10.00">hospital.hpp</text>
</a>
</g>
</g>
<!-- Node4&#45;&gt;Node7 -->
<g id="edge6" class="edge">
<title>Node4&#45;&gt;Node7</title>
<path fill="none" stroke="midnightblue" d="M404.45,-114.05C456.22,-104.38 550.1,-86.84 607.45,-76.12"/>
<polygon fill="midnightblue" stroke="midnightblue" points="608.18,-79.54 617.37,-74.27 606.89,-72.66 608.18,-79.54"/>
</g>
<!-- Node9 -->
<g id="node9" class="node">
<title>Node9</title>
<g id="a_node9"><a xlink:href="menuException_8hpp.html" target="_top" xlink:title="Arquivo da classe MenuException.">
<polygon fill="white" stroke="black" points="19.76,-56.5 19.76,-75.5 132.76,-75.5 132.76,-56.5 19.76,-56.5"/>
<text text-anchor="middle" x="76.26" y="-63.5" font-family="Helvetica,sans-Serif" font-size="10.00">menuException.hpp</text>
</a>
</g>
</g>
<!-- Node4&#45;&gt;Node9 -->
<g id="edge10" class="edge">
<title>Node4&#45;&gt;Node9</title>
<path fill="none" stroke="midnightblue" d="M330.11,-114.11C280.09,-104.83 190.68,-88.23 132.43,-77.42"/>
<polygon fill="midnightblue" stroke="midnightblue" points="132.76,-73.93 122.29,-75.54 131.48,-80.81 132.76,-73.93"/>
</g>
<!-- Node10 -->
<g id="node10" class="node">
<title>Node10</title>
<g id="a_node10"><a xlink:href="usuarioExisteException_8hpp.html" target="_top" xlink:title=" ">
<polygon fill="white" stroke="black" points="409.26,-56.5 409.26,-75.5 561.26,-75.5 561.26,-56.5 409.26,-56.5"/>
<text text-anchor="middle" x="485.26" y="-63.5" font-family="Helvetica,sans-Serif" font-size="10.00">usuarioExisteException.hpp</text>
</a>
</g>
</g>
<!-- Node4&#45;&gt;Node10 -->
<g id="edge12" class="edge">
<title>Node4&#45;&gt;Node10</title>
<path fill="none" stroke="midnightblue" d="M385.96,-112.44C405.2,-103.64 435.41,-89.81 457.46,-79.72"/>
<polygon fill="midnightblue" stroke="midnightblue" points="459.01,-82.86 466.65,-75.52 456.1,-76.5 459.01,-82.86"/>
</g>
<!-- Node11 -->
<g id="node11" class="node">
<title>Node11</title>
<g id="a_node11"><a xlink:href="hospitalNaoExisteException_8hpp.html" target="_top" xlink:title="Arquivo da classe HospitalNaoExisteException.">
<polygon fill="white" stroke="black" points="151.26,-56.5 151.26,-75.5 325.26,-75.5 325.26,-56.5 151.26,-56.5"/>
<text text-anchor="middle" x="238.26" y="-63.5" font-family="Helvetica,sans-Serif" font-size="10.00">hospitalNaoExisteException.hpp</text>
</a>
</g>
</g>
<!-- Node4&#45;&gt;Node11 -->
<g id="edge15" class="edge">
<title>Node4&#45;&gt;Node11</title>
<path fill="none" stroke="midnightblue" d="M346.82,-112.44C325.59,-103.56 292.16,-89.56 268,-79.45"/>
<polygon fill="midnightblue" stroke="midnightblue" points="269.18,-76.15 258.6,-75.52 266.48,-82.61 269.18,-76.15"/>
</g>
<!-- Node7&#45;&gt;Node3 -->
<g id="edge7" class="edge">
<title>Node7&#45;&gt;Node3</title>
<path fill="none" stroke="midnightblue" d="M617.68,-60.02C538.67,-49.81 359.1,-26.61 278.61,-16.21"/>
<polygon fill="midnightblue" stroke="midnightblue" points="278.75,-12.7 268.38,-14.89 277.85,-19.64 278.75,-12.7"/>
</g>
<!-- Node7&#45;&gt;Node5 -->
<g id="edge8" class="edge">
<title>Node7&#45;&gt;Node5</title>
<path fill="none" stroke="midnightblue" d="M637.24,-56.44C617.67,-47.64 586.95,-33.81 564.53,-23.72"/>
<polygon fill="midnightblue" stroke="midnightblue" points="565.74,-20.43 555.18,-19.52 562.87,-26.81 565.74,-20.43"/>
</g>
<!-- Node8 -->
<g id="node8" class="node">
<title>Node8</title>
<g id="a_node8"><a xlink:title=" ">
<polygon fill="white" stroke="#bfbfbf" points="628.26,-0.5 628.26,-19.5 684.26,-19.5 684.26,-0.5 628.26,-0.5"/>
<text text-anchor="middle" x="656.26" y="-7.5" font-family="Helvetica,sans-Serif" font-size="10.00">iomanip</text>
</a>
</g>
</g>
<!-- Node7&#45;&gt;Node8 -->
<g id="edge9" class="edge">
<title>Node7&#45;&gt;Node8</title>
<path fill="none" stroke="midnightblue" d="M656.26,-56.08C656.26,-49.01 656.26,-38.86 656.26,-29.99"/>
<polygon fill="midnightblue" stroke="midnightblue" points="659.76,-29.75 656.26,-19.75 652.76,-29.75 659.76,-29.75"/>
</g>
<!-- Node9&#45;&gt;Node3 -->
<g id="edge11" class="edge">
<title>Node9&#45;&gt;Node3</title>
<path fill="none" stroke="midnightblue" d="M101.93,-56.44C129.18,-47.36 172.44,-32.94 202.91,-22.78"/>
<polygon fill="midnightblue" stroke="midnightblue" points="204.33,-26 212.71,-19.52 202.11,-19.36 204.33,-26"/>
</g>
<!-- Node10&#45;&gt;Node3 -->
<g id="edge13" class="edge">
<title>Node10&#45;&gt;Node3</title>
<path fill="none" stroke="midnightblue" d="M446.12,-56.44C400.21,-46.41 324.52,-29.86 278.25,-19.74"/>
<polygon fill="midnightblue" stroke="midnightblue" points="278.79,-16.28 268.28,-17.56 277.3,-23.12 278.79,-16.28"/>
</g>
<!-- Node10&#45;&gt;Node5 -->
<g id="edge14" class="edge">
<title>Node10&#45;&gt;Node5</title>
<path fill="none" stroke="midnightblue" d="M493.68,-56.08C501.11,-48.22 512.11,-36.57 521.07,-27.08"/>
<polygon fill="midnightblue" stroke="midnightblue" points="523.67,-29.42 527.99,-19.75 518.58,-24.62 523.67,-29.42"/>
</g>
<!-- Node11&#45;&gt;Node3 -->
<g id="edge16" class="edge">
<title>Node11&#45;&gt;Node3</title>
<path fill="none" stroke="midnightblue" d="M238.26,-56.08C238.26,-49.01 238.26,-38.86 238.26,-29.99"/>
<polygon fill="midnightblue" stroke="midnightblue" points="241.76,-29.75 238.26,-19.75 234.76,-29.75 241.76,-29.75"/>
</g>
<!-- Node11&#45;&gt;Node5 -->
<g id="edge17" class="edge">
<title>Node11&#45;&gt;Node5</title>
<path fill="none" stroke="midnightblue" d="M285.48,-56.44C346.59,-45.37 451.45,-26.37 504.1,-16.83"/>
<polygon fill="midnightblue" stroke="midnightblue" points="505,-20.22 514.21,-15 503.75,-13.33 505,-20.22"/>
</g>
</g>
</svg>
