<?xml version="1.0" encoding="UTF-8" standalone="no"?>
<!DOCTYPE svg PUBLIC "-//W3C//DTD SVG 1.1//EN"
 "http://www.w3.org/Graphics/SVG/1.1/DTD/svg11.dtd">
<!-- Generated by graphviz version 2.43.0 (0)
 -->
<!-- Title: Usuario Pages: 1 -->
<svg width="383pt" height="446pt"
 viewBox="0.00 0.00 383.00 446.00" xmlns="http://www.w3.org/2000/svg" xmlns:xlink="http://www.w3.org/1999/xlink">
<g id="graph0" class="graph" transform="scale(1 1) rotate(0) translate(4 442)">
<title>Usuario</title>
<polygon fill="white" stroke="transparent" points="-4,4 -4,-442 379,-442 379,4 -4,4"/>
<!-- Node1 -->
<g id="node1" class="node">
<title>Node1</title>
<g id="a_node1"><a xlink:title="Classe Usuario.">
<polygon fill="#bfbfbf" stroke="black" points="112,-171.5 112,-437.5 243,-437.5 243,-171.5 112,-171.5"/>
<text text-anchor="middle" x="177.5" y="-425.5" font-family="Helvetica,sans-Serif" font-size="10.00">Usuario</text>
<polyline fill="none" stroke="black" points="112,-418.5 243,-418.5 "/>
<text text-anchor="start" x="120" y="-406.5" font-family="Helvetica,sans-Serif" font-size="10.00">&#45; _nomeDeUsuario</text>
<text text-anchor="start" x="120" y="-395.5" font-family="Helvetica,sans-Serif" font-size="10.00">&#45; _senha</text>
<text text-anchor="start" x="120" y="-384.5" font-family="Helvetica,sans-Serif" font-size="10.00">&#45; _nomeCompleto</text>
<text text-anchor="start" x="120" y="-373.5" font-family="Helvetica,sans-Serif" font-size="10.00">&#45; _tipo</text>
<polyline fill="none" stroke="black" points="112,-366.5 243,-366.5 "/>
<text text-anchor="start" x="120" y="-354.5" font-family="Helvetica,sans-Serif" font-size="10.00">+ Usuario()</text>
<text text-anchor="start" x="120" y="-343.5" font-family="Helvetica,sans-Serif" font-size="10.00">+ setNomeDeUsuario()</text>
<text text-anchor="start" x="120" y="-332.5" font-family="Helvetica,sans-Serif" font-size="10.00">+ getNomeDeUsuario()</text>
<text text-anchor="start" x="120" y="-321.5" font-family="Helvetica,sans-Serif" font-size="10.00">+ setNomeCompleto()</text>
<text text-anchor="start" x="120" y="-310.5" font-family="Helvetica,sans-Serif" font-size="10.00">+ getNomeCompleto()</text>
<text text-anchor="start" x="120" y="-299.5" font-family="Helvetica,sans-Serif" font-size="10.00">+ setSenha()</text>
<text text-anchor="start" x="120" y="-288.5" font-family="Helvetica,sans-Serif" font-size="10.00">+ getSenha()</text>
<text text-anchor="start" x="120" y="-277.5" font-family="Helvetica,sans-Serif" font-size="10.00">+ setTipo()</text>
<text text-anchor="start" x="120" y="-266.5" font-family="Helvetica,sans-Serif" font-size="10.00">+ getTipo()</text>
<text text-anchor="start" x="120" y="-255.5" font-family="Helvetica,sans-Serif" font-size="10.00">+ printMenu()</text>
<text text-anchor="start" x="120" y="-244.5" font-family="Helvetica,sans-Serif" font-size="10.00">+ menu()</text>
<text text-anchor="start" x="120" y="-233.5" font-family="Helvetica,sans-Serif" font-size="10.00">+ printHospitais()</text>
<text text-anchor="start" x="120" y="-222.5" font-family="Helvetica,sans-Serif" font-size="10.00">+ valorTotalOrcado()</text>
<text text-anchor="start" x="120" y="-211.5" font-family="Helvetica,sans-Serif" font-size="10.00">+ alterarDados()</text>
<text text-anchor="start" x="120" y="-200.5" font-family="Helvetica,sans-Serif" font-size="10.00">+ naoExisteUsuario()</text>
<text text-anchor="start" x="120" y="-189.5" font-family="Helvetica,sans-Serif" font-size="10.00">+ existeHospital()</text>
<text text-anchor="start" x="120" y="-178.5" font-family="Helvetica,sans-Serif" font-size="10.00">+ getHospital()</text>
</a>
</g>
</g>
<!-- Node2 -->
<g id="node2" class="node">
<title>Node2</title>
<g id="a_node2"><a xlink:href="classCidadao.html" target="_top" xlink:title="Classe Cidadao.">
<polygon fill="white" stroke="black" points="0,-28 0,-107 85,-107 85,-28 0,-28"/>
<text text-anchor="middle" x="42.5" y="-95" font-family="Helvetica,sans-Serif" font-size="10.00">Cidadao</text>
<polyline fill="none" stroke="black" points="0,-88 85,-88 "/>
<text text-anchor="middle" x="42.5" y="-76" font-family="Helvetica,sans-Serif" font-size="10.00"> </text>
<polyline fill="none" stroke="black" points="0,-69 85,-69 "/>
<text text-anchor="start" x="8" y="-57" font-family="Helvetica,sans-Serif" font-size="10.00">+ Cidadao()</text>
<text text-anchor="start" x="8" y="-46" font-family="Helvetica,sans-Serif" font-size="10.00">+ printMenu()</text>
<text text-anchor="start" x="8" y="-35" font-family="Helvetica,sans-Serif" font-size="10.00">+ menu()</text>
</a>
</g>
</g>
<!-- Node1&#45;&gt;Node2 -->
<g id="edge1" class="edge">
<title>Node1&#45;&gt;Node2</title>
<path fill="none" stroke="midnightblue" d="M106.98,-180.74C91.59,-153.95 76.41,-127.53 64.65,-107.05"/>
<polygon fill="none" stroke="midnightblue" points="103.96,-182.51 111.98,-189.44 110.03,-179.03 103.96,-182.51"/>
</g>
<!-- Node3 -->
<g id="node3" class="node">
<title>Node3</title>
<g id="a_node3"><a xlink:href="classPrefeito.html" target="_top" xlink:title="Classe Prefeito.">
<polygon fill="white" stroke="black" points="103,-0.5 103,-134.5 252,-134.5 252,-0.5 103,-0.5"/>
<text text-anchor="middle" x="177.5" y="-122.5" font-family="Helvetica,sans-Serif" font-size="10.00">Prefeito</text>
<polyline fill="none" stroke="black" points="103,-115.5 252,-115.5 "/>
<text text-anchor="middle" x="177.5" y="-103.5" font-family="Helvetica,sans-Serif" font-size="10.00"> </text>
<polyline fill="none" stroke="black" points="103,-96.5 252,-96.5 "/>
<text text-anchor="start" x="111" y="-84.5" font-family="Helvetica,sans-Serif" font-size="10.00">+ Prefeito()</text>
<text text-anchor="start" x="111" y="-73.5" font-family="Helvetica,sans-Serif" font-size="10.00">+ printMenu()</text>
<text text-anchor="start" x="111" y="-62.5" font-family="Helvetica,sans-Serif" font-size="10.00">+ menu()</text>
<text text-anchor="start" x="111" y="-51.5" font-family="Helvetica,sans-Serif" font-size="10.00">+ registrarGasto()</text>
<text text-anchor="start" x="111" y="-40.5" font-family="Helvetica,sans-Serif" font-size="10.00">+ definirTeto()</text>
<text text-anchor="start" x="111" y="-29.5" font-family="Helvetica,sans-Serif" font-size="10.00">+ cadastrarHospital()</text>
<text text-anchor="start" x="111" y="-18.5" font-family="Helvetica,sans-Serif" font-size="10.00">+ naoExisteHospital()</text>
<text text-anchor="start" x="111" y="-7.5" font-family="Helvetica,sans-Serif" font-size="10.00">+ movimentarOrcamento()</text>
</a>
</g>
</g>
<!-- Node1&#45;&gt;Node3 -->
<g id="edge2" class="edge">
<title>Node1&#45;&gt;Node3</title>
<path fill="none" stroke="midnightblue" d="M177.5,-161.23C177.5,-152.08 177.5,-143.13 177.5,-134.64"/>
<polygon fill="none" stroke="midnightblue" points="174,-161.23 177.5,-171.23 181,-161.23 174,-161.23"/>
</g>
<!-- Node4 -->
<g id="node4" class="node">
<title>Node4</title>
<g id="a_node4"><a xlink:href="classSecretario.html" target="_top" xlink:title="Classe Secretario.">
<polygon fill="white" stroke="black" points="270,-22.5 270,-112.5 375,-112.5 375,-22.5 270,-22.5"/>
<text text-anchor="middle" x="322.5" y="-100.5" font-family="Helvetica,sans-Serif" font-size="10.00">Secretario</text>
<polyline fill="none" stroke="black" points="270,-93.5 375,-93.5 "/>
<text text-anchor="middle" x="322.5" y="-81.5" font-family="Helvetica,sans-Serif" font-size="10.00"> </text>
<polyline fill="none" stroke="black" points="270,-74.5 375,-74.5 "/>
<text text-anchor="start" x="278" y="-62.5" font-family="Helvetica,sans-Serif" font-size="10.00">+ Secretario()</text>
<text text-anchor="start" x="278" y="-51.5" font-family="Helvetica,sans-Serif" font-size="10.00">+ printMenu()</text>
<text text-anchor="start" x="278" y="-40.5" font-family="Helvetica,sans-Serif" font-size="10.00">+ menu()</text>
<text text-anchor="start" x="278" y="-29.5" font-family="Helvetica,sans-Serif" font-size="10.00">+ registrarGasto()</text>
</a>
</g>
</g>
<!-- Node1&#45;&gt;Node4 -->
<g id="edge3" class="edge">
<title>Node1&#45;&gt;Node4</title>
<path fill="none" stroke="midnightblue" d="M248.4,-188.59C265.06,-161.6 281.83,-134.42 295.19,-112.76"/>
<polygon fill="none" stroke="midnightblue" points="245.27,-187 243,-197.34 251.23,-190.67 245.27,-187"/>
</g>
</g>
</svg>
