<?xml version="1.0" encoding="UTF-8" standalone="no"?>
<!DOCTYPE svg PUBLIC "-//W3C//DTD SVG 1.1//EN"
 "http://www.w3.org/Graphics/SVG/1.1/DTD/svg11.dtd">
<!-- Generated by graphviz version 2.43.0 (0)
 -->
<!-- Title: GastoException Pages: 1 -->
<svg width="120pt" height="171pt"
 viewBox="0.00 0.00 120.00 171.00" xmlns="http://www.w3.org/2000/svg" xmlns:xlink="http://www.w3.org/1999/xlink">
<g id="graph0" class="graph" transform="scale(1 1) rotate(0) translate(4 167)">
<title>GastoException</title>
<polygon fill="white" stroke="transparent" points="-4,4 -4,-167 116,-167 116,4 -4,4"/>
<!-- Node1 -->
<g id="node1" class="node">
<title>Node1</title>
<g id="a_node1"><a xlink:title="Classe Gastoexception que é lançada quando um gasto ultrapassa o valor disponível pra orçamento.">
<polygon fill="#bfbfbf" stroke="black" points="0,-0.5 0,-68.5 112,-68.5 112,-0.5 0,-0.5"/>
<text text-anchor="middle" x="56" y="-56.5" font-family="Helvetica,sans-Serif" font-size="10.00">GastoException</text>
<polyline fill="none" stroke="black" points="0,-49.5 112,-49.5 "/>
<text text-anchor="start" x="8" y="-37.5" font-family="Helvetica,sans-Serif" font-size="10.00">&#45; _msg</text>
<polyline fill="none" stroke="black" points="0,-30.5 112,-30.5 "/>
<text text-anchor="start" x="8" y="-18.5" font-family="Helvetica,sans-Serif" font-size="10.00">+ GastoException()</text>
<text text-anchor="start" x="8" y="-7.5" font-family="Helvetica,sans-Serif" font-size="10.00">+ what()</text>
</a>
</g>
</g>
<!-- Node2 -->
<g id="node2" class="node">
<title>Node2</title>
<g id="a_node2"><a xlink:title=" ">
<polygon fill="white" stroke="#bfbfbf" points="13,-105.5 13,-162.5 99,-162.5 99,-105.5 13,-105.5"/>
<text text-anchor="middle" x="56" y="-150.5" font-family="Helvetica,sans-Serif" font-size="10.00">std::exception</text>
<polyline fill="none" stroke="#bfbfbf" points="13,-143.5 99,-143.5 "/>
<text text-anchor="middle" x="56" y="-131.5" font-family="Helvetica,sans-Serif" font-size="10.00"> </text>
<polyline fill="none" stroke="#bfbfbf" points="13,-124.5 99,-124.5 "/>
<text text-anchor="middle" x="56" y="-112.5" font-family="Helvetica,sans-Serif" font-size="10.00"> </text>
</a>
</g>
</g>
<!-- Node2&#45;&gt;Node1 -->
<g id="edge1" class="edge">
<title>Node2&#45;&gt;Node1</title>
<path fill="none" stroke="midnightblue" d="M56,-95.06C56,-86.39 56,-77.24 56,-68.79"/>
<polygon fill="none" stroke="midnightblue" points="52.5,-95.32 56,-105.32 59.5,-95.32 52.5,-95.32"/>
</g>
</g>
</svg>
