<?xml version="1.0" encoding="UTF-8" standalone="no"?>
<!DOCTYPE svg PUBLIC "-//W3C//DTD SVG 1.1//EN"
 "http://www.w3.org/Graphics/SVG/1.1/DTD/svg11.dtd">
<!-- Generated by graphviz version 2.43.0 (0)
 -->
<!-- Title: SenhaErradaException Pages: 1 -->
<svg width="153pt" height="171pt"
 viewBox="0.00 0.00 153.00 171.00" xmlns="http://www.w3.org/2000/svg" xmlns:xlink="http://www.w3.org/1999/xlink">
<g id="graph0" class="graph" transform="scale(1 1) rotate(0) translate(4 167)">
<title>SenhaErradaException</title>
<polygon fill="white" stroke="transparent" points="-4,4 -4,-167 149,-167 149,4 -4,4"/>
<!-- Node1 -->
<g id="node1" class="node">
<title>Node1</title>
<g id="a_node1"><a xlink:title="Classe SenhaErradaException que é lançada quando a senha inserida não é igual a que foi cadastrada.">
<polygon fill="#bfbfbf" stroke="black" points="0,-0.5 0,-68.5 145,-68.5 145,-0.5 0,-0.5"/>
<text text-anchor="middle" x="72.5" y="-56.5" font-family="Helvetica,sans-Serif" font-size="10.00">SenhaErradaException</text>
<polyline fill="none" stroke="black" points="0,-49.5 145,-49.5 "/>
<text text-anchor="start" x="8" y="-37.5" font-family="Helvetica,sans-Serif" font-size="10.00">&#45; _msg</text>
<polyline fill="none" stroke="black" points="0,-30.5 145,-30.5 "/>
<text text-anchor="start" x="8" y="-18.5" font-family="Helvetica,sans-Serif" font-size="10.00">+ SenhaErradaException()</text>
<text text-anchor="start" x="8" y="-7.5" font-family="Helvetica,sans-Serif" font-size="10.00">+ what()</text>
</a>
</g>
</g>
<!-- Node2 -->
<g id="node2" class="node">
<title>Node2</title>
<g id="a_node2"><a xlink:title=" ">
<polygon fill="white" stroke="#bfbfbf" points="40,-105.5 40,-162.5 105,-162.5 105,-105.5 40,-105.5"/>
<text text-anchor="middle" x="72.5" y="-150.5" font-family="Helvetica,sans-Serif" font-size="10.00">exception</text>
<polyline fill="none" stroke="#bfbfbf" points="40,-143.5 105,-143.5 "/>
<text text-anchor="middle" x="72.5" y="-131.5" font-family="Helvetica,sans-Serif" font-size="10.00"> </text>
<polyline fill="none" stroke="#bfbfbf" points="40,-124.5 105,-124.5 "/>
<text text-anchor="middle" x="72.5" y="-112.5" font-family="Helvetica,sans-Serif" font-size="10.00"> </text>
</a>
</g>
</g>
<!-- Node2&#45;&gt;Node1 -->
<g id="edge1" class="edge">
<title>Node2&#45;&gt;Node1</title>
<path fill="none" stroke="midnightblue" d="M72.5,-95.06C72.5,-86.39 72.5,-77.24 72.5,-68.79"/>
<polygon fill="none" stroke="midnightblue" points="69,-95.32 72.5,-105.32 76,-95.32 69,-95.32"/>
</g>
</g>
</svg>
