<?xml version="1.0" encoding="UTF-8" standalone="no"?>
<!DOCTYPE svg PUBLIC "-//W3C//DTD SVG 1.1//EN"
 "http://www.w3.org/Graphics/SVG/1.1/DTD/svg11.dtd">
<!-- Generated by graphviz version 2.43.0 (0)
 -->
<!-- Title: include/gastoException.hpp Pages: 1 -->
<svg width="496pt" height="196pt"
 viewBox="0.00 0.00 495.50 196.00" xmlns="http://www.w3.org/2000/svg" xmlns:xlink="http://www.w3.org/1999/xlink">
<g id="graph0" class="graph" transform="scale(1 1) rotate(0) translate(4 192)">
<title>include/gastoException.hpp</title>
<polygon fill="white" stroke="transparent" points="-4,4 -4,-192 491.5,-192 491.5,4 -4,4"/>
<!-- Node1 -->
<g id="node1" class="node">
<title>Node1</title>
<g id="a_node1"><a xlink:title="Arquivo da classe GastoException.">
<polygon fill="#bfbfbf" stroke="black" points="167.5,-168.5 167.5,-187.5 318.5,-187.5 318.5,-168.5 167.5,-168.5"/>
<text text-anchor="middle" x="243" y="-175.5" font-family="Helvetica,sans-Serif" font-size="10.00">include/gastoException.hpp</text>
</a>
</g>
</g>
<!-- Node2 -->
<g id="node2" class="node">
<title>Node2</title>
<g id="a_node2"><a xlink:href="gastoException_8cpp.html" target="_top" xlink:title=" ">
<polygon fill="white" stroke="black" points="0,-112.5 0,-131.5 168,-131.5 168,-112.5 0,-112.5"/>
<text text-anchor="middle" x="84" y="-119.5" font-family="Helvetica,sans-Serif" font-size="10.00">exceptions/gastoException.cpp</text>
</a>
</g>
</g>
<!-- Node1&#45;&gt;Node2 -->
<g id="edge1" class="edge">
<title>Node1&#45;&gt;Node2</title>
<path fill="none" stroke="midnightblue" d="M208.17,-165.17C178.23,-155 135.78,-140.59 109.08,-131.52"/>
<polygon fill="midnightblue" stroke="midnightblue" points="207.21,-168.54 217.81,-168.44 209.46,-161.91 207.21,-168.54"/>
</g>
<!-- Node3 -->
<g id="node3" class="node">
<title>Node3</title>
<g id="a_node3"><a xlink:href="prefeito_8hpp.html" target="_top" xlink:title="Arquivo da classe Prefeito.">
<polygon fill="white" stroke="black" points="186,-112.5 186,-131.5 300,-131.5 300,-112.5 186,-112.5"/>
<text text-anchor="middle" x="243" y="-119.5" font-family="Helvetica,sans-Serif" font-size="10.00">include/prefeito.hpp</text>
</a>
</g>
</g>
<!-- Node1&#45;&gt;Node3 -->
<g id="edge2" class="edge">
<title>Node1&#45;&gt;Node3</title>
<path fill="none" stroke="midnightblue" d="M243,-157.8C243,-148.91 243,-138.78 243,-131.75"/>
<polygon fill="midnightblue" stroke="midnightblue" points="239.5,-158.08 243,-168.08 246.5,-158.08 239.5,-158.08"/>
</g>
<!-- Node8 -->
<g id="node8" class="node">
<title>Node8</title>
<g id="a_node8"><a xlink:href="secretario_8hpp.html" target="_top" xlink:title="Arquivo da classe Secretario.">
<polygon fill="white" stroke="black" points="318.5,-112.5 318.5,-131.5 443.5,-131.5 443.5,-112.5 318.5,-112.5"/>
<text text-anchor="middle" x="381" y="-119.5" font-family="Helvetica,sans-Serif" font-size="10.00">include/secretario.hpp</text>
</a>
</g>
</g>
<!-- Node1&#45;&gt;Node8 -->
<g id="edge7" class="edge">
<title>Node1&#45;&gt;Node8</title>
<path fill="none" stroke="midnightblue" d="M274.25,-164.77C300.17,-154.63 336.36,-140.47 359.24,-131.52"/>
<polygon fill="midnightblue" stroke="midnightblue" points="272.9,-161.54 264.87,-168.44 275.45,-168.06 272.9,-161.54"/>
</g>
<!-- Node4 -->
<g id="node4" class="node">
<title>Node4</title>
<g id="a_node4"><a xlink:href="sistema_8hpp.html" target="_top" xlink:title="Arquivo da classe Sistema.">
<polygon fill="white" stroke="black" points="251.5,-56.5 251.5,-75.5 366.5,-75.5 366.5,-56.5 251.5,-56.5"/>
<text text-anchor="middle" x="309" y="-63.5" font-family="Helvetica,sans-Serif" font-size="10.00">include/sistema.hpp</text>
</a>
</g>
</g>
<!-- Node3&#45;&gt;Node4 -->
<g id="edge3" class="edge">
<title>Node3&#45;&gt;Node4</title>
<path fill="none" stroke="midnightblue" d="M261.55,-105.82C273.38,-96.15 288.29,-83.95 298.2,-75.83"/>
<polygon fill="midnightblue" stroke="midnightblue" points="259.13,-103.28 253.6,-112.32 263.56,-108.7 259.13,-103.28"/>
</g>
<!-- Node7 -->
<g id="node7" class="node">
<title>Node7</title>
<g id="a_node7"><a xlink:href="prefeito_8cpp.html" target="_top" xlink:title=" ">
<polygon fill="white" stroke="black" points="141,-56.5 141,-75.5 233,-75.5 233,-56.5 141,-56.5"/>
<text text-anchor="middle" x="187" y="-63.5" font-family="Helvetica,sans-Serif" font-size="10.00">src/prefeito.cpp</text>
</a>
</g>
</g>
<!-- Node3&#45;&gt;Node7 -->
<g id="edge6" class="edge">
<title>Node3&#45;&gt;Node7</title>
<path fill="none" stroke="midnightblue" d="M226.67,-105.25C216.74,-95.67 204.41,-83.79 196.16,-75.83"/>
<polygon fill="midnightblue" stroke="midnightblue" points="224.37,-107.9 234,-112.32 229.23,-102.86 224.37,-107.9"/>
</g>
<!-- Node5 -->
<g id="node5" class="node">
<title>Node5</title>
<g id="a_node5"><a xlink:href="main_8cpp.html" target="_top" xlink:title=" ">
<polygon fill="white" stroke="black" points="217.5,-0.5 217.5,-19.5 296.5,-19.5 296.5,-0.5 217.5,-0.5"/>
<text text-anchor="middle" x="257" y="-7.5" font-family="Helvetica,sans-Serif" font-size="10.00">src/main.cpp</text>
</a>
</g>
</g>
<!-- Node4&#45;&gt;Node5 -->
<g id="edge4" class="edge">
<title>Node4&#45;&gt;Node5</title>
<path fill="none" stroke="midnightblue" d="M293.32,-48.72C284.16,-39.2 272.95,-27.56 265.43,-19.75"/>
<polygon fill="midnightblue" stroke="midnightblue" points="290.96,-51.31 300.41,-56.08 296,-46.45 290.96,-51.31"/>
</g>
<!-- Node6 -->
<g id="node6" class="node">
<title>Node6</title>
<g id="a_node6"><a xlink:href="sistema_8cpp.html" target="_top" xlink:title=" ">
<polygon fill="white" stroke="black" points="314.5,-0.5 314.5,-19.5 407.5,-19.5 407.5,-0.5 314.5,-0.5"/>
<text text-anchor="middle" x="361" y="-7.5" font-family="Helvetica,sans-Serif" font-size="10.00">src/sistema.cpp</text>
</a>
</g>
</g>
<!-- Node4&#45;&gt;Node6 -->
<g id="edge5" class="edge">
<title>Node4&#45;&gt;Node6</title>
<path fill="none" stroke="midnightblue" d="M324.68,-48.72C333.84,-39.2 345.05,-27.56 352.57,-19.75"/>
<polygon fill="midnightblue" stroke="midnightblue" points="322,-46.45 317.59,-56.08 327.04,-51.31 322,-46.45"/>
</g>
<!-- Node8&#45;&gt;Node4 -->
<g id="edge8" class="edge">
<title>Node8&#45;&gt;Node4</title>
<path fill="none" stroke="midnightblue" d="M361.13,-106.1C348.18,-96.38 331.7,-84.03 320.78,-75.83"/>
<polygon fill="midnightblue" stroke="midnightblue" points="359.33,-109.12 369.43,-112.32 363.53,-103.52 359.33,-109.12"/>
</g>
<!-- Node9 -->
<g id="node9" class="node">
<title>Node9</title>
<g id="a_node9"><a xlink:href="secretario_8cpp.html" target="_top" xlink:title=" ">
<polygon fill="white" stroke="black" points="384.5,-56.5 384.5,-75.5 487.5,-75.5 487.5,-56.5 384.5,-56.5"/>
<text text-anchor="middle" x="436" y="-63.5" font-family="Helvetica,sans-Serif" font-size="10.00">src/secretario.cpp</text>
</a>
</g>
</g>
<!-- Node8&#45;&gt;Node9 -->
<g id="edge9" class="edge">
<title>Node8&#45;&gt;Node9</title>
<path fill="none" stroke="midnightblue" d="M397.29,-105C407.04,-95.43 419.05,-83.64 427.09,-75.75"/>
<polygon fill="midnightblue" stroke="midnightblue" points="394.77,-102.58 390.08,-112.08 399.67,-107.57 394.77,-102.58"/>
</g>
</g>
</svg>
