<?xml version="1.0" encoding="UTF-8" standalone="no"?>
<!DOCTYPE svg PUBLIC "-//W3C//DTD SVG 1.1//EN"
 "http://www.w3.org/Graphics/SVG/1.1/DTD/svg11.dtd">
<!-- Generated by graphviz version 2.43.0 (0)
 -->
<!-- Title: include/hospitalExisteException.hpp Pages: 1 -->
<svg width="332pt" height="207pt"
 viewBox="0.00 0.00 332.00 207.00" xmlns="http://www.w3.org/2000/svg" xmlns:xlink="http://www.w3.org/1999/xlink">
<g id="graph0" class="graph" transform="scale(1 1) rotate(0) translate(4 203)">
<title>include/hospitalExisteException.hpp</title>
<polygon fill="white" stroke="transparent" points="-4,4 -4,-203 328,-203 328,4 -4,4"/>
<!-- Node1 -->
<g id="node1" class="node">
<title>Node1</title>
<g id="a_node1"><a xlink:title="Arqivo da classe HospitalExisteException.">
<polygon fill="#bfbfbf" stroke="black" points="47.5,-179.5 47.5,-198.5 240.5,-198.5 240.5,-179.5 47.5,-179.5"/>
<text text-anchor="middle" x="144" y="-186.5" font-family="Helvetica,sans-Serif" font-size="10.00">include/hospitalExisteException.hpp</text>
</a>
</g>
</g>
<!-- Node2 -->
<g id="node2" class="node">
<title>Node2</title>
<g id="a_node2"><a xlink:href="hospitalExisteException_8cpp.html" target="_top" xlink:title=" ">
<polygon fill="white" stroke="black" points="0,-112.5 0,-142.5 142,-142.5 142,-112.5 0,-112.5"/>
<text text-anchor="start" x="8" y="-130.5" font-family="Helvetica,sans-Serif" font-size="10.00">exceptions/hospitalExiste</text>
<text text-anchor="middle" x="71" y="-119.5" font-family="Helvetica,sans-Serif" font-size="10.00">Exception.cpp</text>
</a>
</g>
</g>
<!-- Node1&#45;&gt;Node2 -->
<g id="edge1" class="edge">
<title>Node1&#45;&gt;Node2</title>
<path fill="none" stroke="midnightblue" d="M125.5,-172.92C114.04,-163.58 99.42,-151.66 88.2,-142.52"/>
<polygon fill="midnightblue" stroke="midnightblue" points="123.58,-175.87 133.54,-179.48 128,-170.44 123.58,-175.87"/>
</g>
<!-- Node3 -->
<g id="node3" class="node">
<title>Node3</title>
<g id="a_node3"><a xlink:href="prefeito_8hpp.html" target="_top" xlink:title="Arquivo da classe Prefeito.">
<polygon fill="white" stroke="black" points="160,-118 160,-137 274,-137 274,-118 160,-118"/>
<text text-anchor="middle" x="217" y="-125" font-family="Helvetica,sans-Serif" font-size="10.00">include/prefeito.hpp</text>
</a>
</g>
</g>
<!-- Node1&#45;&gt;Node3 -->
<g id="edge2" class="edge">
<title>Node1&#45;&gt;Node3</title>
<path fill="none" stroke="midnightblue" d="M162.44,-172.97C176.4,-161.59 195.08,-146.37 206.56,-137.01"/>
<polygon fill="midnightblue" stroke="midnightblue" points="160,-170.44 154.46,-179.48 164.42,-175.87 160,-170.44"/>
</g>
<!-- Node4 -->
<g id="node4" class="node">
<title>Node4</title>
<g id="a_node4"><a xlink:href="sistema_8hpp.html" target="_top" xlink:title="Arquivo da classe Sistema.">
<polygon fill="white" stroke="black" points="98.5,-56.5 98.5,-75.5 213.5,-75.5 213.5,-56.5 98.5,-56.5"/>
<text text-anchor="middle" x="156" y="-63.5" font-family="Helvetica,sans-Serif" font-size="10.00">include/sistema.hpp</text>
</a>
</g>
</g>
<!-- Node3&#45;&gt;Node4 -->
<g id="edge3" class="edge">
<title>Node3&#45;&gt;Node4</title>
<path fill="none" stroke="midnightblue" d="M200.93,-110.82C189.34,-99.52 174.14,-84.69 164.72,-75.51"/>
<polygon fill="midnightblue" stroke="midnightblue" points="198.66,-113.5 208.26,-117.98 203.55,-108.49 198.66,-113.5"/>
</g>
<!-- Node7 -->
<g id="node7" class="node">
<title>Node7</title>
<g id="a_node7"><a xlink:href="prefeito_8cpp.html" target="_top" xlink:title=" ">
<polygon fill="white" stroke="black" points="232,-56.5 232,-75.5 324,-75.5 324,-56.5 232,-56.5"/>
<text text-anchor="middle" x="278" y="-63.5" font-family="Helvetica,sans-Serif" font-size="10.00">src/prefeito.cpp</text>
</a>
</g>
</g>
<!-- Node3&#45;&gt;Node7 -->
<g id="edge6" class="edge">
<title>Node3&#45;&gt;Node7</title>
<path fill="none" stroke="midnightblue" d="M233.07,-110.82C244.66,-99.52 259.86,-84.69 269.28,-75.51"/>
<polygon fill="midnightblue" stroke="midnightblue" points="230.45,-108.49 225.74,-117.98 235.34,-113.5 230.45,-108.49"/>
</g>
<!-- Node5 -->
<g id="node5" class="node">
<title>Node5</title>
<g id="a_node5"><a xlink:href="main_8cpp.html" target="_top" xlink:title=" ">
<polygon fill="white" stroke="black" points="64.5,-0.5 64.5,-19.5 143.5,-19.5 143.5,-0.5 64.5,-0.5"/>
<text text-anchor="middle" x="104" y="-7.5" font-family="Helvetica,sans-Serif" font-size="10.00">src/main.cpp</text>
</a>
</g>
</g>
<!-- Node4&#45;&gt;Node5 -->
<g id="edge4" class="edge">
<title>Node4&#45;&gt;Node5</title>
<path fill="none" stroke="midnightblue" d="M140.32,-48.72C131.16,-39.2 119.95,-27.56 112.43,-19.75"/>
<polygon fill="midnightblue" stroke="midnightblue" points="137.96,-51.31 147.41,-56.08 143,-46.45 137.96,-51.31"/>
</g>
<!-- Node6 -->
<g id="node6" class="node">
<title>Node6</title>
<g id="a_node6"><a xlink:href="sistema_8cpp.html" target="_top" xlink:title=" ">
<polygon fill="white" stroke="black" points="161.5,-0.5 161.5,-19.5 254.5,-19.5 254.5,-0.5 161.5,-0.5"/>
<text text-anchor="middle" x="208" y="-7.5" font-family="Helvetica,sans-Serif" font-size="10.00">src/sistema.cpp</text>
</a>
</g>
</g>
<!-- Node4&#45;&gt;Node6 -->
<g id="edge5" class="edge">
<title>Node4&#45;&gt;Node6</title>
<path fill="none" stroke="midnightblue" d="M171.68,-48.72C180.84,-39.2 192.05,-27.56 199.57,-19.75"/>
<polygon fill="midnightblue" stroke="midnightblue" points="169,-46.45 164.59,-56.08 174.04,-51.31 169,-46.45"/>
</g>
</g>
</svg>
