<?xml version="1.0" encoding="UTF-8" standalone="no"?>
<!DOCTYPE svg PUBLIC "-//W3C//DTD SVG 1.1//EN"
 "http://www.w3.org/Graphics/SVG/1.1/DTD/svg11.dtd">
<!-- Generated by graphviz version 2.43.0 (0)
 -->
<!-- Title: include/hospitalNaoExisteException.hpp Pages: 1 -->
<svg width="151pt" height="95pt"
 viewBox="0.00 0.00 151.00 95.00" xmlns="http://www.w3.org/2000/svg" xmlns:xlink="http://www.w3.org/1999/xlink">
<g id="graph0" class="graph" transform="scale(1 1) rotate(0) translate(4 91)">
<title>include/hospitalNaoExisteException.hpp</title>
<polygon fill="white" stroke="transparent" points="-4,4 -4,-91 147,-91 147,4 -4,4"/>
<!-- Node1 -->
<g id="node1" class="node">
<title>Node1</title>
<g id="a_node1"><a xlink:title="Arquivo da classe HospitalNaoExisteException.">
<polygon fill="#bfbfbf" stroke="black" points="0,-56.5 0,-86.5 143,-86.5 143,-56.5 0,-56.5"/>
<text text-anchor="start" x="8" y="-74.5" font-family="Helvetica,sans-Serif" font-size="10.00">include/hospitalNaoExiste</text>
<text text-anchor="middle" x="71.5" y="-63.5" font-family="Helvetica,sans-Serif" font-size="10.00">Exception.hpp</text>
</a>
</g>
</g>
<!-- Node2 -->
<g id="node2" class="node">
<title>Node2</title>
<g id="a_node2"><a xlink:title=" ">
<polygon fill="white" stroke="#bfbfbf" points="6.5,-0.5 6.5,-19.5 66.5,-19.5 66.5,-0.5 6.5,-0.5"/>
<text text-anchor="middle" x="36.5" y="-7.5" font-family="Helvetica,sans-Serif" font-size="10.00">iostream</text>
</a>
</g>
</g>
<!-- Node1&#45;&gt;Node2 -->
<g id="edge1" class="edge">
<title>Node1&#45;&gt;Node2</title>
<path fill="none" stroke="midnightblue" d="M63.21,-56.4C58.28,-48.02 51.99,-37.33 46.75,-28.42"/>
<polygon fill="midnightblue" stroke="midnightblue" points="49.68,-26.5 41.59,-19.66 43.65,-30.05 49.68,-26.5"/>
</g>
<!-- Node3 -->
<g id="node3" class="node">
<title>Node3</title>
<g id="a_node3"><a xlink:title=" ">
<polygon fill="white" stroke="#bfbfbf" points="84.5,-0.5 84.5,-19.5 128.5,-19.5 128.5,-0.5 84.5,-0.5"/>
<text text-anchor="middle" x="106.5" y="-7.5" font-family="Helvetica,sans-Serif" font-size="10.00">string</text>
</a>
</g>
</g>
<!-- Node1&#45;&gt;Node3 -->
<g id="edge2" class="edge">
<title>Node1&#45;&gt;Node3</title>
<path fill="none" stroke="midnightblue" d="M79.79,-56.4C84.72,-48.02 91.01,-37.33 96.25,-28.42"/>
<polygon fill="midnightblue" stroke="midnightblue" points="99.35,-30.05 101.41,-19.66 93.32,-26.5 99.35,-30.05"/>
</g>
</g>
</svg>
