<?xml version="1.0" encoding="UTF-8" standalone="no"?>
<!DOCTYPE svg PUBLIC "-//W3C//DTD SVG 1.1//EN"
 "http://www.w3.org/Graphics/SVG/1.1/DTD/svg11.dtd">
<!-- Generated by graphviz version 2.43.0 (0)
 -->
<!-- Title: exceptions/hospitalNaoExisteException.cpp Pages: 1 -->
<svg width="182pt" height="151pt"
 viewBox="0.00 0.00 182.00 151.00" xmlns="http://www.w3.org/2000/svg" xmlns:xlink="http://www.w3.org/1999/xlink">
<g id="graph0" class="graph" transform="scale(1 1) rotate(0) translate(4 147)">
<title>exceptions/hospitalNaoExisteException.cpp</title>
<polygon fill="white" stroke="transparent" points="-4,4 -4,-147 178,-147 178,4 -4,4"/>
<!-- Node1 -->
<g id="node1" class="node">
<title>Node1</title>
<g id="a_node1"><a xlink:title=" ">
<polygon fill="#bfbfbf" stroke="black" points="6.5,-112.5 6.5,-142.5 167.5,-142.5 167.5,-112.5 6.5,-112.5"/>
<text text-anchor="start" x="14.5" y="-130.5" font-family="Helvetica,sans-Serif" font-size="10.00">exceptions/hospitalNaoExiste</text>
<text text-anchor="middle" x="87" y="-119.5" font-family="Helvetica,sans-Serif" font-size="10.00">Exception.cpp</text>
</a>
</g>
</g>
<!-- Node2 -->
<g id="node2" class="node">
<title>Node2</title>
<g id="a_node2"><a xlink:href="hospitalNaoExisteException_8hpp.html" target="_top" xlink:title="Arquivo da classe HospitalNaoExisteException.">
<polygon fill="white" stroke="black" points="0,-56.5 0,-75.5 174,-75.5 174,-56.5 0,-56.5"/>
<text text-anchor="middle" x="87" y="-63.5" font-family="Helvetica,sans-Serif" font-size="10.00">hospitalNaoExisteException.hpp</text>
</a>
</g>
</g>
<!-- Node1&#45;&gt;Node2 -->
<g id="edge1" class="edge">
<title>Node1&#45;&gt;Node2</title>
<path fill="none" stroke="midnightblue" d="M87,-112.4C87,-104.47 87,-94.46 87,-85.86"/>
<polygon fill="midnightblue" stroke="midnightblue" points="90.5,-85.66 87,-75.66 83.5,-85.66 90.5,-85.66"/>
</g>
<!-- Node3 -->
<g id="node3" class="node">
<title>Node3</title>
<g id="a_node3"><a xlink:title=" ">
<polygon fill="white" stroke="#bfbfbf" points="22,-0.5 22,-19.5 82,-19.5 82,-0.5 22,-0.5"/>
<text text-anchor="middle" x="52" y="-7.5" font-family="Helvetica,sans-Serif" font-size="10.00">iostream</text>
</a>
</g>
</g>
<!-- Node2&#45;&gt;Node3 -->
<g id="edge2" class="edge">
<title>Node2&#45;&gt;Node3</title>
<path fill="none" stroke="midnightblue" d="M81.22,-56.08C76.33,-48.53 69.17,-37.49 63.17,-28.23"/>
<polygon fill="midnightblue" stroke="midnightblue" points="66.05,-26.24 57.67,-19.75 60.17,-30.05 66.05,-26.24"/>
</g>
<!-- Node4 -->
<g id="node4" class="node">
<title>Node4</title>
<g id="a_node4"><a xlink:title=" ">
<polygon fill="white" stroke="#bfbfbf" points="100,-0.5 100,-19.5 144,-19.5 144,-0.5 100,-0.5"/>
<text text-anchor="middle" x="122" y="-7.5" font-family="Helvetica,sans-Serif" font-size="10.00">string</text>
</a>
</g>
</g>
<!-- Node2&#45;&gt;Node4 -->
<g id="edge3" class="edge">
<title>Node2&#45;&gt;Node4</title>
<path fill="none" stroke="midnightblue" d="M92.78,-56.08C97.67,-48.53 104.83,-37.49 110.83,-28.23"/>
<polygon fill="midnightblue" stroke="midnightblue" points="113.83,-30.05 116.33,-19.75 107.95,-26.24 113.83,-30.05"/>
</g>
</g>
</svg>
