<?xml version="1.0" encoding="UTF-8" standalone="no"?>
<!DOCTYPE svg PUBLIC "-//W3C//DTD SVG 1.1//EN"
 "http://www.w3.org/Graphics/SVG/1.1/DTD/svg11.dtd">
<!-- Generated by graphviz version 2.43.0 (0)
 -->
<!-- Title: include/hospitalExisteException.hpp Pages: 1 -->
<svg width="201pt" height="84pt"
 viewBox="0.00 0.00 201.00 84.00" xmlns="http://www.w3.org/2000/svg" xmlns:xlink="http://www.w3.org/1999/xlink">
<g id="graph0" class="graph" transform="scale(1 1) rotate(0) translate(4 80)">
<title>include/hospitalExisteException.hpp</title>
<polygon fill="white" stroke="transparent" points="-4,4 -4,-80 197,-80 197,4 -4,4"/>
<!-- Node1 -->
<g id="node1" class="node">
<title>Node1</title>
<g id="a_node1"><a xlink:title="Arqivo da classe HospitalExisteException.">
<polygon fill="#bfbfbf" stroke="black" points="0,-56.5 0,-75.5 193,-75.5 193,-56.5 0,-56.5"/>
<text text-anchor="middle" x="96.5" y="-63.5" font-family="Helvetica,sans-Serif" font-size="10.00">include/hospitalExisteException.hpp</text>
</a>
</g>
</g>
<!-- Node2 -->
<g id="node2" class="node">
<title>Node2</title>
<g id="a_node2"><a xlink:title=" ">
<polygon fill="white" stroke="#bfbfbf" points="31.5,-0.5 31.5,-19.5 91.5,-19.5 91.5,-0.5 31.5,-0.5"/>
<text text-anchor="middle" x="61.5" y="-7.5" font-family="Helvetica,sans-Serif" font-size="10.00">iostream</text>
</a>
</g>
</g>
<!-- Node1&#45;&gt;Node2 -->
<g id="edge1" class="edge">
<title>Node1&#45;&gt;Node2</title>
<path fill="none" stroke="midnightblue" d="M90.72,-56.08C85.83,-48.53 78.67,-37.49 72.67,-28.23"/>
<polygon fill="midnightblue" stroke="midnightblue" points="75.55,-26.24 67.17,-19.75 69.67,-30.05 75.55,-26.24"/>
</g>
<!-- Node3 -->
<g id="node3" class="node">
<title>Node3</title>
<g id="a_node3"><a xlink:title=" ">
<polygon fill="white" stroke="#bfbfbf" points="109.5,-0.5 109.5,-19.5 153.5,-19.5 153.5,-0.5 109.5,-0.5"/>
<text text-anchor="middle" x="131.5" y="-7.5" font-family="Helvetica,sans-Serif" font-size="10.00">string</text>
</a>
</g>
</g>
<!-- Node1&#45;&gt;Node3 -->
<g id="edge2" class="edge">
<title>Node1&#45;&gt;Node3</title>
<path fill="none" stroke="midnightblue" d="M102.28,-56.08C107.17,-48.53 114.33,-37.49 120.33,-28.23"/>
<polygon fill="midnightblue" stroke="midnightblue" points="123.33,-30.05 125.83,-19.75 117.45,-26.24 123.33,-30.05"/>
</g>
</g>
</svg>
