<?xml version="1.0" encoding="UTF-8" standalone="no"?>
<!DOCTYPE svg PUBLIC "-//W3C//DTD SVG 1.1//EN"
 "http://www.w3.org/Graphics/SVG/1.1/DTD/svg11.dtd">
<!-- Generated by graphviz version 2.43.0 (0)
 -->
<!-- Title: Graphical Class Hierarchy Pages: 1 -->
<svg width="164pt" height="104pt"
 viewBox="0.00 0.00 164.00 104.00" xmlns="http://www.w3.org/2000/svg" xmlns:xlink="http://www.w3.org/1999/xlink">
<g id="graph0" class="graph" transform="scale(1 1) rotate(0) translate(4 100)">
<title>Graphical Class Hierarchy</title>
<polygon fill="white" stroke="transparent" points="-4,4 -4,-100 160,-100 160,4 -4,4"/>
<!-- Node0 -->
<g id="node1" class="node">
<title>Node0</title>
<g id="a_node1"><a xlink:href="classUsuario.html" target="_top" xlink:title="Classe Usuario.">
<polygon fill="white" stroke="black" points="0,-38.5 0,-57.5 54,-57.5 54,-38.5 0,-38.5"/>
<text text-anchor="middle" x="27" y="-45.5" font-family="Helvetica,sans-Serif" font-size="10.00">Usuario</text>
</a>
</g>
</g>
<!-- Node1 -->
<g id="node2" class="node">
<title>Node1</title>
<g id="a_node2"><a xlink:href="classCidadao.html" target="_top" xlink:title="Classe Cidadao.">
<polygon fill="white" stroke="black" points="95,-76.5 95,-95.5 151,-95.5 151,-76.5 95,-76.5"/>
<text text-anchor="middle" x="123" y="-83.5" font-family="Helvetica,sans-Serif" font-size="10.00">Cidadao</text>
</a>
</g>
</g>
<!-- Node0&#45;&gt;Node1 -->
<g id="edge1" class="edge">
<title>Node0&#45;&gt;Node1</title>
<path fill="none" stroke="midnightblue" d="M61.18,-61.41C73.42,-66.36 87.04,-71.87 98.29,-76.41"/>
<polygon fill="midnightblue" stroke="midnightblue" points="62.3,-58.09 51.72,-57.59 59.68,-64.58 62.3,-58.09"/>
</g>
<!-- Node2 -->
<g id="node3" class="node">
<title>Node2</title>
<g id="a_node3"><a xlink:href="classPrefeito.html" target="_top" xlink:title="Classe Prefeito.">
<polygon fill="white" stroke="black" points="95.5,-38.5 95.5,-57.5 150.5,-57.5 150.5,-38.5 95.5,-38.5"/>
<text text-anchor="middle" x="123" y="-45.5" font-family="Helvetica,sans-Serif" font-size="10.00">Prefeito</text>
</a>
</g>
</g>
<!-- Node0&#45;&gt;Node2 -->
<g id="edge2" class="edge">
<title>Node0&#45;&gt;Node2</title>
<path fill="none" stroke="midnightblue" d="M64.21,-48C74.55,-48 85.64,-48 95.3,-48"/>
<polygon fill="midnightblue" stroke="midnightblue" points="64.18,-44.5 54.18,-48 64.18,-51.5 64.18,-44.5"/>
</g>
<!-- Node3 -->
<g id="node4" class="node">
<title>Node3</title>
<g id="a_node4"><a xlink:href="classSecretario.html" target="_top" xlink:title="Classe Secretario.">
<polygon fill="white" stroke="black" points="90,-0.5 90,-19.5 156,-19.5 156,-0.5 90,-0.5"/>
<text text-anchor="middle" x="123" y="-7.5" font-family="Helvetica,sans-Serif" font-size="10.00">Secretario</text>
</a>
</g>
</g>
<!-- Node0&#45;&gt;Node3 -->
<g id="edge3" class="edge">
<title>Node0&#45;&gt;Node3</title>
<path fill="none" stroke="midnightblue" d="M61.18,-34.59C73.42,-29.64 87.04,-24.13 98.29,-19.59"/>
<polygon fill="midnightblue" stroke="midnightblue" points="59.68,-31.42 51.72,-38.41 62.3,-37.91 59.68,-31.42"/>
</g>
</g>
</svg>
