<?xml version="1.0" encoding="UTF-8" standalone="no"?>
<!DOCTYPE svg PUBLIC "-//W3C//DTD SVG 1.1//EN"
 "http://www.w3.org/Graphics/SVG/1.1/DTD/svg11.dtd">
<!-- Generated by graphviz version 2.43.0 (0)
 -->
<!-- Title: Graphical Class Hierarchy Pages: 1 -->
<svg width="264pt" height="332pt"
 viewBox="0.00 0.00 264.00 332.00" xmlns="http://www.w3.org/2000/svg" xmlns:xlink="http://www.w3.org/1999/xlink">
<g id="graph0" class="graph" transform="scale(1 1) rotate(0) translate(4 328)">
<title>Graphical Class Hierarchy</title>
<polygon fill="white" stroke="transparent" points="-4,4 -4,-328 260,-328 260,4 -4,4"/>
<!-- Node7 -->
<g id="node1" class="node">
<title>Node7</title>
<g id="a_node1"><a xlink:title=" ">
<polygon fill="white" stroke="#bfbfbf" points="0,-152.5 0,-171.5 65,-171.5 65,-152.5 0,-152.5"/>
<text text-anchor="middle" x="32.5" y="-159.5" font-family="Helvetica,sans-Serif" font-size="10.00">exception</text>
</a>
</g>
</g>
<!-- Node0 -->
<g id="node2" class="node">
<title>Node0</title>
<g id="a_node2"><a xlink:href="classGastoException.html" target="_top" xlink:title="Classe Gastoexception que é lançada quando um gasto ultrapassa o valor disponível pra orçamento.">
<polygon fill="white" stroke="black" points="132,-304.5 132,-323.5 225,-323.5 225,-304.5 132,-304.5"/>
<text text-anchor="middle" x="178.5" y="-311.5" font-family="Helvetica,sans-Serif" font-size="10.00">GastoException</text>
</a>
</g>
</g>
<!-- Node7&#45;&gt;Node0 -->
<g id="edge1" class="edge">
<title>Node7&#45;&gt;Node0</title>
<path fill="none" stroke="midnightblue" d="M37.95,-181.66C45.61,-210.94 64.17,-265.69 101,-295 109.78,-301.99 120.78,-306.45 131.69,-309.29"/>
<polygon fill="midnightblue" stroke="midnightblue" points="41.31,-180.67 35.52,-171.8 34.51,-182.34 41.31,-180.67"/>
</g>
<!-- Node9 -->
<g id="node3" class="node">
<title>Node9</title>
<g id="a_node3"><a xlink:href="classHospitalExisteException.html" target="_top" xlink:title="Classe HospitalExisteException que é lançada quando um hospital já existe no sistema.">
<polygon fill="white" stroke="black" points="111,-266.5 111,-285.5 246,-285.5 246,-266.5 111,-266.5"/>
<text text-anchor="middle" x="178.5" y="-273.5" font-family="Helvetica,sans-Serif" font-size="10.00">HospitalExisteException</text>
</a>
</g>
</g>
<!-- Node7&#45;&gt;Node9 -->
<g id="edge2" class="edge">
<title>Node7&#45;&gt;Node9</title>
<path fill="none" stroke="midnightblue" d="M41.76,-180.71C52.33,-202.42 72.71,-237.72 101,-257 106.65,-260.85 113.02,-263.93 119.6,-266.38"/>
<polygon fill="midnightblue" stroke="midnightblue" points="44.88,-179.12 37.49,-171.53 38.54,-182.07 44.88,-179.12"/>
</g>
<!-- Node10 -->
<g id="node4" class="node">
<title>Node10</title>
<g id="a_node4"><a xlink:href="classHospitalNaoExisteException.html" target="_top" xlink:title="Classe HospitalNaoExisteException que é lançada quando um hospital não esta cadastrado no sistema.">
<polygon fill="white" stroke="black" points="101,-228.5 101,-247.5 256,-247.5 256,-228.5 101,-228.5"/>
<text text-anchor="middle" x="178.5" y="-235.5" font-family="Helvetica,sans-Serif" font-size="10.00">HospitalNaoExisteException</text>
</a>
</g>
</g>
<!-- Node7&#45;&gt;Node10 -->
<g id="edge3" class="edge">
<title>Node7&#45;&gt;Node10</title>
<path fill="none" stroke="midnightblue" d="M49.2,-178.95C61.97,-191.76 81.09,-208.83 101,-219 108.56,-222.86 116.94,-225.97 125.3,-228.45"/>
<polygon fill="midnightblue" stroke="midnightblue" points="51.58,-176.38 42.11,-171.62 46.55,-181.24 51.58,-176.38"/>
</g>
<!-- Node11 -->
<g id="node5" class="node">
<title>Node11</title>
<g id="a_node5"><a xlink:href="classMenuException.html" target="_top" xlink:title="Classe MenuException que é lançada quando o menu não é apagado.">
<polygon fill="white" stroke="black" points="132.5,-190.5 132.5,-209.5 224.5,-209.5 224.5,-190.5 132.5,-190.5"/>
<text text-anchor="middle" x="178.5" y="-197.5" font-family="Helvetica,sans-Serif" font-size="10.00">MenuException</text>
</a>
</g>
</g>
<!-- Node7&#45;&gt;Node11 -->
<g id="edge4" class="edge">
<title>Node7&#45;&gt;Node11</title>
<path fill="none" stroke="midnightblue" d="M74.9,-173.87C83.51,-176.28 92.54,-178.76 101,-181 113.04,-184.19 126.18,-187.51 138.13,-190.47"/>
<polygon fill="midnightblue" stroke="midnightblue" points="75.61,-170.44 65.04,-171.1 73.71,-177.17 75.61,-170.44"/>
</g>
<!-- Node12 -->
<g id="node6" class="node">
<title>Node12</title>
<g id="a_node6"><a xlink:href="classSenhaErradaException.html" target="_top" xlink:title="Classe SenhaErradaException que é lançada quando a senha inserida não é igual a que foi cadastrada.">
<polygon fill="white" stroke="black" points="115.5,-152.5 115.5,-171.5 241.5,-171.5 241.5,-152.5 115.5,-152.5"/>
<text text-anchor="middle" x="178.5" y="-159.5" font-family="Helvetica,sans-Serif" font-size="10.00">SenhaErradaException</text>
</a>
</g>
</g>
<!-- Node7&#45;&gt;Node12 -->
<g id="edge5" class="edge">
<title>Node7&#45;&gt;Node12</title>
<path fill="none" stroke="midnightblue" d="M75.21,-162C87.71,-162 101.7,-162 115.22,-162"/>
<polygon fill="midnightblue" stroke="midnightblue" points="75.1,-158.5 65.1,-162 75.1,-165.5 75.1,-158.5"/>
</g>
<!-- Node13 -->
<g id="node7" class="node">
<title>Node13</title>
<g id="a_node7"><a xlink:href="classTetoException.html" target="_top" xlink:title=" ">
<polygon fill="white" stroke="black" points="136,-114.5 136,-133.5 221,-133.5 221,-114.5 136,-114.5"/>
<text text-anchor="middle" x="178.5" y="-121.5" font-family="Helvetica,sans-Serif" font-size="10.00">TetoException</text>
</a>
</g>
</g>
<!-- Node7&#45;&gt;Node13 -->
<g id="edge6" class="edge">
<title>Node7&#45;&gt;Node13</title>
<path fill="none" stroke="midnightblue" d="M74.9,-150.13C83.51,-147.72 92.54,-145.24 101,-143 113.04,-139.81 126.18,-136.49 138.13,-133.53"/>
<polygon fill="midnightblue" stroke="midnightblue" points="73.71,-146.83 65.04,-152.9 75.61,-153.56 73.71,-146.83"/>
</g>
<!-- Node14 -->
<g id="node8" class="node">
<title>Node14</title>
<g id="a_node8"><a xlink:href="classTipoInvalidoException.html" target="_top" xlink:title="Classe TipoInvalidoException que é lançada quando um tipo não for reconhecido pelo sistema.">
<polygon fill="white" stroke="black" points="116,-76.5 116,-95.5 241,-95.5 241,-76.5 116,-76.5"/>
<text text-anchor="middle" x="178.5" y="-83.5" font-family="Helvetica,sans-Serif" font-size="10.00">TipoInvalidoException</text>
</a>
</g>
</g>
<!-- Node7&#45;&gt;Node14 -->
<g id="edge7" class="edge">
<title>Node7&#45;&gt;Node14</title>
<path fill="none" stroke="midnightblue" d="M49.2,-145.05C61.97,-132.24 81.09,-115.17 101,-105 108.56,-101.14 116.94,-98.03 125.3,-95.55"/>
<polygon fill="midnightblue" stroke="midnightblue" points="46.55,-142.76 42.11,-152.38 51.58,-147.62 46.55,-142.76"/>
</g>
<!-- Node15 -->
<g id="node9" class="node">
<title>Node15</title>
<g id="a_node9"><a xlink:href="classUsuarioExisteException.html" target="_top" xlink:title="Classe UsuarioExisteException que é lançada quando um usuário ja esta cadastrado no sistema.">
<polygon fill="white" stroke="black" points="112.5,-38.5 112.5,-57.5 244.5,-57.5 244.5,-38.5 112.5,-38.5"/>
<text text-anchor="middle" x="178.5" y="-45.5" font-family="Helvetica,sans-Serif" font-size="10.00">UsuarioExisteException</text>
</a>
</g>
</g>
<!-- Node7&#45;&gt;Node15 -->
<g id="edge8" class="edge">
<title>Node7&#45;&gt;Node15</title>
<path fill="none" stroke="midnightblue" d="M41.76,-143.29C52.33,-121.58 72.71,-86.28 101,-67 106.65,-63.15 113.02,-60.07 119.6,-57.62"/>
<polygon fill="midnightblue" stroke="midnightblue" points="38.54,-141.93 37.49,-152.47 44.88,-144.88 38.54,-141.93"/>
</g>
<!-- Node16 -->
<g id="node10" class="node">
<title>Node16</title>
<g id="a_node10"><a xlink:href="classUsuarioNaoExisteException.html" target="_top" xlink:title="Classe UsuarioNaoExisteException que é lançada quando um usuário não esta cadastrado no sistema.">
<polygon fill="white" stroke="black" points="102.5,-0.5 102.5,-19.5 254.5,-19.5 254.5,-0.5 102.5,-0.5"/>
<text text-anchor="middle" x="178.5" y="-7.5" font-family="Helvetica,sans-Serif" font-size="10.00">UsuarioNaoExisteException</text>
</a>
</g>
</g>
<!-- Node7&#45;&gt;Node16 -->
<g id="edge9" class="edge">
<title>Node7&#45;&gt;Node16</title>
<path fill="none" stroke="midnightblue" d="M37.95,-142.34C45.61,-113.06 64.17,-58.31 101,-29 105.82,-25.16 111.31,-22.09 117.08,-19.63"/>
<polygon fill="midnightblue" stroke="midnightblue" points="34.51,-141.66 35.52,-152.2 41.31,-143.33 34.51,-141.66"/>
</g>
</g>
</svg>
