<?xml version="1.0" encoding="UTF-8" standalone="no"?>
<!DOCTYPE svg PUBLIC "-//W3C//DTD SVG 1.1//EN"
 "http://www.w3.org/Graphics/SVG/1.1/DTD/svg11.dtd">
<!-- Generated by graphviz version 2.43.0 (0)
 -->
<!-- Title: src/main.cpp Pages: 1 -->
<svg width="1613pt" height="308pt"
 viewBox="0.00 0.00 1613.46 308.00" xmlns="http://www.w3.org/2000/svg" xmlns:xlink="http://www.w3.org/1999/xlink">
<g id="graph0" class="graph" transform="scale(1 1) rotate(0) translate(4 304)">
<title>src/main.cpp</title>
<polygon fill="white" stroke="transparent" points="-4,4 -4,-304 1609.46,-304 1609.46,4 -4,4"/>
<!-- Node1 -->
<g id="node1" class="node">
<title>Node1</title>
<g id="a_node1"><a xlink:title=" ">
<polygon fill="#bfbfbf" stroke="black" points="339.46,-280.5 339.46,-299.5 418.46,-299.5 418.46,-280.5 339.46,-280.5"/>
<text text-anchor="middle" x="378.96" y="-287.5" font-family="Helvetica,sans-Serif" font-size="10.00">src/main.cpp</text>
</a>
</g>
</g>
<!-- Node2 -->
<g id="node2" class="node">
<title>Node2</title>
<g id="a_node2"><a xlink:href="sistema_8hpp.html" target="_top" xlink:title="Arquivo da classe Sistema.">
<polygon fill="white" stroke="black" points="340.46,-224.5 340.46,-243.5 417.46,-243.5 417.46,-224.5 340.46,-224.5"/>
<text text-anchor="middle" x="378.96" y="-231.5" font-family="Helvetica,sans-Serif" font-size="10.00">sistema.hpp</text>
</a>
</g>
</g>
<!-- Node1&#45;&gt;Node2 -->
<g id="edge1" class="edge">
<title>Node1&#45;&gt;Node2</title>
<path fill="none" stroke="midnightblue" d="M378.96,-280.08C378.96,-273.01 378.96,-262.86 378.96,-253.99"/>
<polygon fill="midnightblue" stroke="midnightblue" points="382.46,-253.75 378.96,-243.75 375.46,-253.75 382.46,-253.75"/>
</g>
<!-- Node3 -->
<g id="node3" class="node">
<title>Node3</title>
<g id="a_node3"><a xlink:title=" ">
<polygon fill="white" stroke="#bfbfbf" points="622.96,-0.5 622.96,-19.5 682.96,-19.5 682.96,-0.5 622.96,-0.5"/>
<text text-anchor="middle" x="652.96" y="-7.5" font-family="Helvetica,sans-Serif" font-size="10.00">iostream</text>
</a>
</g>
</g>
<!-- Node2&#45;&gt;Node3 -->
<g id="edge2" class="edge">
<title>Node2&#45;&gt;Node3</title>
<path fill="none" stroke="midnightblue" d="M340.32,-228.46C228.71,-213.96 -79.98,-163.29 19.96,-56 60.31,-12.68 479.09,-10.38 612.42,-10.76"/>
<polygon fill="midnightblue" stroke="midnightblue" points="612.6,-14.26 622.61,-10.79 612.63,-7.26 612.6,-14.26"/>
</g>
<!-- Node4 -->
<g id="node4" class="node">
<title>Node4</title>
<g id="a_node4"><a xlink:title=" ">
<polygon fill="white" stroke="#bfbfbf" points="44.46,-56.5 44.46,-75.5 91.46,-75.5 91.46,-56.5 44.46,-56.5"/>
<text text-anchor="middle" x="67.96" y="-63.5" font-family="Helvetica,sans-Serif" font-size="10.00">vector</text>
</a>
</g>
</g>
<!-- Node2&#45;&gt;Node4 -->
<g id="edge3" class="edge">
<title>Node2&#45;&gt;Node4</title>
<path fill="none" stroke="midnightblue" d="M340.17,-229.95C300.32,-225.45 237.56,-214.47 189.96,-188 141.92,-161.28 99.82,-110.33 80.01,-83.88"/>
<polygon fill="midnightblue" stroke="midnightblue" points="82.69,-81.62 73.96,-75.63 77.05,-85.76 82.69,-81.62"/>
</g>
<!-- Node5 -->
<g id="node5" class="node">
<title>Node5</title>
<g id="a_node5"><a xlink:href="cidadao_8hpp.html" target="_top" xlink:title="Arquivo da classe Cidadao.">
<polygon fill="white" stroke="black" points="198.96,-168.5 198.96,-187.5 274.96,-187.5 274.96,-168.5 198.96,-168.5"/>
<text text-anchor="middle" x="236.96" y="-175.5" font-family="Helvetica,sans-Serif" font-size="10.00">cidadao.hpp</text>
</a>
</g>
</g>
<!-- Node2&#45;&gt;Node5 -->
<g id="edge4" class="edge">
<title>Node2&#45;&gt;Node5</title>
<path fill="none" stroke="midnightblue" d="M356.46,-224.44C332.88,-215.48 295.64,-201.31 268.99,-191.18"/>
<polygon fill="midnightblue" stroke="midnightblue" points="269.94,-187.8 259.35,-187.52 267.46,-194.34 269.94,-187.8"/>
</g>
<!-- Node8 -->
<g id="node8" class="node">
<title>Node8</title>
<g id="a_node8"><a xlink:href="hospital_8hpp.html" target="_top" xlink:title="Arquivo da classe Hospital.">
<polygon fill="white" stroke="black" points="109.46,-56.5 109.46,-75.5 186.46,-75.5 186.46,-56.5 109.46,-56.5"/>
<text text-anchor="middle" x="147.96" y="-63.5" font-family="Helvetica,sans-Serif" font-size="10.00">hospital.hpp</text>
</a>
</g>
</g>
<!-- Node2&#45;&gt;Node8 -->
<g id="edge35" class="edge">
<title>Node2&#45;&gt;Node8</title>
<path fill="none" stroke="midnightblue" d="M366.86,-224.31C329.36,-197.36 214.77,-115.01 168.07,-81.46"/>
<polygon fill="midnightblue" stroke="midnightblue" points="170.1,-78.6 159.93,-75.61 166.01,-84.28 170.1,-78.6"/>
</g>
<!-- Node10 -->
<g id="node10" class="node">
<title>Node10</title>
<g id="a_node10"><a xlink:href="menuException_8hpp.html" target="_top" xlink:title="Arquivo da classe MenuException.">
<polygon fill="white" stroke="black" points="204.46,-56.5 204.46,-75.5 317.46,-75.5 317.46,-56.5 204.46,-56.5"/>
<text text-anchor="middle" x="260.96" y="-63.5" font-family="Helvetica,sans-Serif" font-size="10.00">menuException.hpp</text>
</a>
</g>
</g>
<!-- Node2&#45;&gt;Node10 -->
<g id="edge36" class="edge">
<title>Node2&#45;&gt;Node10</title>
<path fill="none" stroke="midnightblue" d="M375.98,-224.37C368.48,-203.47 347.22,-149.15 316.96,-112 307.38,-100.25 294.28,-89.52 283.16,-81.48"/>
<polygon fill="midnightblue" stroke="midnightblue" points="284.97,-78.48 274.77,-75.65 280.98,-84.23 284.97,-78.48"/>
</g>
<!-- Node11 -->
<g id="node11" class="node">
<title>Node11</title>
<g id="a_node11"><a xlink:href="usuarioExisteException_8hpp.html" target="_top" xlink:title=" ">
<polygon fill="white" stroke="black" points="335.96,-56.5 335.96,-75.5 487.96,-75.5 487.96,-56.5 335.96,-56.5"/>
<text text-anchor="middle" x="411.96" y="-63.5" font-family="Helvetica,sans-Serif" font-size="10.00">usuarioExisteException.hpp</text>
</a>
</g>
</g>
<!-- Node2&#45;&gt;Node11 -->
<g id="edge40" class="edge">
<title>Node2&#45;&gt;Node11</title>
<path fill="none" stroke="midnightblue" d="M379.87,-224.41C382.08,-204.48 388.27,-153.63 397.96,-112 400.05,-103.02 403.01,-93.23 405.67,-85.09"/>
<polygon fill="midnightblue" stroke="midnightblue" points="409.01,-86.12 408.9,-75.52 402.38,-83.88 409.01,-86.12"/>
</g>
<!-- Node13 -->
<g id="node13" class="node">
<title>Node13</title>
<g id="a_node13"><a xlink:href="secretario_8hpp.html" target="_top" xlink:title="Arquivo da classe Secretario.">
<polygon fill="white" stroke="black" points="406.96,-168.5 406.96,-187.5 492.96,-187.5 492.96,-168.5 406.96,-168.5"/>
<text text-anchor="middle" x="449.96" y="-175.5" font-family="Helvetica,sans-Serif" font-size="10.00">secretario.hpp</text>
</a>
</g>
</g>
<!-- Node2&#45;&gt;Node13 -->
<g id="edge21" class="edge">
<title>Node2&#45;&gt;Node13</title>
<path fill="none" stroke="midnightblue" d="M390.36,-224.32C401.07,-216.18 417.3,-203.84 430.12,-194.09"/>
<polygon fill="midnightblue" stroke="midnightblue" points="432.5,-196.67 438.34,-187.83 428.26,-191.1 432.5,-196.67"/>
</g>
<!-- Node15 -->
<g id="node15" class="node">
<title>Node15</title>
<g id="a_node15"><a xlink:href="prefeito_8hpp.html" target="_top" xlink:title="Arquivo da classe Prefeito.">
<polygon fill="white" stroke="black" points="707.96,-168.5 707.96,-187.5 783.96,-187.5 783.96,-168.5 707.96,-168.5"/>
<text text-anchor="middle" x="745.96" y="-175.5" font-family="Helvetica,sans-Serif" font-size="10.00">prefeito.hpp</text>
</a>
</g>
</g>
<!-- Node2&#45;&gt;Node15 -->
<g id="edge26" class="edge">
<title>Node2&#45;&gt;Node15</title>
<path fill="none" stroke="midnightblue" d="M417.54,-227.32C485.03,-217.39 624.35,-196.89 697.96,-186.06"/>
<polygon fill="midnightblue" stroke="midnightblue" points="698.51,-189.52 707.89,-184.6 697.49,-182.59 698.51,-189.52"/>
</g>
<!-- Node18 -->
<g id="node18" class="node">
<title>Node18</title>
<g id="a_node18"><a xlink:href="usuarioNaoExisteException_8hpp.html" target="_top" xlink:title="Arquivo da classe UsuarioNaoExisteException.">
<polygon fill="white" stroke="black" points="1108.46,-56.5 1108.46,-75.5 1279.46,-75.5 1279.46,-56.5 1108.46,-56.5"/>
<text text-anchor="middle" x="1193.96" y="-63.5" font-family="Helvetica,sans-Serif" font-size="10.00">usuarioNaoExisteException.hpp</text>
</a>
</g>
</g>
<!-- Node2&#45;&gt;Node18 -->
<g id="edge37" class="edge">
<title>Node2&#45;&gt;Node18</title>
<path fill="none" stroke="midnightblue" d="M417.56,-231.19C491.21,-227.21 656.58,-215.74 792.96,-188 932.58,-159.6 1093.39,-103.79 1161.16,-79.17"/>
<polygon fill="midnightblue" stroke="midnightblue" points="1162.65,-82.35 1170.84,-75.63 1160.25,-75.77 1162.65,-82.35"/>
</g>
<!-- Node19 -->
<g id="node19" class="node">
<title>Node19</title>
<g id="a_node19"><a xlink:href="senhaErradaException_8hpp.html" target="_top" xlink:title="Arquivo da classe SenhaErradaException.">
<polygon fill="white" stroke="black" points="1297.96,-56.5 1297.96,-75.5 1443.96,-75.5 1443.96,-56.5 1297.96,-56.5"/>
<text text-anchor="middle" x="1370.96" y="-63.5" font-family="Helvetica,sans-Serif" font-size="10.00">senhaErradaException.hpp</text>
</a>
</g>
</g>
<!-- Node2&#45;&gt;Node19 -->
<g id="edge41" class="edge">
<title>Node2&#45;&gt;Node19</title>
<path fill="none" stroke="midnightblue" d="M417.62,-230.99C497.86,-226.43 688.18,-213.67 845.96,-188 1028.9,-158.23 1243.18,-102.05 1330.68,-78.18"/>
<polygon fill="midnightblue" stroke="midnightblue" points="1331.74,-81.52 1340.46,-75.5 1329.89,-74.77 1331.74,-81.52"/>
</g>
<!-- Node20 -->
<g id="node20" class="node">
<title>Node20</title>
<g id="a_node20"><a xlink:href="tipoInvalidoException_8hpp.html" target="_top" xlink:title="Arquivo da classe TipoInvalidoException.">
<polygon fill="white" stroke="black" points="1462.46,-56.5 1462.46,-75.5 1605.46,-75.5 1605.46,-56.5 1462.46,-56.5"/>
<text text-anchor="middle" x="1533.96" y="-63.5" font-family="Helvetica,sans-Serif" font-size="10.00">tipoInvalidoException.hpp</text>
</a>
</g>
</g>
<!-- Node2&#45;&gt;Node20 -->
<g id="edge44" class="edge">
<title>Node2&#45;&gt;Node20</title>
<path fill="none" stroke="midnightblue" d="M417.5,-231.16C505.36,-226.66 727.11,-213.55 910.96,-188 1128.26,-157.8 1384.43,-101.37 1487.54,-77.79"/>
<polygon fill="midnightblue" stroke="midnightblue" points="1488.36,-81.2 1497.32,-75.55 1486.79,-74.37 1488.36,-81.2"/>
</g>
<!-- Node5&#45;&gt;Node3 -->
<g id="edge5" class="edge">
<title>Node5&#45;&gt;Node3</title>
<path fill="none" stroke="midnightblue" d="M198.77,-169.61C126.29,-154.03 -19.32,-114.38 34.96,-56 74.23,-13.76 481.46,-10.71 612.54,-10.83"/>
<polygon fill="midnightblue" stroke="midnightblue" points="612.93,-14.33 622.93,-10.85 612.94,-7.33 612.93,-14.33"/>
</g>
<!-- Node6 -->
<g id="node6" class="node">
<title>Node6</title>
<g id="a_node6"><a xlink:href="usuario_8hpp.html" target="_top" xlink:title="Arquivo da classe Usuario.">
<polygon fill="white" stroke="black" points="406.96,-112.5 406.96,-131.5 480.96,-131.5 480.96,-112.5 406.96,-112.5"/>
<text text-anchor="middle" x="443.96" y="-119.5" font-family="Helvetica,sans-Serif" font-size="10.00">usuario.hpp</text>
</a>
</g>
</g>
<!-- Node5&#45;&gt;Node6 -->
<g id="edge6" class="edge">
<title>Node5&#45;&gt;Node6</title>
<path fill="none" stroke="midnightblue" d="M269.76,-168.44C305.34,-159.16 362.27,-144.31 401.3,-134.13"/>
<polygon fill="midnightblue" stroke="midnightblue" points="402.52,-137.43 411.31,-131.52 400.75,-130.65 402.52,-137.43"/>
</g>
<!-- Node6&#45;&gt;Node4 -->
<g id="edge8" class="edge">
<title>Node6&#45;&gt;Node4</title>
<path fill="none" stroke="midnightblue" d="M406.76,-117.91C345.14,-112.4 217.92,-99.4 101.76,-76.13"/>
<polygon fill="midnightblue" stroke="midnightblue" points="102.13,-72.63 91.63,-74.07 100.73,-79.49 102.13,-72.63"/>
</g>
<!-- Node7 -->
<g id="node7" class="node">
<title>Node7</title>
<g id="a_node7"><a xlink:title=" ">
<polygon fill="white" stroke="#bfbfbf" points="801.96,-0.5 801.96,-19.5 845.96,-19.5 845.96,-0.5 801.96,-0.5"/>
<text text-anchor="middle" x="823.96" y="-7.5" font-family="Helvetica,sans-Serif" font-size="10.00">string</text>
</a>
</g>
</g>
<!-- Node6&#45;&gt;Node7 -->
<g id="edge7" class="edge">
<title>Node6&#45;&gt;Node7</title>
<path fill="none" stroke="midnightblue" d="M481.24,-117.29C529.94,-111.73 617.42,-99.33 688.96,-76 729.93,-62.64 774.4,-39.35 800.69,-24.58"/>
<polygon fill="midnightblue" stroke="midnightblue" points="802.56,-27.55 809.51,-19.56 799.09,-21.46 802.56,-27.55"/>
</g>
<!-- Node6&#45;&gt;Node8 -->
<g id="edge9" class="edge">
<title>Node6&#45;&gt;Node8</title>
<path fill="none" stroke="midnightblue" d="M406.81,-114.41C360.13,-106.1 277.26,-91.27 196.97,-76.36"/>
<polygon fill="midnightblue" stroke="midnightblue" points="197.15,-72.84 186.68,-74.45 195.87,-79.72 197.15,-72.84"/>
</g>
<!-- Node6&#45;&gt;Node10 -->
<g id="edge13" class="edge">
<title>Node6&#45;&gt;Node10</title>
<path fill="none" stroke="midnightblue" d="M414.96,-112.44C383.77,-103.24 334.03,-88.56 299.55,-78.39"/>
<polygon fill="midnightblue" stroke="midnightblue" points="300.4,-74.99 289.82,-75.52 298.42,-81.7 300.4,-74.99"/>
</g>
<!-- Node6&#45;&gt;Node11 -->
<g id="edge15" class="edge">
<title>Node6&#45;&gt;Node11</title>
<path fill="none" stroke="midnightblue" d="M438.67,-112.08C434.25,-104.61 427.79,-93.72 422.34,-84.52"/>
<polygon fill="midnightblue" stroke="midnightblue" points="425.25,-82.57 417.14,-75.75 419.23,-86.14 425.25,-82.57"/>
</g>
<!-- Node12 -->
<g id="node12" class="node">
<title>Node12</title>
<g id="a_node12"><a xlink:href="hospitalNaoExisteException_8hpp.html" target="_top" xlink:title="Arquivo da classe HospitalNaoExisteException.">
<polygon fill="white" stroke="black" points="505.96,-56.5 505.96,-75.5 679.96,-75.5 679.96,-56.5 505.96,-56.5"/>
<text text-anchor="middle" x="592.96" y="-63.5" font-family="Helvetica,sans-Serif" font-size="10.00">hospitalNaoExisteException.hpp</text>
</a>
</g>
</g>
<!-- Node6&#45;&gt;Node12 -->
<g id="edge18" class="edge">
<title>Node6&#45;&gt;Node12</title>
<path fill="none" stroke="midnightblue" d="M467.57,-112.44C492.42,-103.44 531.73,-89.19 559.71,-79.05"/>
<polygon fill="midnightblue" stroke="midnightblue" points="561.25,-82.21 569.46,-75.52 558.86,-75.63 561.25,-82.21"/>
</g>
<!-- Node8&#45;&gt;Node3 -->
<g id="edge10" class="edge">
<title>Node8&#45;&gt;Node3</title>
<path fill="none" stroke="midnightblue" d="M186.64,-57.3C189.45,-56.83 192.24,-56.39 194.96,-56 348.58,-33.79 532.81,-19.37 612.71,-13.71"/>
<polygon fill="midnightblue" stroke="midnightblue" points="613.1,-17.19 622.83,-13 612.61,-10.21 613.1,-17.19"/>
</g>
<!-- Node8&#45;&gt;Node7 -->
<g id="edge11" class="edge">
<title>Node8&#45;&gt;Node7</title>
<path fill="none" stroke="midnightblue" d="M186.63,-57.22C189.44,-56.77 192.24,-56.36 194.96,-56 224.79,-52.09 667.25,-21.71 791.64,-13.21"/>
<polygon fill="midnightblue" stroke="midnightblue" points="791.95,-16.69 801.69,-12.52 791.48,-9.71 791.95,-16.69"/>
</g>
<!-- Node9 -->
<g id="node9" class="node">
<title>Node9</title>
<g id="a_node9"><a xlink:title=" ">
<polygon fill="white" stroke="#bfbfbf" points="119.96,-0.5 119.96,-19.5 175.96,-19.5 175.96,-0.5 119.96,-0.5"/>
<text text-anchor="middle" x="147.96" y="-7.5" font-family="Helvetica,sans-Serif" font-size="10.00">iomanip</text>
</a>
</g>
</g>
<!-- Node8&#45;&gt;Node9 -->
<g id="edge12" class="edge">
<title>Node8&#45;&gt;Node9</title>
<path fill="none" stroke="midnightblue" d="M147.96,-56.08C147.96,-49.01 147.96,-38.86 147.96,-29.99"/>
<polygon fill="midnightblue" stroke="midnightblue" points="151.46,-29.75 147.96,-19.75 144.46,-29.75 151.46,-29.75"/>
</g>
<!-- Node10&#45;&gt;Node3 -->
<g id="edge14" class="edge">
<title>Node10&#45;&gt;Node3</title>
<path fill="none" stroke="midnightblue" d="M317.54,-57.21C397.6,-46.18 542.02,-26.28 612.31,-16.6"/>
<polygon fill="midnightblue" stroke="midnightblue" points="613.1,-20.02 622.53,-15.19 612.15,-13.09 613.1,-20.02"/>
</g>
<!-- Node11&#45;&gt;Node3 -->
<g id="edge16" class="edge">
<title>Node11&#45;&gt;Node3</title>
<path fill="none" stroke="midnightblue" d="M450.14,-56.44C494.6,-46.48 567.67,-30.11 612.91,-19.97"/>
<polygon fill="midnightblue" stroke="midnightblue" points="613.95,-23.33 622.94,-17.73 612.42,-16.5 613.95,-23.33"/>
</g>
<!-- Node11&#45;&gt;Node7 -->
<g id="edge17" class="edge">
<title>Node11&#45;&gt;Node7</title>
<path fill="none" stroke="midnightblue" d="M477.24,-56.44C566.84,-44.7 724.46,-24.04 791.89,-15.2"/>
<polygon fill="midnightblue" stroke="midnightblue" points="792.46,-18.66 801.92,-13.89 791.55,-11.72 792.46,-18.66"/>
</g>
<!-- Node12&#45;&gt;Node3 -->
<g id="edge19" class="edge">
<title>Node12&#45;&gt;Node3</title>
<path fill="none" stroke="midnightblue" d="M602.6,-56.32C611.47,-48.34 624.83,-36.31 635.57,-26.65"/>
<polygon fill="midnightblue" stroke="midnightblue" points="638.05,-29.13 643.14,-19.83 633.37,-23.92 638.05,-29.13"/>
</g>
<!-- Node12&#45;&gt;Node7 -->
<g id="edge20" class="edge">
<title>Node12&#45;&gt;Node7</title>
<path fill="none" stroke="midnightblue" d="M629.56,-56.44C674.34,-45.98 749.42,-28.42 791.98,-18.47"/>
<polygon fill="midnightblue" stroke="midnightblue" points="792.87,-21.86 801.81,-16.18 791.28,-15.05 792.87,-21.86"/>
</g>
<!-- Node13&#45;&gt;Node6 -->
<g id="edge22" class="edge">
<title>Node13&#45;&gt;Node6</title>
<path fill="none" stroke="midnightblue" d="M448.97,-168.08C448.17,-160.93 447.03,-150.64 446.03,-141.69"/>
<polygon fill="midnightblue" stroke="midnightblue" points="449.51,-141.3 444.93,-131.75 442.56,-142.08 449.51,-141.3"/>
</g>
<!-- Node14 -->
<g id="node14" class="node">
<title>Node14</title>
<g id="a_node14"><a xlink:href="gastoException_8hpp.html" target="_top" xlink:title="Arquivo da classe GastoException.">
<polygon fill="white" stroke="black" points="689.46,-112.5 689.46,-131.5 802.46,-131.5 802.46,-112.5 689.46,-112.5"/>
<text text-anchor="middle" x="745.96" y="-119.5" font-family="Helvetica,sans-Serif" font-size="10.00">gastoException.hpp</text>
</a>
</g>
</g>
<!-- Node13&#45;&gt;Node14 -->
<g id="edge23" class="edge">
<title>Node13&#45;&gt;Node14</title>
<path fill="none" stroke="midnightblue" d="M493,-169.15C544.73,-159.71 631.71,-143.84 688.97,-133.4"/>
<polygon fill="midnightblue" stroke="midnightblue" points="689.74,-136.81 698.95,-131.58 688.48,-129.93 689.74,-136.81"/>
</g>
<!-- Node14&#45;&gt;Node3 -->
<g id="edge24" class="edge">
<title>Node14&#45;&gt;Node3</title>
<path fill="none" stroke="midnightblue" d="M738.66,-112.37C723.18,-94.05 686.82,-51.05 666.79,-27.36"/>
<polygon fill="midnightblue" stroke="midnightblue" points="669.35,-24.97 660.22,-19.59 664,-29.49 669.35,-24.97"/>
</g>
<!-- Node14&#45;&gt;Node7 -->
<g id="edge25" class="edge">
<title>Node14&#45;&gt;Node7</title>
<path fill="none" stroke="midnightblue" d="M752.08,-112.37C764.95,-94.22 795.03,-51.8 811.91,-27.99"/>
<polygon fill="midnightblue" stroke="midnightblue" points="814.94,-29.77 817.87,-19.59 809.23,-25.72 814.94,-29.77"/>
</g>
<!-- Node15&#45;&gt;Node6 -->
<g id="edge27" class="edge">
<title>Node15&#45;&gt;Node6</title>
<path fill="none" stroke="midnightblue" d="M707.71,-170.16C652.64,-160.31 551.1,-142.16 491.36,-131.48"/>
<polygon fill="midnightblue" stroke="midnightblue" points="491.88,-128.01 481.42,-129.7 490.65,-134.9 491.88,-128.01"/>
</g>
<!-- Node15&#45;&gt;Node14 -->
<g id="edge28" class="edge">
<title>Node15&#45;&gt;Node14</title>
<path fill="none" stroke="midnightblue" d="M745.96,-168.08C745.96,-161.01 745.96,-150.86 745.96,-141.99"/>
<polygon fill="midnightblue" stroke="midnightblue" points="749.46,-141.75 745.96,-131.75 742.46,-141.75 749.46,-141.75"/>
</g>
<!-- Node16 -->
<g id="node16" class="node">
<title>Node16</title>
<g id="a_node16"><a xlink:href="tetoException_8hpp.html" target="_top" xlink:title="Arquivo da classe TetoException.">
<polygon fill="white" stroke="black" points="812.46,-56.5 812.46,-75.5 917.46,-75.5 917.46,-56.5 812.46,-56.5"/>
<text text-anchor="middle" x="864.96" y="-63.5" font-family="Helvetica,sans-Serif" font-size="10.00">tetoException.hpp</text>
</a>
</g>
</g>
<!-- Node15&#45;&gt;Node16 -->
<g id="edge29" class="edge">
<title>Node15&#45;&gt;Node16</title>
<path fill="none" stroke="midnightblue" d="M761.01,-168.46C775,-160.14 796.02,-146.63 811.96,-132 827.82,-117.44 843.04,-98.01 853.07,-84.2"/>
<polygon fill="midnightblue" stroke="midnightblue" points="856.19,-85.84 859.13,-75.66 850.49,-81.79 856.19,-85.84"/>
</g>
<!-- Node17 -->
<g id="node17" class="node">
<title>Node17</title>
<g id="a_node17"><a xlink:href="hospitalExisteException_8hpp.html" target="_top" xlink:title="Arqivo da classe HospitalExisteException.">
<polygon fill="white" stroke="black" points="935.46,-56.5 935.46,-75.5 1090.46,-75.5 1090.46,-56.5 935.46,-56.5"/>
<text text-anchor="middle" x="1012.96" y="-63.5" font-family="Helvetica,sans-Serif" font-size="10.00">hospitalExisteException.hpp</text>
</a>
</g>
</g>
<!-- Node15&#45;&gt;Node17 -->
<g id="edge32" class="edge">
<title>Node15&#45;&gt;Node17</title>
<path fill="none" stroke="midnightblue" d="M766.91,-168.37C813.9,-149.01 927.85,-102.06 982.6,-79.51"/>
<polygon fill="midnightblue" stroke="midnightblue" points="984.19,-82.64 992.1,-75.59 981.52,-76.16 984.19,-82.64"/>
</g>
<!-- Node16&#45;&gt;Node3 -->
<g id="edge30" class="edge">
<title>Node16&#45;&gt;Node3</title>
<path fill="none" stroke="midnightblue" d="M831.37,-56.44C793.77,-46.87 732.91,-31.36 692.91,-21.18"/>
<polygon fill="midnightblue" stroke="midnightblue" points="693.52,-17.72 682.96,-18.64 691.79,-24.5 693.52,-17.72"/>
</g>
<!-- Node16&#45;&gt;Node7 -->
<g id="edge31" class="edge">
<title>Node16&#45;&gt;Node7</title>
<path fill="none" stroke="midnightblue" d="M858.19,-56.08C852.4,-48.46 843.9,-37.26 836.82,-27.94"/>
<polygon fill="midnightblue" stroke="midnightblue" points="839.44,-25.6 830.6,-19.75 833.86,-29.83 839.44,-25.6"/>
</g>
<!-- Node17&#45;&gt;Node3 -->
<g id="edge33" class="edge">
<title>Node17&#45;&gt;Node3</title>
<path fill="none" stroke="midnightblue" d="M955.91,-56.44C882.67,-45.46 757.39,-26.67 693.31,-17.05"/>
<polygon fill="midnightblue" stroke="midnightblue" points="693.6,-13.56 683.19,-15.54 692.56,-20.48 693.6,-13.56"/>
</g>
<!-- Node17&#45;&gt;Node7 -->
<g id="edge34" class="edge">
<title>Node17&#45;&gt;Node7</title>
<path fill="none" stroke="midnightblue" d="M983.01,-56.44C948.34,-46.54 891.45,-30.28 855.94,-20.14"/>
<polygon fill="midnightblue" stroke="midnightblue" points="856.66,-16.7 846.09,-17.32 854.74,-23.44 856.66,-16.7"/>
</g>
<!-- Node18&#45;&gt;Node3 -->
<g id="edge38" class="edge">
<title>Node18&#45;&gt;Node3</title>
<path fill="none" stroke="midnightblue" d="M1108.53,-56.47C990.08,-44.65 780.65,-23.75 693.14,-15.01"/>
<polygon fill="midnightblue" stroke="midnightblue" points="693.39,-11.52 683.09,-14.01 692.69,-18.48 693.39,-11.52"/>
</g>
<!-- Node18&#45;&gt;Node7 -->
<g id="edge39" class="edge">
<title>Node18&#45;&gt;Node7</title>
<path fill="none" stroke="midnightblue" d="M1135.33,-56.44C1056.35,-44.92 918.52,-24.8 856.19,-15.7"/>
<polygon fill="midnightblue" stroke="midnightblue" points="856.56,-12.22 846.16,-14.24 855.55,-19.15 856.56,-12.22"/>
</g>
<!-- Node19&#45;&gt;Node3 -->
<g id="edge42" class="edge">
<title>Node19&#45;&gt;Node3</title>
<path fill="none" stroke="midnightblue" d="M1297.65,-56.81C1294.72,-56.53 1291.81,-56.26 1288.96,-56 1172.44,-45.49 814.76,-21.66 693.58,-13.67"/>
<polygon fill="midnightblue" stroke="midnightblue" points="693.48,-10.15 683.27,-12.99 693.02,-17.14 693.48,-10.15"/>
</g>
<!-- Node19&#45;&gt;Node7 -->
<g id="edge43" class="edge">
<title>Node19&#45;&gt;Node7</title>
<path fill="none" stroke="midnightblue" d="M1297.64,-56.91C1294.71,-56.6 1291.81,-56.29 1288.96,-56 1126.71,-39.25 932.41,-21.04 856.55,-14.01"/>
<polygon fill="midnightblue" stroke="midnightblue" points="856.51,-10.49 846.23,-13.05 855.87,-17.46 856.51,-10.49"/>
</g>
<!-- Node20&#45;&gt;Node3 -->
<g id="edge45" class="edge">
<title>Node20&#45;&gt;Node3</title>
<path fill="none" stroke="midnightblue" d="M1462.42,-56.83C1459.23,-56.54 1456.06,-56.26 1452.96,-56 1160.19,-31.77 1086.21,-37.42 792.96,-20 759.33,-18 721.16,-15.54 693.19,-13.69"/>
<polygon fill="midnightblue" stroke="midnightblue" points="693.2,-10.18 682.99,-13.02 692.74,-17.17 693.2,-10.18"/>
</g>
<!-- Node20&#45;&gt;Node7 -->
<g id="edge46" class="edge">
<title>Node20&#45;&gt;Node7</title>
<path fill="none" stroke="midnightblue" d="M1462.42,-56.9C1459.22,-56.58 1456.06,-56.28 1452.96,-56 1224.59,-35.15 948.84,-18.29 856.13,-12.85"/>
<polygon fill="midnightblue" stroke="midnightblue" points="856.17,-9.35 845.99,-12.26 855.77,-16.34 856.17,-9.35"/>
</g>
</g>
</svg>
