<?xml version="1.0" encoding="UTF-8" standalone="no"?>
<!DOCTYPE svg PUBLIC "-//W3C//DTD SVG 1.1//EN"
 "http://www.w3.org/Graphics/SVG/1.1/DTD/svg11.dtd">
<!-- Generated by graphviz version 2.43.0 (0)
 -->
<!-- Title: exceptions/menuException.cpp Pages: 1 -->
<svg width="177pt" height="140pt"
 viewBox="0.00 0.00 177.00 140.00" xmlns="http://www.w3.org/2000/svg" xmlns:xlink="http://www.w3.org/1999/xlink">
<g id="graph0" class="graph" transform="scale(1 1) rotate(0) translate(4 136)">
<title>exceptions/menuException.cpp</title>
<polygon fill="white" stroke="transparent" points="-4,4 -4,-136 173,-136 173,4 -4,4"/>
<!-- Node1 -->
<g id="node1" class="node">
<title>Node1</title>
<g id="a_node1"><a xlink:title=" ">
<polygon fill="#bfbfbf" stroke="black" points="0,-112.5 0,-131.5 169,-131.5 169,-112.5 0,-112.5"/>
<text text-anchor="middle" x="84.5" y="-119.5" font-family="Helvetica,sans-Serif" font-size="10.00">exceptions/menuException.cpp</text>
</a>
</g>
</g>
<!-- Node2 -->
<g id="node2" class="node">
<title>Node2</title>
<g id="a_node2"><a xlink:href="menuException_8hpp.html" target="_top" xlink:title="Arquivo da classe MenuException.">
<polygon fill="white" stroke="black" points="28,-56.5 28,-75.5 141,-75.5 141,-56.5 28,-56.5"/>
<text text-anchor="middle" x="84.5" y="-63.5" font-family="Helvetica,sans-Serif" font-size="10.00">menuException.hpp</text>
</a>
</g>
</g>
<!-- Node1&#45;&gt;Node2 -->
<g id="edge1" class="edge">
<title>Node1&#45;&gt;Node2</title>
<path fill="none" stroke="midnightblue" d="M84.5,-112.08C84.5,-105.01 84.5,-94.86 84.5,-85.99"/>
<polygon fill="midnightblue" stroke="midnightblue" points="88,-85.75 84.5,-75.75 81,-85.75 88,-85.75"/>
</g>
<!-- Node3 -->
<g id="node3" class="node">
<title>Node3</title>
<g id="a_node3"><a xlink:title=" ">
<polygon fill="white" stroke="#bfbfbf" points="54.5,-0.5 54.5,-19.5 114.5,-19.5 114.5,-0.5 54.5,-0.5"/>
<text text-anchor="middle" x="84.5" y="-7.5" font-family="Helvetica,sans-Serif" font-size="10.00">iostream</text>
</a>
</g>
</g>
<!-- Node2&#45;&gt;Node3 -->
<g id="edge2" class="edge">
<title>Node2&#45;&gt;Node3</title>
<path fill="none" stroke="midnightblue" d="M84.5,-56.08C84.5,-49.01 84.5,-38.86 84.5,-29.99"/>
<polygon fill="midnightblue" stroke="midnightblue" points="88,-29.75 84.5,-19.75 81,-29.75 88,-29.75"/>
</g>
</g>
</svg>
