<?xml version="1.0" encoding="UTF-8" standalone="no"?>
<!DOCTYPE svg PUBLIC "-//W3C//DTD SVG 1.1//EN"
 "http://www.w3.org/Graphics/SVG/1.1/DTD/svg11.dtd">
<!-- Generated by graphviz version 2.43.0 (0)
 -->
<!-- Title: src/prefeito.cpp Pages: 1 -->
<svg width="1086pt" height="252pt"
 viewBox="0.00 0.00 1085.65 252.00" xmlns="http://www.w3.org/2000/svg" xmlns:xlink="http://www.w3.org/1999/xlink">
<g id="graph0" class="graph" transform="scale(1 1) rotate(0) translate(4 248)">
<title>src/prefeito.cpp</title>
<polygon fill="white" stroke="transparent" points="-4,4 -4,-248 1081.65,-248 1081.65,4 -4,4"/>
<!-- Node1 -->
<g id="node1" class="node">
<title>Node1</title>
<g id="a_node1"><a xlink:title=" ">
<polygon fill="#bfbfbf" stroke="black" points="589.15,-224.5 589.15,-243.5 681.15,-243.5 681.15,-224.5 589.15,-224.5"/>
<text text-anchor="middle" x="635.15" y="-231.5" font-family="Helvetica,sans-Serif" font-size="10.00">src/prefeito.cpp</text>
</a>
</g>
</g>
<!-- Node2 -->
<g id="node2" class="node">
<title>Node2</title>
<g id="a_node2"><a xlink:href="prefeito_8hpp.html" target="_top" xlink:title="Arquivo da classe Prefeito.">
<polygon fill="white" stroke="black" points="597.15,-168.5 597.15,-187.5 673.15,-187.5 673.15,-168.5 597.15,-168.5"/>
<text text-anchor="middle" x="635.15" y="-175.5" font-family="Helvetica,sans-Serif" font-size="10.00">prefeito.hpp</text>
</a>
</g>
</g>
<!-- Node1&#45;&gt;Node2 -->
<g id="edge1" class="edge">
<title>Node1&#45;&gt;Node2</title>
<path fill="none" stroke="midnightblue" d="M635.15,-224.08C635.15,-217.01 635.15,-206.86 635.15,-197.99"/>
<polygon fill="midnightblue" stroke="midnightblue" points="638.65,-197.75 635.15,-187.75 631.65,-197.75 638.65,-197.75"/>
</g>
<!-- Node3 -->
<g id="node3" class="node">
<title>Node3</title>
<g id="a_node3"><a xlink:href="usuario_8hpp.html" target="_top" xlink:title="Arquivo da classe Usuario.">
<polygon fill="white" stroke="black" points="330.15,-112.5 330.15,-131.5 404.15,-131.5 404.15,-112.5 330.15,-112.5"/>
<text text-anchor="middle" x="367.15" y="-119.5" font-family="Helvetica,sans-Serif" font-size="10.00">usuario.hpp</text>
</a>
</g>
</g>
<!-- Node2&#45;&gt;Node3 -->
<g id="edge2" class="edge">
<title>Node2&#45;&gt;Node3</title>
<path fill="none" stroke="midnightblue" d="M597.04,-169.32C548.94,-159.63 466.24,-142.97 414.24,-132.49"/>
<polygon fill="midnightblue" stroke="midnightblue" points="414.76,-129.02 404.27,-130.48 413.38,-135.89 414.76,-129.02"/>
</g>
<!-- Node12 -->
<g id="node12" class="node">
<title>Node12</title>
<g id="a_node12"><a xlink:href="gastoException_8hpp.html" target="_top" xlink:title="Arquivo da classe GastoException.">
<polygon fill="white" stroke="black" points="537.65,-56.5 537.65,-75.5 650.65,-75.5 650.65,-56.5 537.65,-56.5"/>
<text text-anchor="middle" x="594.15" y="-63.5" font-family="Helvetica,sans-Serif" font-size="10.00">gastoException.hpp</text>
</a>
</g>
</g>
<!-- Node2&#45;&gt;Node12 -->
<g id="edge17" class="edge">
<title>Node2&#45;&gt;Node12</title>
<path fill="none" stroke="midnightblue" d="M631.93,-168.37C625.29,-150.54 609.91,-109.3 600.96,-85.27"/>
<polygon fill="midnightblue" stroke="midnightblue" points="604.12,-83.74 597.35,-75.59 597.57,-86.18 604.12,-83.74"/>
</g>
<!-- Node13 -->
<g id="node13" class="node">
<title>Node13</title>
<g id="a_node13"><a xlink:href="tetoException_8hpp.html" target="_top" xlink:title="Arquivo da classe TetoException.">
<polygon fill="white" stroke="black" points="668.65,-56.5 668.65,-75.5 773.65,-75.5 773.65,-56.5 668.65,-56.5"/>
<text text-anchor="middle" x="721.15" y="-63.5" font-family="Helvetica,sans-Serif" font-size="10.00">tetoException.hpp</text>
</a>
</g>
</g>
<!-- Node2&#45;&gt;Node13 -->
<g id="edge20" class="edge">
<title>Node2&#45;&gt;Node13</title>
<path fill="none" stroke="midnightblue" d="M641.9,-168.37C656.15,-150.14 689.54,-107.43 708.11,-83.68"/>
<polygon fill="midnightblue" stroke="midnightblue" points="711.03,-85.63 714.43,-75.59 705.52,-81.31 711.03,-85.63"/>
</g>
<!-- Node14 -->
<g id="node14" class="node">
<title>Node14</title>
<g id="a_node14"><a xlink:href="hospitalExisteException_8hpp.html" target="_top" xlink:title="Arqivo da classe HospitalExisteException.">
<polygon fill="white" stroke="black" points="922.65,-56.5 922.65,-75.5 1077.65,-75.5 1077.65,-56.5 922.65,-56.5"/>
<text text-anchor="middle" x="1000.15" y="-63.5" font-family="Helvetica,sans-Serif" font-size="10.00">hospitalExisteException.hpp</text>
</a>
</g>
</g>
<!-- Node2&#45;&gt;Node14 -->
<g id="edge23" class="edge">
<title>Node2&#45;&gt;Node14</title>
<path fill="none" stroke="midnightblue" d="M663.49,-168.46C728.52,-148.86 888.5,-100.65 962.05,-78.48"/>
<polygon fill="midnightblue" stroke="midnightblue" points="963.27,-81.77 971.83,-75.53 961.25,-75.07 963.27,-81.77"/>
</g>
<!-- Node4 -->
<g id="node4" class="node">
<title>Node4</title>
<g id="a_node4"><a xlink:title=" ">
<polygon fill="white" stroke="#bfbfbf" points="345.15,-0.5 345.15,-19.5 389.15,-19.5 389.15,-0.5 345.15,-0.5"/>
<text text-anchor="middle" x="367.15" y="-7.5" font-family="Helvetica,sans-Serif" font-size="10.00">string</text>
</a>
</g>
</g>
<!-- Node3&#45;&gt;Node4 -->
<g id="edge3" class="edge">
<title>Node3&#45;&gt;Node4</title>
<path fill="none" stroke="midnightblue" d="M330.09,-119.13C242.12,-114.3 26.45,-100.12 5.15,-76 -39.67,-25.26 238.14,-13.98 334.84,-11.6"/>
<polygon fill="midnightblue" stroke="midnightblue" points="335.01,-15.1 344.93,-11.37 334.85,-8.1 335.01,-15.1"/>
</g>
<!-- Node5 -->
<g id="node5" class="node">
<title>Node5</title>
<g id="a_node5"><a xlink:title=" ">
<polygon fill="white" stroke="#bfbfbf" points="472.65,-56.5 472.65,-75.5 519.65,-75.5 519.65,-56.5 472.65,-56.5"/>
<text text-anchor="middle" x="496.15" y="-63.5" font-family="Helvetica,sans-Serif" font-size="10.00">vector</text>
</a>
</g>
</g>
<!-- Node3&#45;&gt;Node5 -->
<g id="edge4" class="edge">
<title>Node3&#45;&gt;Node5</title>
<path fill="none" stroke="midnightblue" d="M387.59,-112.44C408.82,-103.56 442.25,-89.56 466.4,-79.45"/>
<polygon fill="midnightblue" stroke="midnightblue" points="467.93,-82.61 475.81,-75.52 465.23,-76.15 467.93,-82.61"/>
</g>
<!-- Node6 -->
<g id="node6" class="node">
<title>Node6</title>
<g id="a_node6"><a xlink:href="hospital_8hpp.html" target="_top" xlink:title="Arquivo da classe Hospital.">
<polygon fill="white" stroke="black" points="14.65,-56.5 14.65,-75.5 91.65,-75.5 91.65,-56.5 14.65,-56.5"/>
<text text-anchor="middle" x="53.15" y="-63.5" font-family="Helvetica,sans-Serif" font-size="10.00">hospital.hpp</text>
</a>
</g>
</g>
<!-- Node3&#45;&gt;Node6 -->
<g id="edge5" class="edge">
<title>Node3&#45;&gt;Node6</title>
<path fill="none" stroke="midnightblue" d="M330.11,-114.95C280.54,-106.8 189.64,-91.7 101.54,-76.04"/>
<polygon fill="midnightblue" stroke="midnightblue" points="102.11,-72.59 91.65,-74.28 100.88,-79.48 102.11,-72.59"/>
</g>
<!-- Node9 -->
<g id="node9" class="node">
<title>Node9</title>
<g id="a_node9"><a xlink:href="menuException_8hpp.html" target="_top" xlink:title="Arquivo da classe MenuException.">
<polygon fill="white" stroke="black" points="791.65,-56.5 791.65,-75.5 904.65,-75.5 904.65,-56.5 791.65,-56.5"/>
<text text-anchor="middle" x="848.15" y="-63.5" font-family="Helvetica,sans-Serif" font-size="10.00">menuException.hpp</text>
</a>
</g>
</g>
<!-- Node3&#45;&gt;Node9 -->
<g id="edge9" class="edge">
<title>Node3&#45;&gt;Node9</title>
<path fill="none" stroke="midnightblue" d="M404.39,-117.31C475.45,-110.19 635.55,-93.79 781.59,-76.04"/>
<polygon fill="midnightblue" stroke="midnightblue" points="782.14,-79.5 791.64,-74.81 781.29,-72.55 782.14,-79.5"/>
</g>
<!-- Node10 -->
<g id="node10" class="node">
<title>Node10</title>
<g id="a_node10"><a xlink:href="usuarioExisteException_8hpp.html" target="_top" xlink:title=" ">
<polygon fill="white" stroke="black" points="110.15,-56.5 110.15,-75.5 262.15,-75.5 262.15,-56.5 110.15,-56.5"/>
<text text-anchor="middle" x="186.15" y="-63.5" font-family="Helvetica,sans-Serif" font-size="10.00">usuarioExisteException.hpp</text>
</a>
</g>
</g>
<!-- Node3&#45;&gt;Node10 -->
<g id="edge11" class="edge">
<title>Node3&#45;&gt;Node10</title>
<path fill="none" stroke="midnightblue" d="M338.47,-112.44C307.62,-103.24 258.42,-88.56 224.32,-78.39"/>
<polygon fill="midnightblue" stroke="midnightblue" points="225.28,-75.02 214.7,-75.52 223.28,-81.73 225.28,-75.02"/>
</g>
<!-- Node11 -->
<g id="node11" class="node">
<title>Node11</title>
<g id="a_node11"><a xlink:href="hospitalNaoExisteException_8hpp.html" target="_top" xlink:title="Arquivo da classe HospitalNaoExisteException.">
<polygon fill="white" stroke="black" points="280.15,-56.5 280.15,-75.5 454.15,-75.5 454.15,-56.5 280.15,-56.5"/>
<text text-anchor="middle" x="367.15" y="-63.5" font-family="Helvetica,sans-Serif" font-size="10.00">hospitalNaoExisteException.hpp</text>
</a>
</g>
</g>
<!-- Node3&#45;&gt;Node11 -->
<g id="edge14" class="edge">
<title>Node3&#45;&gt;Node11</title>
<path fill="none" stroke="midnightblue" d="M367.15,-112.08C367.15,-105.01 367.15,-94.86 367.15,-85.99"/>
<polygon fill="midnightblue" stroke="midnightblue" points="370.65,-85.75 367.15,-75.75 363.65,-85.75 370.65,-85.75"/>
</g>
<!-- Node6&#45;&gt;Node4 -->
<g id="edge7" class="edge">
<title>Node6&#45;&gt;Node4</title>
<path fill="none" stroke="midnightblue" d="M91.65,-57.72C94.86,-57.13 98.06,-56.55 101.15,-56 185.52,-40.95 285.18,-24.43 335.17,-16.22"/>
<polygon fill="midnightblue" stroke="midnightblue" points="335.75,-19.67 345.06,-14.6 334.62,-12.76 335.75,-19.67"/>
</g>
<!-- Node7 -->
<g id="node7" class="node">
<title>Node7</title>
<g id="a_node7"><a xlink:title=" ">
<polygon fill="white" stroke="#bfbfbf" points="564.15,-0.5 564.15,-19.5 624.15,-19.5 624.15,-0.5 564.15,-0.5"/>
<text text-anchor="middle" x="594.15" y="-7.5" font-family="Helvetica,sans-Serif" font-size="10.00">iostream</text>
</a>
</g>
</g>
<!-- Node6&#45;&gt;Node7 -->
<g id="edge6" class="edge">
<title>Node6&#45;&gt;Node7</title>
<path fill="none" stroke="midnightblue" d="M91.87,-57.42C95,-56.9 98.13,-56.42 101.15,-56 268.5,-32.73 469.56,-18.66 553.86,-13.39"/>
<polygon fill="midnightblue" stroke="midnightblue" points="554.26,-16.87 564.03,-12.76 553.83,-9.88 554.26,-16.87"/>
</g>
<!-- Node8 -->
<g id="node8" class="node">
<title>Node8</title>
<g id="a_node8"><a xlink:title=" ">
<polygon fill="white" stroke="#bfbfbf" points="25.15,-0.5 25.15,-19.5 81.15,-19.5 81.15,-0.5 25.15,-0.5"/>
<text text-anchor="middle" x="53.15" y="-7.5" font-family="Helvetica,sans-Serif" font-size="10.00">iomanip</text>
</a>
</g>
</g>
<!-- Node6&#45;&gt;Node8 -->
<g id="edge8" class="edge">
<title>Node6&#45;&gt;Node8</title>
<path fill="none" stroke="midnightblue" d="M53.15,-56.08C53.15,-49.01 53.15,-38.86 53.15,-29.99"/>
<polygon fill="midnightblue" stroke="midnightblue" points="56.65,-29.75 53.15,-19.75 49.65,-29.75 56.65,-29.75"/>
</g>
<!-- Node9&#45;&gt;Node7 -->
<g id="edge10" class="edge">
<title>Node9&#45;&gt;Node7</title>
<path fill="none" stroke="midnightblue" d="M807.9,-56.44C760.34,-46.33 681.66,-29.61 634.19,-19.51"/>
<polygon fill="midnightblue" stroke="midnightblue" points="634.78,-16.06 624.27,-17.4 633.32,-22.91 634.78,-16.06"/>
</g>
<!-- Node10&#45;&gt;Node4 -->
<g id="edge13" class="edge">
<title>Node10&#45;&gt;Node4</title>
<path fill="none" stroke="midnightblue" d="M214.83,-56.44C247.53,-46.69 300.86,-30.78 334.96,-20.6"/>
<polygon fill="midnightblue" stroke="midnightblue" points="336.3,-23.86 344.88,-17.64 334.3,-17.15 336.3,-23.86"/>
</g>
<!-- Node10&#45;&gt;Node7 -->
<g id="edge12" class="edge">
<title>Node10&#45;&gt;Node7</title>
<path fill="none" stroke="midnightblue" d="M250.8,-56.44C335.86,-45.19 482.84,-25.73 553.68,-16.36"/>
<polygon fill="midnightblue" stroke="midnightblue" points="554.51,-19.78 563.96,-15 553.59,-12.84 554.51,-19.78"/>
</g>
<!-- Node11&#45;&gt;Node4 -->
<g id="edge16" class="edge">
<title>Node11&#45;&gt;Node4</title>
<path fill="none" stroke="midnightblue" d="M367.15,-56.08C367.15,-49.01 367.15,-38.86 367.15,-29.99"/>
<polygon fill="midnightblue" stroke="midnightblue" points="370.65,-29.75 367.15,-19.75 363.65,-29.75 370.65,-29.75"/>
</g>
<!-- Node11&#45;&gt;Node7 -->
<g id="edge15" class="edge">
<title>Node11&#45;&gt;Node7</title>
<path fill="none" stroke="midnightblue" d="M403.12,-56.44C444.32,-46.64 511.63,-30.63 554.37,-20.46"/>
<polygon fill="midnightblue" stroke="midnightblue" points="555.23,-23.86 564.15,-18.14 553.61,-17.05 555.23,-23.86"/>
</g>
<!-- Node12&#45;&gt;Node4 -->
<g id="edge19" class="edge">
<title>Node12&#45;&gt;Node4</title>
<path fill="none" stroke="midnightblue" d="M558.18,-56.44C514.39,-46.03 441.09,-28.59 399.17,-18.62"/>
<polygon fill="midnightblue" stroke="midnightblue" points="399.76,-15.16 389.22,-16.25 398.14,-21.97 399.76,-15.16"/>
</g>
<!-- Node12&#45;&gt;Node7 -->
<g id="edge18" class="edge">
<title>Node12&#45;&gt;Node7</title>
<path fill="none" stroke="midnightblue" d="M594.15,-56.08C594.15,-49.01 594.15,-38.86 594.15,-29.99"/>
<polygon fill="midnightblue" stroke="midnightblue" points="597.65,-29.75 594.15,-19.75 590.65,-29.75 597.65,-29.75"/>
</g>
<!-- Node13&#45;&gt;Node4 -->
<g id="edge22" class="edge">
<title>Node13&#45;&gt;Node4</title>
<path fill="none" stroke="midnightblue" d="M668.53,-56.97C594.22,-45.64 460.76,-25.28 399.5,-15.93"/>
<polygon fill="midnightblue" stroke="midnightblue" points="399.68,-12.42 389.27,-14.37 398.63,-19.34 399.68,-12.42"/>
</g>
<!-- Node13&#45;&gt;Node7 -->
<g id="edge21" class="edge">
<title>Node13&#45;&gt;Node7</title>
<path fill="none" stroke="midnightblue" d="M701.03,-56.44C680.13,-47.56 647.22,-33.56 623.43,-23.45"/>
<polygon fill="midnightblue" stroke="midnightblue" points="624.75,-20.21 614.18,-19.52 622.01,-26.65 624.75,-20.21"/>
</g>
<!-- Node14&#45;&gt;Node4 -->
<g id="edge25" class="edge">
<title>Node14&#45;&gt;Node4</title>
<path fill="none" stroke="midnightblue" d="M922.37,-56.87C919.26,-56.57 916.17,-56.28 913.15,-56 718.11,-37.88 483.53,-19.79 399.24,-13.41"/>
<polygon fill="midnightblue" stroke="midnightblue" points="399.5,-9.92 389.27,-12.66 398.98,-16.9 399.5,-9.92"/>
</g>
<!-- Node14&#45;&gt;Node7 -->
<g id="edge24" class="edge">
<title>Node14&#45;&gt;Node7</title>
<path fill="none" stroke="midnightblue" d="M935.82,-56.44C851.17,-45.19 704.91,-25.73 634.42,-16.36"/>
<polygon fill="midnightblue" stroke="midnightblue" points="634.56,-12.84 624.19,-15 633.64,-19.78 634.56,-12.84"/>
</g>
</g>
</svg>
