<?xml version="1.0" encoding="UTF-8" standalone="no"?>
<!DOCTYPE svg PUBLIC "-//W3C//DTD SVG 1.1//EN"
 "http://www.w3.org/Graphics/SVG/1.1/DTD/svg11.dtd">
<!-- Generated by graphviz version 2.43.0 (0)
 -->
<!-- Title: include/secretario.hpp Pages: 1 -->
<svg width="814pt" height="196pt"
 viewBox="0.00 0.00 814.00 196.00" xmlns="http://www.w3.org/2000/svg" xmlns:xlink="http://www.w3.org/1999/xlink">
<g id="graph0" class="graph" transform="scale(1 1) rotate(0) translate(4 192)">
<title>include/secretario.hpp</title>
<polygon fill="white" stroke="transparent" points="-4,4 -4,-192 810,-192 810,4 -4,4"/>
<!-- Node1 -->
<g id="node1" class="node">
<title>Node1</title>
<g id="a_node1"><a xlink:title="Arquivo da classe Secretario.">
<polygon fill="#bfbfbf" stroke="black" points="225,-168.5 225,-187.5 350,-187.5 350,-168.5 225,-168.5"/>
<text text-anchor="middle" x="287.5" y="-175.5" font-family="Helvetica,sans-Serif" font-size="10.00">include/secretario.hpp</text>
</a>
</g>
</g>
<!-- Node2 -->
<g id="node2" class="node">
<title>Node2</title>
<g id="a_node2"><a xlink:href="usuario_8hpp.html" target="_top" xlink:title="Arquivo da classe Usuario.">
<polygon fill="white" stroke="black" points="482.5,-112.5 482.5,-131.5 556.5,-131.5 556.5,-112.5 482.5,-112.5"/>
<text text-anchor="middle" x="519.5" y="-119.5" font-family="Helvetica,sans-Serif" font-size="10.00">usuario.hpp</text>
</a>
</g>
</g>
<!-- Node1&#45;&gt;Node2 -->
<g id="edge1" class="edge">
<title>Node1&#45;&gt;Node2</title>
<path fill="none" stroke="midnightblue" d="M324.26,-168.44C364.56,-159.06 429.31,-143.99 473.08,-133.8"/>
<polygon fill="midnightblue" stroke="midnightblue" points="473.96,-137.19 482.91,-131.52 472.38,-130.37 473.96,-137.19"/>
</g>
<!-- Node11 -->
<g id="node11" class="node">
<title>Node11</title>
<g id="a_node11"><a xlink:href="gastoException_8hpp.html" target="_top" xlink:title="Arquivo da classe GastoException.">
<polygon fill="white" stroke="black" points="0,-56.5 0,-75.5 113,-75.5 113,-56.5 0,-56.5"/>
<text text-anchor="middle" x="56.5" y="-63.5" font-family="Helvetica,sans-Serif" font-size="10.00">gastoException.hpp</text>
</a>
</g>
</g>
<!-- Node1&#45;&gt;Node11 -->
<g id="edge16" class="edge">
<title>Node1&#45;&gt;Node11</title>
<path fill="none" stroke="midnightblue" d="M269.37,-168.37C228.98,-149.13 131.36,-102.65 83.66,-79.93"/>
<polygon fill="midnightblue" stroke="midnightblue" points="85.08,-76.73 74.54,-75.59 82.07,-83.05 85.08,-76.73"/>
</g>
<!-- Node3 -->
<g id="node3" class="node">
<title>Node3</title>
<g id="a_node3"><a xlink:title=" ">
<polygon fill="white" stroke="#bfbfbf" points="497.5,-0.5 497.5,-19.5 541.5,-19.5 541.5,-0.5 497.5,-0.5"/>
<text text-anchor="middle" x="519.5" y="-7.5" font-family="Helvetica,sans-Serif" font-size="10.00">string</text>
</a>
</g>
</g>
<!-- Node2&#45;&gt;Node3 -->
<g id="edge2" class="edge">
<title>Node2&#45;&gt;Node3</title>
<path fill="none" stroke="midnightblue" d="M556.6,-115.92C599.58,-109.19 666.44,-95.81 681.5,-76 716.56,-29.88 608.91,-16.39 552.14,-12.52"/>
<polygon fill="midnightblue" stroke="midnightblue" points="552.05,-9.01 541.85,-11.89 551.62,-15.99 552.05,-9.01"/>
</g>
<!-- Node4 -->
<g id="node4" class="node">
<title>Node4</title>
<g id="a_node4"><a xlink:title=" ">
<polygon fill="white" stroke="#bfbfbf" points="625,-56.5 625,-75.5 672,-75.5 672,-56.5 625,-56.5"/>
<text text-anchor="middle" x="648.5" y="-63.5" font-family="Helvetica,sans-Serif" font-size="10.00">vector</text>
</a>
</g>
</g>
<!-- Node2&#45;&gt;Node4 -->
<g id="edge3" class="edge">
<title>Node2&#45;&gt;Node4</title>
<path fill="none" stroke="midnightblue" d="M539.94,-112.44C561.17,-103.56 594.6,-89.56 618.75,-79.45"/>
<polygon fill="midnightblue" stroke="midnightblue" points="620.28,-82.61 628.16,-75.52 617.58,-76.15 620.28,-82.61"/>
</g>
<!-- Node5 -->
<g id="node5" class="node">
<title>Node5</title>
<g id="a_node5"><a xlink:href="hospital_8hpp.html" target="_top" xlink:title="Arquivo da classe Hospital.">
<polygon fill="white" stroke="black" points="729,-56.5 729,-75.5 806,-75.5 806,-56.5 729,-56.5"/>
<text text-anchor="middle" x="767.5" y="-63.5" font-family="Helvetica,sans-Serif" font-size="10.00">hospital.hpp</text>
</a>
</g>
</g>
<!-- Node2&#45;&gt;Node5 -->
<g id="edge4" class="edge">
<title>Node2&#45;&gt;Node5</title>
<path fill="none" stroke="midnightblue" d="M556.63,-112.92C599.9,-103.49 671.53,-87.9 719.12,-77.53"/>
<polygon fill="midnightblue" stroke="midnightblue" points="719.87,-80.95 728.89,-75.41 718.38,-74.11 719.87,-80.95"/>
</g>
<!-- Node8 -->
<g id="node8" class="node">
<title>Node8</title>
<g id="a_node8"><a xlink:href="menuException_8hpp.html" target="_top" xlink:title="Arquivo da classe MenuException.">
<polygon fill="white" stroke="black" points="131,-56.5 131,-75.5 244,-75.5 244,-56.5 131,-56.5"/>
<text text-anchor="middle" x="187.5" y="-63.5" font-family="Helvetica,sans-Serif" font-size="10.00">menuException.hpp</text>
</a>
</g>
</g>
<!-- Node2&#45;&gt;Node8 -->
<g id="edge8" class="edge">
<title>Node2&#45;&gt;Node8</title>
<path fill="none" stroke="midnightblue" d="M482.38,-114.96C426.13,-105.81 318.61,-88.33 250.11,-77.18"/>
<polygon fill="midnightblue" stroke="midnightblue" points="250.32,-73.67 239.89,-75.52 249.19,-80.58 250.32,-73.67"/>
</g>
<!-- Node9 -->
<g id="node9" class="node">
<title>Node9</title>
<g id="a_node9"><a xlink:href="usuarioExisteException_8hpp.html" target="_top" xlink:title=" ">
<polygon fill="white" stroke="black" points="262.5,-56.5 262.5,-75.5 414.5,-75.5 414.5,-56.5 262.5,-56.5"/>
<text text-anchor="middle" x="338.5" y="-63.5" font-family="Helvetica,sans-Serif" font-size="10.00">usuarioExisteException.hpp</text>
</a>
</g>
</g>
<!-- Node2&#45;&gt;Node9 -->
<g id="edge10" class="edge">
<title>Node2&#45;&gt;Node9</title>
<path fill="none" stroke="midnightblue" d="M490.82,-112.44C459.97,-103.24 410.77,-88.56 376.67,-78.39"/>
<polygon fill="midnightblue" stroke="midnightblue" points="377.63,-75.02 367.05,-75.52 375.63,-81.73 377.63,-75.02"/>
</g>
<!-- Node10 -->
<g id="node10" class="node">
<title>Node10</title>
<g id="a_node10"><a xlink:href="hospitalNaoExisteException_8hpp.html" target="_top" xlink:title="Arquivo da classe HospitalNaoExisteException.">
<polygon fill="white" stroke="black" points="432.5,-56.5 432.5,-75.5 606.5,-75.5 606.5,-56.5 432.5,-56.5"/>
<text text-anchor="middle" x="519.5" y="-63.5" font-family="Helvetica,sans-Serif" font-size="10.00">hospitalNaoExisteException.hpp</text>
</a>
</g>
</g>
<!-- Node2&#45;&gt;Node10 -->
<g id="edge13" class="edge">
<title>Node2&#45;&gt;Node10</title>
<path fill="none" stroke="midnightblue" d="M519.5,-112.08C519.5,-105.01 519.5,-94.86 519.5,-85.99"/>
<polygon fill="midnightblue" stroke="midnightblue" points="523,-85.75 519.5,-75.75 516,-85.75 523,-85.75"/>
</g>
<!-- Node5&#45;&gt;Node3 -->
<g id="edge6" class="edge">
<title>Node5&#45;&gt;Node3</title>
<path fill="none" stroke="midnightblue" d="M728.75,-56.56C679.97,-45.94 597.06,-27.89 551.63,-18"/>
<polygon fill="midnightblue" stroke="midnightblue" points="552.24,-14.55 541.73,-15.84 550.75,-21.39 552.24,-14.55"/>
</g>
<!-- Node6 -->
<g id="node6" class="node">
<title>Node6</title>
<g id="a_node6"><a xlink:title=" ">
<polygon fill="white" stroke="#bfbfbf" points="308.5,-0.5 308.5,-19.5 368.5,-19.5 368.5,-0.5 308.5,-0.5"/>
<text text-anchor="middle" x="338.5" y="-7.5" font-family="Helvetica,sans-Serif" font-size="10.00">iostream</text>
</a>
</g>
</g>
<!-- Node5&#45;&gt;Node6 -->
<g id="edge5" class="edge">
<title>Node5&#45;&gt;Node6</title>
<path fill="none" stroke="midnightblue" d="M728.67,-60.11C647.58,-49.9 460.94,-26.41 378.68,-16.06"/>
<polygon fill="midnightblue" stroke="midnightblue" points="379.08,-12.58 368.72,-14.8 378.2,-19.53 379.08,-12.58"/>
</g>
<!-- Node7 -->
<g id="node7" class="node">
<title>Node7</title>
<g id="a_node7"><a xlink:title=" ">
<polygon fill="white" stroke="#bfbfbf" points="739.5,-0.5 739.5,-19.5 795.5,-19.5 795.5,-0.5 739.5,-0.5"/>
<text text-anchor="middle" x="767.5" y="-7.5" font-family="Helvetica,sans-Serif" font-size="10.00">iomanip</text>
</a>
</g>
</g>
<!-- Node5&#45;&gt;Node7 -->
<g id="edge7" class="edge">
<title>Node5&#45;&gt;Node7</title>
<path fill="none" stroke="midnightblue" d="M767.5,-56.08C767.5,-49.01 767.5,-38.86 767.5,-29.99"/>
<polygon fill="midnightblue" stroke="midnightblue" points="771,-29.75 767.5,-19.75 764,-29.75 771,-29.75"/>
</g>
<!-- Node8&#45;&gt;Node6 -->
<g id="edge9" class="edge">
<title>Node8&#45;&gt;Node6</title>
<path fill="none" stroke="midnightblue" d="M211.43,-56.44C236.72,-47.4 276.8,-33.06 305.18,-22.92"/>
<polygon fill="midnightblue" stroke="midnightblue" points="306.45,-26.18 314.69,-19.52 304.09,-19.59 306.45,-26.18"/>
</g>
<!-- Node9&#45;&gt;Node3 -->
<g id="edge12" class="edge">
<title>Node9&#45;&gt;Node3</title>
<path fill="none" stroke="midnightblue" d="M367.18,-56.44C399.88,-46.69 453.21,-30.78 487.31,-20.6"/>
<polygon fill="midnightblue" stroke="midnightblue" points="488.65,-23.86 497.23,-17.64 486.65,-17.15 488.65,-23.86"/>
</g>
<!-- Node9&#45;&gt;Node6 -->
<g id="edge11" class="edge">
<title>Node9&#45;&gt;Node6</title>
<path fill="none" stroke="midnightblue" d="M338.5,-56.08C338.5,-49.01 338.5,-38.86 338.5,-29.99"/>
<polygon fill="midnightblue" stroke="midnightblue" points="342,-29.75 338.5,-19.75 335,-29.75 342,-29.75"/>
</g>
<!-- Node10&#45;&gt;Node3 -->
<g id="edge15" class="edge">
<title>Node10&#45;&gt;Node3</title>
<path fill="none" stroke="midnightblue" d="M519.5,-56.08C519.5,-49.01 519.5,-38.86 519.5,-29.99"/>
<polygon fill="midnightblue" stroke="midnightblue" points="523,-29.75 519.5,-19.75 516,-29.75 523,-29.75"/>
</g>
<!-- Node10&#45;&gt;Node6 -->
<g id="edge14" class="edge">
<title>Node10&#45;&gt;Node6</title>
<path fill="none" stroke="midnightblue" d="M490.82,-56.44C459.97,-47.24 410.77,-32.56 376.67,-22.39"/>
<polygon fill="midnightblue" stroke="midnightblue" points="377.63,-19.02 367.05,-19.52 375.63,-25.73 377.63,-19.02"/>
</g>
<!-- Node11&#45;&gt;Node3 -->
<g id="edge18" class="edge">
<title>Node11&#45;&gt;Node3</title>
<path fill="none" stroke="midnightblue" d="M113.21,-57.06C116.01,-56.7 118.79,-56.34 121.5,-56 257.39,-38.91 419.78,-21.48 487.44,-14.35"/>
<polygon fill="midnightblue" stroke="midnightblue" points="487.89,-17.82 497.47,-13.3 487.16,-10.86 487.89,-17.82"/>
</g>
<!-- Node11&#45;&gt;Node6 -->
<g id="edge17" class="edge">
<title>Node11&#45;&gt;Node6</title>
<path fill="none" stroke="midnightblue" d="M101.18,-56.44C155.49,-46.04 246.32,-28.65 298.45,-18.67"/>
<polygon fill="midnightblue" stroke="midnightblue" points="299.17,-22.1 308.33,-16.78 297.85,-15.22 299.17,-22.1"/>
</g>
</g>
</svg>
