<?xml version="1.0" encoding="UTF-8" standalone="no"?>
<!DOCTYPE svg PUBLIC "-//W3C//DTD SVG 1.1//EN"
 "http://www.w3.org/Graphics/SVG/1.1/DTD/svg11.dtd">
<!-- Generated by graphviz version 2.43.0 (0)
 -->
<!-- Title: include/senhaErradaException.hpp Pages: 1 -->
<svg width="385pt" height="140pt"
 viewBox="0.00 0.00 384.50 140.00" xmlns="http://www.w3.org/2000/svg" xmlns:xlink="http://www.w3.org/1999/xlink">
<g id="graph0" class="graph" transform="scale(1 1) rotate(0) translate(4 136)">
<title>include/senhaErradaException.hpp</title>
<polygon fill="white" stroke="transparent" points="-4,4 -4,-136 380.5,-136 380.5,4 -4,4"/>
<!-- Node1 -->
<g id="node1" class="node">
<title>Node1</title>
<g id="a_node1"><a xlink:title="Arquivo da classe SenhaErradaException.">
<polygon fill="#bfbfbf" stroke="black" points="96.5,-112.5 96.5,-131.5 281.5,-131.5 281.5,-112.5 96.5,-112.5"/>
<text text-anchor="middle" x="189" y="-119.5" font-family="Helvetica,sans-Serif" font-size="10.00">include/senhaErradaException.hpp</text>
</a>
</g>
</g>
<!-- Node2 -->
<g id="node2" class="node">
<title>Node2</title>
<g id="a_node2"><a xlink:href="senhaErradaException_8cpp.html" target="_top" xlink:title=" ">
<polygon fill="white" stroke="black" points="0,-56.5 0,-75.5 202,-75.5 202,-56.5 0,-56.5"/>
<text text-anchor="middle" x="101" y="-63.5" font-family="Helvetica,sans-Serif" font-size="10.00">exceptions/senhaErradaException.cpp</text>
</a>
</g>
</g>
<!-- Node1&#45;&gt;Node2 -->
<g id="edge1" class="edge">
<title>Node1&#45;&gt;Node2</title>
<path fill="none" stroke="midnightblue" d="M166.02,-106.9C149.89,-97 128.82,-84.07 115.1,-75.65"/>
<polygon fill="midnightblue" stroke="midnightblue" points="164.51,-110.08 174.86,-112.32 168.17,-104.11 164.51,-110.08"/>
</g>
<!-- Node3 -->
<g id="node3" class="node">
<title>Node3</title>
<g id="a_node3"><a xlink:href="sistema_8hpp.html" target="_top" xlink:title="Arquivo da classe Sistema.">
<polygon fill="white" stroke="black" points="220.5,-56.5 220.5,-75.5 335.5,-75.5 335.5,-56.5 220.5,-56.5"/>
<text text-anchor="middle" x="278" y="-63.5" font-family="Helvetica,sans-Serif" font-size="10.00">include/sistema.hpp</text>
</a>
</g>
</g>
<!-- Node1&#45;&gt;Node3 -->
<g id="edge2" class="edge">
<title>Node1&#45;&gt;Node3</title>
<path fill="none" stroke="midnightblue" d="M212.24,-106.9C228.56,-97 249.87,-84.07 263.74,-75.65"/>
<polygon fill="midnightblue" stroke="midnightblue" points="210.03,-104.14 203.3,-112.32 213.66,-110.13 210.03,-104.14"/>
</g>
<!-- Node4 -->
<g id="node4" class="node">
<title>Node4</title>
<g id="a_node4"><a xlink:href="main_8cpp.html" target="_top" xlink:title=" ">
<polygon fill="white" stroke="black" points="186.5,-0.5 186.5,-19.5 265.5,-19.5 265.5,-0.5 186.5,-0.5"/>
<text text-anchor="middle" x="226" y="-7.5" font-family="Helvetica,sans-Serif" font-size="10.00">src/main.cpp</text>
</a>
</g>
</g>
<!-- Node3&#45;&gt;Node4 -->
<g id="edge3" class="edge">
<title>Node3&#45;&gt;Node4</title>
<path fill="none" stroke="midnightblue" d="M262.32,-48.72C253.16,-39.2 241.95,-27.56 234.43,-19.75"/>
<polygon fill="midnightblue" stroke="midnightblue" points="259.96,-51.31 269.41,-56.08 265,-46.45 259.96,-51.31"/>
</g>
<!-- Node5 -->
<g id="node5" class="node">
<title>Node5</title>
<g id="a_node5"><a xlink:href="sistema_8cpp.html" target="_top" xlink:title=" ">
<polygon fill="white" stroke="black" points="283.5,-0.5 283.5,-19.5 376.5,-19.5 376.5,-0.5 283.5,-0.5"/>
<text text-anchor="middle" x="330" y="-7.5" font-family="Helvetica,sans-Serif" font-size="10.00">src/sistema.cpp</text>
</a>
</g>
</g>
<!-- Node3&#45;&gt;Node5 -->
<g id="edge4" class="edge">
<title>Node3&#45;&gt;Node5</title>
<path fill="none" stroke="midnightblue" d="M293.68,-48.72C302.84,-39.2 314.05,-27.56 321.57,-19.75"/>
<polygon fill="midnightblue" stroke="midnightblue" points="291,-46.45 286.59,-56.08 296.04,-51.31 291,-46.45"/>
</g>
</g>
</svg>
