<?xml version="1.0" encoding="UTF-8" standalone="no"?>
<!DOCTYPE svg PUBLIC "-//W3C//DTD SVG 1.1//EN"
 "http://www.w3.org/Graphics/SVG/1.1/DTD/svg11.dtd">
<!-- Generated by graphviz version 2.43.0 (0)
 -->
<!-- Title: include/sistema.hpp Pages: 1 -->
<svg width="1614pt" height="252pt"
 viewBox="0.00 0.00 1613.51 252.00" xmlns="http://www.w3.org/2000/svg" xmlns:xlink="http://www.w3.org/1999/xlink">
<g id="graph0" class="graph" transform="scale(1 1) rotate(0) translate(4 248)">
<title>include/sistema.hpp</title>
<polygon fill="white" stroke="transparent" points="-4,4 -4,-248 1609.51,-248 1609.51,4 -4,4"/>
<!-- Node1 -->
<g id="node1" class="node">
<title>Node1</title>
<g id="a_node1"><a xlink:title="Arquivo da classe Sistema.">
<polygon fill="#bfbfbf" stroke="black" points="321.51,-224.5 321.51,-243.5 436.51,-243.5 436.51,-224.5 321.51,-224.5"/>
<text text-anchor="middle" x="379.01" y="-231.5" font-family="Helvetica,sans-Serif" font-size="10.00">include/sistema.hpp</text>
</a>
</g>
</g>
<!-- Node2 -->
<g id="node2" class="node">
<title>Node2</title>
<g id="a_node2"><a xlink:title=" ">
<polygon fill="white" stroke="#bfbfbf" points="623.01,-0.5 623.01,-19.5 683.01,-19.5 683.01,-0.5 623.01,-0.5"/>
<text text-anchor="middle" x="653.01" y="-7.5" font-family="Helvetica,sans-Serif" font-size="10.00">iostream</text>
</a>
</g>
</g>
<!-- Node1&#45;&gt;Node2 -->
<g id="edge1" class="edge">
<title>Node1&#45;&gt;Node2</title>
<path fill="none" stroke="midnightblue" d="M321.39,-225.9C197.68,-208.53 -74.72,-157.7 20.01,-56 60.36,-12.68 479.14,-10.38 612.47,-10.76"/>
<polygon fill="midnightblue" stroke="midnightblue" points="612.65,-14.26 622.67,-10.79 612.68,-7.26 612.65,-14.26"/>
</g>
<!-- Node3 -->
<g id="node3" class="node">
<title>Node3</title>
<g id="a_node3"><a xlink:title=" ">
<polygon fill="white" stroke="#bfbfbf" points="44.51,-56.5 44.51,-75.5 91.51,-75.5 91.51,-56.5 44.51,-56.5"/>
<text text-anchor="middle" x="68.01" y="-63.5" font-family="Helvetica,sans-Serif" font-size="10.00">vector</text>
</a>
</g>
</g>
<!-- Node1&#45;&gt;Node3 -->
<g id="edge2" class="edge">
<title>Node1&#45;&gt;Node3</title>
<path fill="none" stroke="midnightblue" d="M321.49,-227.55C282.43,-221.93 230.69,-210.62 190.01,-188 141.97,-161.28 99.87,-110.33 80.06,-83.88"/>
<polygon fill="midnightblue" stroke="midnightblue" points="82.74,-81.62 74.01,-75.63 77.1,-85.76 82.74,-81.62"/>
</g>
<!-- Node4 -->
<g id="node4" class="node">
<title>Node4</title>
<g id="a_node4"><a xlink:href="cidadao_8hpp.html" target="_top" xlink:title="Arquivo da classe Cidadao.">
<polygon fill="white" stroke="black" points="199.01,-168.5 199.01,-187.5 275.01,-187.5 275.01,-168.5 199.01,-168.5"/>
<text text-anchor="middle" x="237.01" y="-175.5" font-family="Helvetica,sans-Serif" font-size="10.00">cidadao.hpp</text>
</a>
</g>
</g>
<!-- Node1&#45;&gt;Node4 -->
<g id="edge3" class="edge">
<title>Node1&#45;&gt;Node4</title>
<path fill="none" stroke="midnightblue" d="M356.51,-224.44C332.93,-215.48 295.69,-201.31 269.04,-191.18"/>
<polygon fill="midnightblue" stroke="midnightblue" points="269.99,-187.8 259.4,-187.52 267.51,-194.34 269.99,-187.8"/>
</g>
<!-- Node7 -->
<g id="node7" class="node">
<title>Node7</title>
<g id="a_node7"><a xlink:href="hospital_8hpp.html" target="_top" xlink:title="Arquivo da classe Hospital.">
<polygon fill="white" stroke="black" points="109.51,-56.5 109.51,-75.5 186.51,-75.5 186.51,-56.5 109.51,-56.5"/>
<text text-anchor="middle" x="148.01" y="-63.5" font-family="Helvetica,sans-Serif" font-size="10.00">hospital.hpp</text>
</a>
</g>
</g>
<!-- Node1&#45;&gt;Node7 -->
<g id="edge34" class="edge">
<title>Node1&#45;&gt;Node7</title>
<path fill="none" stroke="midnightblue" d="M366.91,-224.31C329.41,-197.36 214.82,-115.01 168.13,-81.46"/>
<polygon fill="midnightblue" stroke="midnightblue" points="170.15,-78.6 159.98,-75.61 166.06,-84.28 170.15,-78.6"/>
</g>
<!-- Node9 -->
<g id="node9" class="node">
<title>Node9</title>
<g id="a_node9"><a xlink:href="menuException_8hpp.html" target="_top" xlink:title="Arquivo da classe MenuException.">
<polygon fill="white" stroke="black" points="204.51,-56.5 204.51,-75.5 317.51,-75.5 317.51,-56.5 204.51,-56.5"/>
<text text-anchor="middle" x="261.01" y="-63.5" font-family="Helvetica,sans-Serif" font-size="10.00">menuException.hpp</text>
</a>
</g>
</g>
<!-- Node1&#45;&gt;Node9 -->
<g id="edge35" class="edge">
<title>Node1&#45;&gt;Node9</title>
<path fill="none" stroke="midnightblue" d="M376.03,-224.37C368.53,-203.47 347.28,-149.15 317.01,-112 307.43,-100.25 294.33,-89.52 283.21,-81.48"/>
<polygon fill="midnightblue" stroke="midnightblue" points="285.02,-78.48 274.82,-75.65 281.03,-84.23 285.02,-78.48"/>
</g>
<!-- Node10 -->
<g id="node10" class="node">
<title>Node10</title>
<g id="a_node10"><a xlink:href="usuarioExisteException_8hpp.html" target="_top" xlink:title=" ">
<polygon fill="white" stroke="black" points="336.01,-56.5 336.01,-75.5 488.01,-75.5 488.01,-56.5 336.01,-56.5"/>
<text text-anchor="middle" x="412.01" y="-63.5" font-family="Helvetica,sans-Serif" font-size="10.00">usuarioExisteException.hpp</text>
</a>
</g>
</g>
<!-- Node1&#45;&gt;Node10 -->
<g id="edge39" class="edge">
<title>Node1&#45;&gt;Node10</title>
<path fill="none" stroke="midnightblue" d="M379.92,-224.41C382.13,-204.48 388.32,-153.63 398.01,-112 400.1,-103.02 403.06,-93.23 405.72,-85.09"/>
<polygon fill="midnightblue" stroke="midnightblue" points="409.07,-86.12 408.95,-75.52 402.43,-83.88 409.07,-86.12"/>
</g>
<!-- Node12 -->
<g id="node12" class="node">
<title>Node12</title>
<g id="a_node12"><a xlink:href="secretario_8hpp.html" target="_top" xlink:title="Arquivo da classe Secretario.">
<polygon fill="white" stroke="black" points="407.01,-168.5 407.01,-187.5 493.01,-187.5 493.01,-168.5 407.01,-168.5"/>
<text text-anchor="middle" x="450.01" y="-175.5" font-family="Helvetica,sans-Serif" font-size="10.00">secretario.hpp</text>
</a>
</g>
</g>
<!-- Node1&#45;&gt;Node12 -->
<g id="edge20" class="edge">
<title>Node1&#45;&gt;Node12</title>
<path fill="none" stroke="midnightblue" d="M390.42,-224.32C401.12,-216.18 417.35,-203.84 430.17,-194.09"/>
<polygon fill="midnightblue" stroke="midnightblue" points="432.55,-196.67 438.39,-187.83 428.31,-191.1 432.55,-196.67"/>
</g>
<!-- Node14 -->
<g id="node14" class="node">
<title>Node14</title>
<g id="a_node14"><a xlink:href="prefeito_8hpp.html" target="_top" xlink:title="Arquivo da classe Prefeito.">
<polygon fill="white" stroke="black" points="708.01,-168.5 708.01,-187.5 784.01,-187.5 784.01,-168.5 708.01,-168.5"/>
<text text-anchor="middle" x="746.01" y="-175.5" font-family="Helvetica,sans-Serif" font-size="10.00">prefeito.hpp</text>
</a>
</g>
</g>
<!-- Node1&#45;&gt;Node14 -->
<g id="edge25" class="edge">
<title>Node1&#45;&gt;Node14</title>
<path fill="none" stroke="midnightblue" d="M436.76,-224.5C508.85,-213.89 630.85,-195.94 698.05,-186.06"/>
<polygon fill="midnightblue" stroke="midnightblue" points="698.57,-189.52 707.95,-184.6 697.55,-182.59 698.57,-189.52"/>
</g>
<!-- Node17 -->
<g id="node17" class="node">
<title>Node17</title>
<g id="a_node17"><a xlink:href="usuarioNaoExisteException_8hpp.html" target="_top" xlink:title="Arquivo da classe UsuarioNaoExisteException.">
<polygon fill="white" stroke="black" points="1108.51,-56.5 1108.51,-75.5 1279.51,-75.5 1279.51,-56.5 1108.51,-56.5"/>
<text text-anchor="middle" x="1194.01" y="-63.5" font-family="Helvetica,sans-Serif" font-size="10.00">usuarioNaoExisteException.hpp</text>
</a>
</g>
</g>
<!-- Node1&#45;&gt;Node17 -->
<g id="edge36" class="edge">
<title>Node1&#45;&gt;Node17</title>
<path fill="none" stroke="midnightblue" d="M436.78,-230.1C517.28,-225.29 667.43,-213.54 793.01,-188 932.63,-159.6 1093.44,-103.79 1161.21,-79.17"/>
<polygon fill="midnightblue" stroke="midnightblue" points="1162.7,-82.35 1170.89,-75.63 1160.3,-75.77 1162.7,-82.35"/>
</g>
<!-- Node18 -->
<g id="node18" class="node">
<title>Node18</title>
<g id="a_node18"><a xlink:href="senhaErradaException_8hpp.html" target="_top" xlink:title="Arquivo da classe SenhaErradaException.">
<polygon fill="white" stroke="black" points="1298.01,-56.5 1298.01,-75.5 1444.01,-75.5 1444.01,-56.5 1298.01,-56.5"/>
<text text-anchor="middle" x="1371.01" y="-63.5" font-family="Helvetica,sans-Serif" font-size="10.00">senhaErradaException.hpp</text>
</a>
</g>
</g>
<!-- Node1&#45;&gt;Node18 -->
<g id="edge40" class="edge">
<title>Node1&#45;&gt;Node18</title>
<path fill="none" stroke="midnightblue" d="M436.83,-229.86C525.38,-224.51 699.69,-211.81 846.01,-188 1028.95,-158.23 1243.23,-102.05 1330.73,-78.18"/>
<polygon fill="midnightblue" stroke="midnightblue" points="1331.79,-81.52 1340.51,-75.5 1329.95,-74.77 1331.79,-81.52"/>
</g>
<!-- Node19 -->
<g id="node19" class="node">
<title>Node19</title>
<g id="a_node19"><a xlink:href="tipoInvalidoException_8hpp.html" target="_top" xlink:title="Arquivo da classe TipoInvalidoException.">
<polygon fill="white" stroke="black" points="1462.51,-56.5 1462.51,-75.5 1605.51,-75.5 1605.51,-56.5 1462.51,-56.5"/>
<text text-anchor="middle" x="1534.01" y="-63.5" font-family="Helvetica,sans-Serif" font-size="10.00">tipoInvalidoException.hpp</text>
</a>
</g>
</g>
<!-- Node1&#45;&gt;Node19 -->
<g id="edge43" class="edge">
<title>Node1&#45;&gt;Node19</title>
<path fill="none" stroke="midnightblue" d="M436.7,-230.16C534.59,-224.87 739.33,-211.86 911.01,-188 1128.31,-157.8 1384.48,-101.37 1487.59,-77.79"/>
<polygon fill="midnightblue" stroke="midnightblue" points="1488.41,-81.2 1497.37,-75.55 1486.84,-74.37 1488.41,-81.2"/>
</g>
<!-- Node4&#45;&gt;Node2 -->
<g id="edge4" class="edge">
<title>Node4&#45;&gt;Node2</title>
<path fill="none" stroke="midnightblue" d="M198.82,-169.61C126.34,-154.03 -19.27,-114.38 35.01,-56 74.28,-13.76 481.51,-10.71 612.59,-10.83"/>
<polygon fill="midnightblue" stroke="midnightblue" points="612.98,-14.33 622.98,-10.85 612.99,-7.33 612.98,-14.33"/>
</g>
<!-- Node5 -->
<g id="node5" class="node">
<title>Node5</title>
<g id="a_node5"><a xlink:href="usuario_8hpp.html" target="_top" xlink:title="Arquivo da classe Usuario.">
<polygon fill="white" stroke="black" points="407.01,-112.5 407.01,-131.5 481.01,-131.5 481.01,-112.5 407.01,-112.5"/>
<text text-anchor="middle" x="444.01" y="-119.5" font-family="Helvetica,sans-Serif" font-size="10.00">usuario.hpp</text>
</a>
</g>
</g>
<!-- Node4&#45;&gt;Node5 -->
<g id="edge5" class="edge">
<title>Node4&#45;&gt;Node5</title>
<path fill="none" stroke="midnightblue" d="M269.81,-168.44C305.39,-159.16 362.32,-144.31 401.35,-134.13"/>
<polygon fill="midnightblue" stroke="midnightblue" points="402.57,-137.43 411.36,-131.52 400.8,-130.65 402.57,-137.43"/>
</g>
<!-- Node5&#45;&gt;Node3 -->
<g id="edge7" class="edge">
<title>Node5&#45;&gt;Node3</title>
<path fill="none" stroke="midnightblue" d="M406.81,-117.91C345.19,-112.4 217.97,-99.4 101.81,-76.13"/>
<polygon fill="midnightblue" stroke="midnightblue" points="102.18,-72.63 91.68,-74.07 100.78,-79.49 102.18,-72.63"/>
</g>
<!-- Node6 -->
<g id="node6" class="node">
<title>Node6</title>
<g id="a_node6"><a xlink:title=" ">
<polygon fill="white" stroke="#bfbfbf" points="802.01,-0.5 802.01,-19.5 846.01,-19.5 846.01,-0.5 802.01,-0.5"/>
<text text-anchor="middle" x="824.01" y="-7.5" font-family="Helvetica,sans-Serif" font-size="10.00">string</text>
</a>
</g>
</g>
<!-- Node5&#45;&gt;Node6 -->
<g id="edge6" class="edge">
<title>Node5&#45;&gt;Node6</title>
<path fill="none" stroke="midnightblue" d="M481.3,-117.29C529.99,-111.73 617.47,-99.33 689.01,-76 729.98,-62.64 774.45,-39.35 800.74,-24.58"/>
<polygon fill="midnightblue" stroke="midnightblue" points="802.61,-27.55 809.57,-19.56 799.14,-21.46 802.61,-27.55"/>
</g>
<!-- Node5&#45;&gt;Node7 -->
<g id="edge8" class="edge">
<title>Node5&#45;&gt;Node7</title>
<path fill="none" stroke="midnightblue" d="M406.86,-114.41C360.18,-106.1 277.31,-91.27 197.02,-76.36"/>
<polygon fill="midnightblue" stroke="midnightblue" points="197.2,-72.84 186.73,-74.45 195.92,-79.72 197.2,-72.84"/>
</g>
<!-- Node5&#45;&gt;Node9 -->
<g id="edge12" class="edge">
<title>Node5&#45;&gt;Node9</title>
<path fill="none" stroke="midnightblue" d="M415.01,-112.44C383.82,-103.24 334.08,-88.56 299.6,-78.39"/>
<polygon fill="midnightblue" stroke="midnightblue" points="300.45,-74.99 289.87,-75.52 298.47,-81.7 300.45,-74.99"/>
</g>
<!-- Node5&#45;&gt;Node10 -->
<g id="edge14" class="edge">
<title>Node5&#45;&gt;Node10</title>
<path fill="none" stroke="midnightblue" d="M438.72,-112.08C434.3,-104.61 427.84,-93.72 422.39,-84.52"/>
<polygon fill="midnightblue" stroke="midnightblue" points="425.3,-82.57 417.19,-75.75 419.28,-86.14 425.3,-82.57"/>
</g>
<!-- Node11 -->
<g id="node11" class="node">
<title>Node11</title>
<g id="a_node11"><a xlink:href="hospitalNaoExisteException_8hpp.html" target="_top" xlink:title="Arquivo da classe HospitalNaoExisteException.">
<polygon fill="white" stroke="black" points="506.01,-56.5 506.01,-75.5 680.01,-75.5 680.01,-56.5 506.01,-56.5"/>
<text text-anchor="middle" x="593.01" y="-63.5" font-family="Helvetica,sans-Serif" font-size="10.00">hospitalNaoExisteException.hpp</text>
</a>
</g>
</g>
<!-- Node5&#45;&gt;Node11 -->
<g id="edge17" class="edge">
<title>Node5&#45;&gt;Node11</title>
<path fill="none" stroke="midnightblue" d="M467.62,-112.44C492.47,-103.44 531.78,-89.19 559.76,-79.05"/>
<polygon fill="midnightblue" stroke="midnightblue" points="561.3,-82.21 569.51,-75.52 558.91,-75.63 561.3,-82.21"/>
</g>
<!-- Node7&#45;&gt;Node2 -->
<g id="edge9" class="edge">
<title>Node7&#45;&gt;Node2</title>
<path fill="none" stroke="midnightblue" d="M186.69,-57.3C189.5,-56.83 192.29,-56.39 195.01,-56 348.63,-33.79 532.86,-19.37 612.77,-13.71"/>
<polygon fill="midnightblue" stroke="midnightblue" points="613.15,-17.19 622.89,-13 612.66,-10.21 613.15,-17.19"/>
</g>
<!-- Node7&#45;&gt;Node6 -->
<g id="edge10" class="edge">
<title>Node7&#45;&gt;Node6</title>
<path fill="none" stroke="midnightblue" d="M186.68,-57.22C189.49,-56.77 192.29,-56.36 195.01,-56 224.84,-52.09 667.3,-21.71 791.69,-13.21"/>
<polygon fill="midnightblue" stroke="midnightblue" points="792,-16.69 801.74,-12.52 791.53,-9.71 792,-16.69"/>
</g>
<!-- Node8 -->
<g id="node8" class="node">
<title>Node8</title>
<g id="a_node8"><a xlink:title=" ">
<polygon fill="white" stroke="#bfbfbf" points="120.01,-0.5 120.01,-19.5 176.01,-19.5 176.01,-0.5 120.01,-0.5"/>
<text text-anchor="middle" x="148.01" y="-7.5" font-family="Helvetica,sans-Serif" font-size="10.00">iomanip</text>
</a>
</g>
</g>
<!-- Node7&#45;&gt;Node8 -->
<g id="edge11" class="edge">
<title>Node7&#45;&gt;Node8</title>
<path fill="none" stroke="midnightblue" d="M148.01,-56.08C148.01,-49.01 148.01,-38.86 148.01,-29.99"/>
<polygon fill="midnightblue" stroke="midnightblue" points="151.51,-29.75 148.01,-19.75 144.51,-29.75 151.51,-29.75"/>
</g>
<!-- Node9&#45;&gt;Node2 -->
<g id="edge13" class="edge">
<title>Node9&#45;&gt;Node2</title>
<path fill="none" stroke="midnightblue" d="M317.59,-57.21C397.65,-46.18 542.07,-26.28 612.36,-16.6"/>
<polygon fill="midnightblue" stroke="midnightblue" points="613.16,-20.02 622.58,-15.19 612.2,-13.09 613.16,-20.02"/>
</g>
<!-- Node10&#45;&gt;Node2 -->
<g id="edge15" class="edge">
<title>Node10&#45;&gt;Node2</title>
<path fill="none" stroke="midnightblue" d="M450.2,-56.44C494.65,-46.48 567.72,-30.11 612.96,-19.97"/>
<polygon fill="midnightblue" stroke="midnightblue" points="614,-23.33 622.99,-17.73 612.47,-16.5 614,-23.33"/>
</g>
<!-- Node10&#45;&gt;Node6 -->
<g id="edge16" class="edge">
<title>Node10&#45;&gt;Node6</title>
<path fill="none" stroke="midnightblue" d="M477.29,-56.44C566.89,-44.7 724.51,-24.04 791.94,-15.2"/>
<polygon fill="midnightblue" stroke="midnightblue" points="792.51,-18.66 801.97,-13.89 791.6,-11.72 792.51,-18.66"/>
</g>
<!-- Node11&#45;&gt;Node2 -->
<g id="edge18" class="edge">
<title>Node11&#45;&gt;Node2</title>
<path fill="none" stroke="midnightblue" d="M602.65,-56.32C611.52,-48.34 624.88,-36.31 635.62,-26.65"/>
<polygon fill="midnightblue" stroke="midnightblue" points="638.1,-29.13 643.19,-19.83 633.42,-23.92 638.1,-29.13"/>
</g>
<!-- Node11&#45;&gt;Node6 -->
<g id="edge19" class="edge">
<title>Node11&#45;&gt;Node6</title>
<path fill="none" stroke="midnightblue" d="M629.61,-56.44C674.39,-45.98 749.47,-28.42 792.03,-18.47"/>
<polygon fill="midnightblue" stroke="midnightblue" points="792.92,-21.86 801.86,-16.18 791.33,-15.05 792.92,-21.86"/>
</g>
<!-- Node12&#45;&gt;Node5 -->
<g id="edge21" class="edge">
<title>Node12&#45;&gt;Node5</title>
<path fill="none" stroke="midnightblue" d="M449.02,-168.08C448.22,-160.93 447.08,-150.64 446.09,-141.69"/>
<polygon fill="midnightblue" stroke="midnightblue" points="449.56,-141.3 444.98,-131.75 442.61,-142.08 449.56,-141.3"/>
</g>
<!-- Node13 -->
<g id="node13" class="node">
<title>Node13</title>
<g id="a_node13"><a xlink:href="gastoException_8hpp.html" target="_top" xlink:title="Arquivo da classe GastoException.">
<polygon fill="white" stroke="black" points="689.51,-112.5 689.51,-131.5 802.51,-131.5 802.51,-112.5 689.51,-112.5"/>
<text text-anchor="middle" x="746.01" y="-119.5" font-family="Helvetica,sans-Serif" font-size="10.00">gastoException.hpp</text>
</a>
</g>
</g>
<!-- Node12&#45;&gt;Node13 -->
<g id="edge22" class="edge">
<title>Node12&#45;&gt;Node13</title>
<path fill="none" stroke="midnightblue" d="M493.05,-169.15C544.78,-159.71 631.76,-143.84 689.02,-133.4"/>
<polygon fill="midnightblue" stroke="midnightblue" points="689.79,-136.81 699,-131.58 688.54,-129.93 689.79,-136.81"/>
</g>
<!-- Node13&#45;&gt;Node2 -->
<g id="edge23" class="edge">
<title>Node13&#45;&gt;Node2</title>
<path fill="none" stroke="midnightblue" d="M738.71,-112.37C723.23,-94.05 686.87,-51.05 666.84,-27.36"/>
<polygon fill="midnightblue" stroke="midnightblue" points="669.4,-24.97 660.27,-19.59 664.06,-29.49 669.4,-24.97"/>
</g>
<!-- Node13&#45;&gt;Node6 -->
<g id="edge24" class="edge">
<title>Node13&#45;&gt;Node6</title>
<path fill="none" stroke="midnightblue" d="M752.13,-112.37C765,-94.22 795.08,-51.8 811.96,-27.99"/>
<polygon fill="midnightblue" stroke="midnightblue" points="814.99,-29.77 817.92,-19.59 809.28,-25.72 814.99,-29.77"/>
</g>
<!-- Node14&#45;&gt;Node5 -->
<g id="edge26" class="edge">
<title>Node14&#45;&gt;Node5</title>
<path fill="none" stroke="midnightblue" d="M707.76,-170.16C652.7,-160.31 551.16,-142.16 491.41,-131.48"/>
<polygon fill="midnightblue" stroke="midnightblue" points="491.93,-128.01 481.47,-129.7 490.7,-134.9 491.93,-128.01"/>
</g>
<!-- Node14&#45;&gt;Node13 -->
<g id="edge27" class="edge">
<title>Node14&#45;&gt;Node13</title>
<path fill="none" stroke="midnightblue" d="M746.01,-168.08C746.01,-161.01 746.01,-150.86 746.01,-141.99"/>
<polygon fill="midnightblue" stroke="midnightblue" points="749.51,-141.75 746.01,-131.75 742.51,-141.75 749.51,-141.75"/>
</g>
<!-- Node15 -->
<g id="node15" class="node">
<title>Node15</title>
<g id="a_node15"><a xlink:href="tetoException_8hpp.html" target="_top" xlink:title="Arquivo da classe TetoException.">
<polygon fill="white" stroke="black" points="812.51,-56.5 812.51,-75.5 917.51,-75.5 917.51,-56.5 812.51,-56.5"/>
<text text-anchor="middle" x="865.01" y="-63.5" font-family="Helvetica,sans-Serif" font-size="10.00">tetoException.hpp</text>
</a>
</g>
</g>
<!-- Node14&#45;&gt;Node15 -->
<g id="edge28" class="edge">
<title>Node14&#45;&gt;Node15</title>
<path fill="none" stroke="midnightblue" d="M761.06,-168.46C775.05,-160.14 796.07,-146.63 812.01,-132 827.87,-117.44 843.09,-98.01 853.12,-84.2"/>
<polygon fill="midnightblue" stroke="midnightblue" points="856.25,-85.84 859.18,-75.66 850.54,-81.79 856.25,-85.84"/>
</g>
<!-- Node16 -->
<g id="node16" class="node">
<title>Node16</title>
<g id="a_node16"><a xlink:href="hospitalExisteException_8hpp.html" target="_top" xlink:title="Arqivo da classe HospitalExisteException.">
<polygon fill="white" stroke="black" points="935.51,-56.5 935.51,-75.5 1090.51,-75.5 1090.51,-56.5 935.51,-56.5"/>
<text text-anchor="middle" x="1013.01" y="-63.5" font-family="Helvetica,sans-Serif" font-size="10.00">hospitalExisteException.hpp</text>
</a>
</g>
</g>
<!-- Node14&#45;&gt;Node16 -->
<g id="edge31" class="edge">
<title>Node14&#45;&gt;Node16</title>
<path fill="none" stroke="midnightblue" d="M766.96,-168.37C813.95,-149.01 927.9,-102.06 982.65,-79.51"/>
<polygon fill="midnightblue" stroke="midnightblue" points="984.24,-82.64 992.15,-75.59 981.58,-76.16 984.24,-82.64"/>
</g>
<!-- Node15&#45;&gt;Node2 -->
<g id="edge29" class="edge">
<title>Node15&#45;&gt;Node2</title>
<path fill="none" stroke="midnightblue" d="M831.42,-56.44C793.82,-46.87 732.96,-31.36 692.96,-21.18"/>
<polygon fill="midnightblue" stroke="midnightblue" points="693.57,-17.72 683.02,-18.64 691.84,-24.5 693.57,-17.72"/>
</g>
<!-- Node15&#45;&gt;Node6 -->
<g id="edge30" class="edge">
<title>Node15&#45;&gt;Node6</title>
<path fill="none" stroke="midnightblue" d="M858.24,-56.08C852.45,-48.46 843.95,-37.26 836.87,-27.94"/>
<polygon fill="midnightblue" stroke="midnightblue" points="839.49,-25.6 830.65,-19.75 833.91,-29.83 839.49,-25.6"/>
</g>
<!-- Node16&#45;&gt;Node2 -->
<g id="edge32" class="edge">
<title>Node16&#45;&gt;Node2</title>
<path fill="none" stroke="midnightblue" d="M955.97,-56.44C882.72,-45.46 757.45,-26.67 693.36,-17.05"/>
<polygon fill="midnightblue" stroke="midnightblue" points="693.65,-13.56 683.24,-15.54 692.61,-20.48 693.65,-13.56"/>
</g>
<!-- Node16&#45;&gt;Node6 -->
<g id="edge33" class="edge">
<title>Node16&#45;&gt;Node6</title>
<path fill="none" stroke="midnightblue" d="M983.06,-56.44C948.39,-46.54 891.5,-30.28 855.99,-20.14"/>
<polygon fill="midnightblue" stroke="midnightblue" points="856.72,-16.7 846.14,-17.32 854.79,-23.44 856.72,-16.7"/>
</g>
<!-- Node17&#45;&gt;Node2 -->
<g id="edge37" class="edge">
<title>Node17&#45;&gt;Node2</title>
<path fill="none" stroke="midnightblue" d="M1108.58,-56.47C990.13,-44.65 780.7,-23.75 693.2,-15.01"/>
<polygon fill="midnightblue" stroke="midnightblue" points="693.44,-11.52 683.14,-14.01 692.75,-18.48 693.44,-11.52"/>
</g>
<!-- Node17&#45;&gt;Node6 -->
<g id="edge38" class="edge">
<title>Node17&#45;&gt;Node6</title>
<path fill="none" stroke="midnightblue" d="M1135.38,-56.44C1056.4,-44.92 918.57,-24.8 856.24,-15.7"/>
<polygon fill="midnightblue" stroke="midnightblue" points="856.61,-12.22 846.21,-14.24 855.6,-19.15 856.61,-12.22"/>
</g>
<!-- Node18&#45;&gt;Node2 -->
<g id="edge41" class="edge">
<title>Node18&#45;&gt;Node2</title>
<path fill="none" stroke="midnightblue" d="M1297.7,-56.81C1294.77,-56.53 1291.86,-56.26 1289.01,-56 1172.5,-45.49 814.81,-21.66 693.63,-13.67"/>
<polygon fill="midnightblue" stroke="midnightblue" points="693.53,-10.15 683.32,-12.99 693.07,-17.14 693.53,-10.15"/>
</g>
<!-- Node18&#45;&gt;Node6 -->
<g id="edge42" class="edge">
<title>Node18&#45;&gt;Node6</title>
<path fill="none" stroke="midnightblue" d="M1297.7,-56.91C1294.76,-56.6 1291.86,-56.29 1289.01,-56 1126.76,-39.25 932.46,-21.04 856.6,-14.01"/>
<polygon fill="midnightblue" stroke="midnightblue" points="856.56,-10.49 846.28,-13.05 855.92,-17.46 856.56,-10.49"/>
</g>
<!-- Node19&#45;&gt;Node2 -->
<g id="edge44" class="edge">
<title>Node19&#45;&gt;Node2</title>
<path fill="none" stroke="midnightblue" d="M1462.48,-56.83C1459.28,-56.54 1456.11,-56.26 1453.01,-56 1160.24,-31.77 1086.26,-37.42 793.01,-20 759.38,-18 721.21,-15.54 693.24,-13.69"/>
<polygon fill="midnightblue" stroke="midnightblue" points="693.25,-10.18 683.04,-13.02 692.79,-17.17 693.25,-10.18"/>
</g>
<!-- Node19&#45;&gt;Node6 -->
<g id="edge45" class="edge">
<title>Node19&#45;&gt;Node6</title>
<path fill="none" stroke="midnightblue" d="M1462.47,-56.9C1459.27,-56.58 1456.11,-56.28 1453.01,-56 1224.64,-35.15 948.9,-18.29 856.18,-12.85"/>
<polygon fill="midnightblue" stroke="midnightblue" points="856.23,-9.35 846.04,-12.26 855.82,-16.34 856.23,-9.35"/>
</g>
</g>
</svg>
