<?xml version="1.0" encoding="UTF-8" standalone="no"?>
<!DOCTYPE svg PUBLIC "-//W3C//DTD SVG 1.1//EN"
 "http://www.w3.org/Graphics/SVG/1.1/DTD/svg11.dtd">
<!-- Generated by graphviz version 2.43.0 (0)
 -->
<!-- Title: exceptions/tetoException.cpp Pages: 1 -->
<svg width="169pt" height="140pt"
 viewBox="0.00 0.00 169.00 140.00" xmlns="http://www.w3.org/2000/svg" xmlns:xlink="http://www.w3.org/1999/xlink">
<g id="graph0" class="graph" transform="scale(1 1) rotate(0) translate(4 136)">
<title>exceptions/tetoException.cpp</title>
<polygon fill="white" stroke="transparent" points="-4,4 -4,-136 165,-136 165,4 -4,4"/>
<!-- Node1 -->
<g id="node1" class="node">
<title>Node1</title>
<g id="a_node1"><a xlink:title=" ">
<polygon fill="#bfbfbf" stroke="black" points="0,-112.5 0,-131.5 161,-131.5 161,-112.5 0,-112.5"/>
<text text-anchor="middle" x="80.5" y="-119.5" font-family="Helvetica,sans-Serif" font-size="10.00">exceptions/tetoException.cpp</text>
</a>
</g>
</g>
<!-- Node2 -->
<g id="node2" class="node">
<title>Node2</title>
<g id="a_node2"><a xlink:href="tetoException_8hpp.html" target="_top" xlink:title="Arquivo da classe TetoException.">
<polygon fill="white" stroke="black" points="28,-56.5 28,-75.5 133,-75.5 133,-56.5 28,-56.5"/>
<text text-anchor="middle" x="80.5" y="-63.5" font-family="Helvetica,sans-Serif" font-size="10.00">tetoException.hpp</text>
</a>
</g>
</g>
<!-- Node1&#45;&gt;Node2 -->
<g id="edge1" class="edge">
<title>Node1&#45;&gt;Node2</title>
<path fill="none" stroke="midnightblue" d="M80.5,-112.08C80.5,-105.01 80.5,-94.86 80.5,-85.99"/>
<polygon fill="midnightblue" stroke="midnightblue" points="84,-85.75 80.5,-75.75 77,-85.75 84,-85.75"/>
</g>
<!-- Node3 -->
<g id="node3" class="node">
<title>Node3</title>
<g id="a_node3"><a xlink:title=" ">
<polygon fill="white" stroke="#bfbfbf" points="15.5,-0.5 15.5,-19.5 75.5,-19.5 75.5,-0.5 15.5,-0.5"/>
<text text-anchor="middle" x="45.5" y="-7.5" font-family="Helvetica,sans-Serif" font-size="10.00">iostream</text>
</a>
</g>
</g>
<!-- Node2&#45;&gt;Node3 -->
<g id="edge2" class="edge">
<title>Node2&#45;&gt;Node3</title>
<path fill="none" stroke="midnightblue" d="M74.72,-56.08C69.83,-48.53 62.67,-37.49 56.67,-28.23"/>
<polygon fill="midnightblue" stroke="midnightblue" points="59.55,-26.24 51.17,-19.75 53.67,-30.05 59.55,-26.24"/>
</g>
<!-- Node4 -->
<g id="node4" class="node">
<title>Node4</title>
<g id="a_node4"><a xlink:title=" ">
<polygon fill="white" stroke="#bfbfbf" points="93.5,-0.5 93.5,-19.5 137.5,-19.5 137.5,-0.5 93.5,-0.5"/>
<text text-anchor="middle" x="115.5" y="-7.5" font-family="Helvetica,sans-Serif" font-size="10.00">string</text>
</a>
</g>
</g>
<!-- Node2&#45;&gt;Node4 -->
<g id="edge3" class="edge">
<title>Node2&#45;&gt;Node4</title>
<path fill="none" stroke="midnightblue" d="M86.28,-56.08C91.17,-48.53 98.33,-37.49 104.33,-28.23"/>
<polygon fill="midnightblue" stroke="midnightblue" points="107.33,-30.05 109.83,-19.75 101.45,-26.24 107.33,-30.05"/>
</g>
</g>
</svg>
