<?xml version="1.0" encoding="UTF-8" standalone="no"?>
<!DOCTYPE svg PUBLIC "-//W3C//DTD SVG 1.1//EN"
 "http://www.w3.org/Graphics/SVG/1.1/DTD/svg11.dtd">
<!-- Generated by graphviz version 2.43.0 (0)
 -->
<!-- Title: include/tetoException.hpp Pages: 1 -->
<svg width="352pt" height="196pt"
 viewBox="0.00 0.00 351.50 196.00" xmlns="http://www.w3.org/2000/svg" xmlns:xlink="http://www.w3.org/1999/xlink">
<g id="graph0" class="graph" transform="scale(1 1) rotate(0) translate(4 192)">
<title>include/tetoException.hpp</title>
<polygon fill="white" stroke="transparent" points="-4,4 -4,-192 347.5,-192 347.5,4 -4,4"/>
<!-- Node1 -->
<g id="node1" class="node">
<title>Node1</title>
<g id="a_node1"><a xlink:title="Arquivo da classe TetoException.">
<polygon fill="#bfbfbf" stroke="black" points="87,-168.5 87,-187.5 230,-187.5 230,-168.5 87,-168.5"/>
<text text-anchor="middle" x="158.5" y="-175.5" font-family="Helvetica,sans-Serif" font-size="10.00">include/tetoException.hpp</text>
</a>
</g>
</g>
<!-- Node2 -->
<g id="node2" class="node">
<title>Node2</title>
<g id="a_node2"><a xlink:href="tetoException_8cpp.html" target="_top" xlink:title=" ">
<polygon fill="white" stroke="black" points="0,-112.5 0,-131.5 161,-131.5 161,-112.5 0,-112.5"/>
<text text-anchor="middle" x="80.5" y="-119.5" font-family="Helvetica,sans-Serif" font-size="10.00">exceptions/tetoException.cpp</text>
</a>
</g>
</g>
<!-- Node1&#45;&gt;Node2 -->
<g id="edge1" class="edge">
<title>Node1&#45;&gt;Node2</title>
<path fill="none" stroke="midnightblue" d="M137.73,-162.62C123.48,-152.76 105.04,-139.99 93,-131.65"/>
<polygon fill="midnightblue" stroke="midnightblue" points="135.75,-165.51 145.97,-168.32 139.74,-159.75 135.75,-165.51"/>
</g>
<!-- Node3 -->
<g id="node3" class="node">
<title>Node3</title>
<g id="a_node3"><a xlink:href="prefeito_8hpp.html" target="_top" xlink:title="Arquivo da classe Prefeito.">
<polygon fill="white" stroke="black" points="179.5,-112.5 179.5,-131.5 293.5,-131.5 293.5,-112.5 179.5,-112.5"/>
<text text-anchor="middle" x="236.5" y="-119.5" font-family="Helvetica,sans-Serif" font-size="10.00">include/prefeito.hpp</text>
</a>
</g>
</g>
<!-- Node1&#45;&gt;Node3 -->
<g id="edge2" class="edge">
<title>Node1&#45;&gt;Node3</title>
<path fill="none" stroke="midnightblue" d="M179.27,-162.62C193.52,-152.76 211.96,-139.99 224,-131.65"/>
<polygon fill="midnightblue" stroke="midnightblue" points="177.26,-159.75 171.03,-168.32 181.25,-165.51 177.26,-159.75"/>
</g>
<!-- Node4 -->
<g id="node4" class="node">
<title>Node4</title>
<g id="a_node4"><a xlink:href="sistema_8hpp.html" target="_top" xlink:title="Arquivo da classe Sistema.">
<polygon fill="white" stroke="black" points="118,-56.5 118,-75.5 233,-75.5 233,-56.5 118,-56.5"/>
<text text-anchor="middle" x="175.5" y="-63.5" font-family="Helvetica,sans-Serif" font-size="10.00">include/sistema.hpp</text>
</a>
</g>
</g>
<!-- Node3&#45;&gt;Node4 -->
<g id="edge3" class="edge">
<title>Node3&#45;&gt;Node4</title>
<path fill="none" stroke="midnightblue" d="M219.03,-105.54C208.16,-95.91 194.56,-83.87 185.48,-75.83"/>
<polygon fill="midnightblue" stroke="midnightblue" points="216.89,-108.32 226.7,-112.32 221.53,-103.07 216.89,-108.32"/>
</g>
<!-- Node7 -->
<g id="node7" class="node">
<title>Node7</title>
<g id="a_node7"><a xlink:href="prefeito_8cpp.html" target="_top" xlink:title=" ">
<polygon fill="white" stroke="black" points="251.5,-56.5 251.5,-75.5 343.5,-75.5 343.5,-56.5 251.5,-56.5"/>
<text text-anchor="middle" x="297.5" y="-63.5" font-family="Helvetica,sans-Serif" font-size="10.00">src/prefeito.cpp</text>
</a>
</g>
</g>
<!-- Node3&#45;&gt;Node7 -->
<g id="edge6" class="edge">
<title>Node3&#45;&gt;Node7</title>
<path fill="none" stroke="midnightblue" d="M253.97,-105.54C264.84,-95.91 278.44,-83.87 287.52,-75.83"/>
<polygon fill="midnightblue" stroke="midnightblue" points="251.47,-103.07 246.3,-112.32 256.11,-108.32 251.47,-103.07"/>
</g>
<!-- Node5 -->
<g id="node5" class="node">
<title>Node5</title>
<g id="a_node5"><a xlink:href="main_8cpp.html" target="_top" xlink:title=" ">
<polygon fill="white" stroke="black" points="84,-0.5 84,-19.5 163,-19.5 163,-0.5 84,-0.5"/>
<text text-anchor="middle" x="123.5" y="-7.5" font-family="Helvetica,sans-Serif" font-size="10.00">src/main.cpp</text>
</a>
</g>
</g>
<!-- Node4&#45;&gt;Node5 -->
<g id="edge4" class="edge">
<title>Node4&#45;&gt;Node5</title>
<path fill="none" stroke="midnightblue" d="M159.82,-48.72C150.66,-39.2 139.45,-27.56 131.93,-19.75"/>
<polygon fill="midnightblue" stroke="midnightblue" points="157.46,-51.31 166.91,-56.08 162.5,-46.45 157.46,-51.31"/>
</g>
<!-- Node6 -->
<g id="node6" class="node">
<title>Node6</title>
<g id="a_node6"><a xlink:href="sistema_8cpp.html" target="_top" xlink:title=" ">
<polygon fill="white" stroke="black" points="181,-0.5 181,-19.5 274,-19.5 274,-0.5 181,-0.5"/>
<text text-anchor="middle" x="227.5" y="-7.5" font-family="Helvetica,sans-Serif" font-size="10.00">src/sistema.cpp</text>
</a>
</g>
</g>
<!-- Node4&#45;&gt;Node6 -->
<g id="edge5" class="edge">
<title>Node4&#45;&gt;Node6</title>
<path fill="none" stroke="midnightblue" d="M191.18,-48.72C200.34,-39.2 211.55,-27.56 219.07,-19.75"/>
<polygon fill="midnightblue" stroke="midnightblue" points="188.5,-46.45 184.09,-56.08 193.54,-51.31 188.5,-46.45"/>
</g>
</g>
</svg>
