<?xml version="1.0" encoding="UTF-8" standalone="no"?>
<!DOCTYPE svg PUBLIC "-//W3C//DTD SVG 1.1//EN"
 "http://www.w3.org/Graphics/SVG/1.1/DTD/svg11.dtd">
<!-- Generated by graphviz version 2.43.0 (0)
 -->
<!-- Title: include/tipoInvalidoException.hpp Pages: 1 -->
<svg width="381pt" height="140pt"
 viewBox="0.00 0.00 381.00 140.00" xmlns="http://www.w3.org/2000/svg" xmlns:xlink="http://www.w3.org/1999/xlink">
<g id="graph0" class="graph" transform="scale(1 1) rotate(0) translate(4 136)">
<title>include/tipoInvalidoException.hpp</title>
<polygon fill="white" stroke="transparent" points="-4,4 -4,-136 377,-136 377,4 -4,4"/>
<!-- Node1 -->
<g id="node1" class="node">
<title>Node1</title>
<g id="a_node1"><a xlink:title="Arquivo da classe TipoInvalidoException.">
<polygon fill="#bfbfbf" stroke="black" points="95.5,-112.5 95.5,-131.5 277.5,-131.5 277.5,-112.5 95.5,-112.5"/>
<text text-anchor="middle" x="186.5" y="-119.5" font-family="Helvetica,sans-Serif" font-size="10.00">include/tipoInvalidoException.hpp</text>
</a>
</g>
</g>
<!-- Node2 -->
<g id="node2" class="node">
<title>Node2</title>
<g id="a_node2"><a xlink:href="tipoInvalidoException_8cpp.html" target="_top" xlink:title=" ">
<polygon fill="white" stroke="black" points="0,-56.5 0,-75.5 199,-75.5 199,-56.5 0,-56.5"/>
<text text-anchor="middle" x="99.5" y="-63.5" font-family="Helvetica,sans-Serif" font-size="10.00">exceptions/tipoInvalidoException.cpp</text>
</a>
</g>
</g>
<!-- Node1&#45;&gt;Node2 -->
<g id="edge1" class="edge">
<title>Node1&#45;&gt;Node2</title>
<path fill="none" stroke="midnightblue" d="M163.78,-106.9C147.83,-97 127,-84.07 113.44,-75.65"/>
<polygon fill="midnightblue" stroke="midnightblue" points="162.18,-110.02 172.52,-112.32 165.87,-104.08 162.18,-110.02"/>
</g>
<!-- Node3 -->
<g id="node3" class="node">
<title>Node3</title>
<g id="a_node3"><a xlink:href="sistema_8hpp.html" target="_top" xlink:title="Arquivo da classe Sistema.">
<polygon fill="white" stroke="black" points="217,-56.5 217,-75.5 332,-75.5 332,-56.5 217,-56.5"/>
<text text-anchor="middle" x="274.5" y="-63.5" font-family="Helvetica,sans-Serif" font-size="10.00">include/sistema.hpp</text>
</a>
</g>
</g>
<!-- Node1&#45;&gt;Node3 -->
<g id="edge2" class="edge">
<title>Node1&#45;&gt;Node3</title>
<path fill="none" stroke="midnightblue" d="M209.48,-106.9C225.61,-97 246.68,-84.07 260.4,-75.65"/>
<polygon fill="midnightblue" stroke="midnightblue" points="207.33,-104.11 200.64,-112.32 210.99,-110.08 207.33,-104.11"/>
</g>
<!-- Node4 -->
<g id="node4" class="node">
<title>Node4</title>
<g id="a_node4"><a xlink:href="main_8cpp.html" target="_top" xlink:title=" ">
<polygon fill="white" stroke="black" points="183,-0.5 183,-19.5 262,-19.5 262,-0.5 183,-0.5"/>
<text text-anchor="middle" x="222.5" y="-7.5" font-family="Helvetica,sans-Serif" font-size="10.00">src/main.cpp</text>
</a>
</g>
</g>
<!-- Node3&#45;&gt;Node4 -->
<g id="edge3" class="edge">
<title>Node3&#45;&gt;Node4</title>
<path fill="none" stroke="midnightblue" d="M258.82,-48.72C249.66,-39.2 238.45,-27.56 230.93,-19.75"/>
<polygon fill="midnightblue" stroke="midnightblue" points="256.46,-51.31 265.91,-56.08 261.5,-46.45 256.46,-51.31"/>
</g>
<!-- Node5 -->
<g id="node5" class="node">
<title>Node5</title>
<g id="a_node5"><a xlink:href="sistema_8cpp.html" target="_top" xlink:title=" ">
<polygon fill="white" stroke="black" points="280,-0.5 280,-19.5 373,-19.5 373,-0.5 280,-0.5"/>
<text text-anchor="middle" x="326.5" y="-7.5" font-family="Helvetica,sans-Serif" font-size="10.00">src/sistema.cpp</text>
</a>
</g>
</g>
<!-- Node3&#45;&gt;Node5 -->
<g id="edge4" class="edge">
<title>Node3&#45;&gt;Node5</title>
<path fill="none" stroke="midnightblue" d="M290.18,-48.72C299.34,-39.2 310.55,-27.56 318.07,-19.75"/>
<polygon fill="midnightblue" stroke="midnightblue" points="287.5,-46.45 283.09,-56.08 292.54,-51.31 287.5,-46.45"/>
</g>
</g>
</svg>
