<?xml version="1.0" encoding="UTF-8" standalone="no"?>
<!DOCTYPE svg PUBLIC "-//W3C//DTD SVG 1.1//EN"
 "http://www.w3.org/Graphics/SVG/1.1/DTD/svg11.dtd">
<!-- Generated by graphviz version 2.43.0 (0)
 -->
<!-- Title: include/usuario.hpp Pages: 1 -->
<svg width="661pt" height="140pt"
 viewBox="0.00 0.00 661.07 140.00" xmlns="http://www.w3.org/2000/svg" xmlns:xlink="http://www.w3.org/1999/xlink">
<g id="graph0" class="graph" transform="scale(1 1) rotate(0) translate(4 136)">
<title>include/usuario.hpp</title>
<polygon fill="white" stroke="transparent" points="-4,4 -4,-136 657.07,-136 657.07,4 -4,4"/>
<!-- Node1 -->
<g id="node1" class="node">
<title>Node1</title>
<g id="a_node1"><a xlink:title="Arquivo da classe Usuario.">
<polygon fill="#bfbfbf" stroke="black" points="290.57,-112.5 290.57,-131.5 402.57,-131.5 402.57,-112.5 290.57,-112.5"/>
<text text-anchor="middle" x="346.57" y="-119.5" font-family="Helvetica,sans-Serif" font-size="10.00">include/usuario.hpp</text>
</a>
</g>
</g>
<!-- Node2 -->
<g id="node2" class="node">
<title>Node2</title>
<g id="a_node2"><a xlink:title=" ">
<polygon fill="white" stroke="#bfbfbf" points="161.57,-0.5 161.57,-19.5 205.57,-19.5 205.57,-0.5 161.57,-0.5"/>
<text text-anchor="middle" x="183.57" y="-7.5" font-family="Helvetica,sans-Serif" font-size="10.00">string</text>
</a>
</g>
</g>
<!-- Node1&#45;&gt;Node2 -->
<g id="edge1" class="edge">
<title>Node1&#45;&gt;Node2</title>
<path fill="none" stroke="midnightblue" d="M290.48,-117.52C199.21,-111.27 26.83,-96.85 8.57,-76 -33.02,-28.5 90.02,-15.65 151.22,-12.22"/>
<polygon fill="midnightblue" stroke="midnightblue" points="151.72,-15.7 161.53,-11.7 151.36,-8.71 151.72,-15.7"/>
</g>
<!-- Node3 -->
<g id="node3" class="node">
<title>Node3</title>
<g id="a_node3"><a xlink:title=" ">
<polygon fill="white" stroke="#bfbfbf" points="606.07,-56.5 606.07,-75.5 653.07,-75.5 653.07,-56.5 606.07,-56.5"/>
<text text-anchor="middle" x="629.57" y="-63.5" font-family="Helvetica,sans-Serif" font-size="10.00">vector</text>
</a>
</g>
</g>
<!-- Node1&#45;&gt;Node3 -->
<g id="edge2" class="edge">
<title>Node1&#45;&gt;Node3</title>
<path fill="none" stroke="midnightblue" d="M402.71,-112.53C451.5,-104.81 524.23,-92.44 595.78,-76.25"/>
<polygon fill="midnightblue" stroke="midnightblue" points="596.9,-79.58 605.87,-73.94 595.34,-72.76 596.9,-79.58"/>
</g>
<!-- Node4 -->
<g id="node4" class="node">
<title>Node4</title>
<g id="a_node4"><a xlink:href="hospital_8hpp.html" target="_top" xlink:title="Arquivo da classe Hospital.">
<polygon fill="white" stroke="black" points="380.07,-56.5 380.07,-75.5 457.07,-75.5 457.07,-56.5 380.07,-56.5"/>
<text text-anchor="middle" x="418.57" y="-63.5" font-family="Helvetica,sans-Serif" font-size="10.00">hospital.hpp</text>
</a>
</g>
</g>
<!-- Node1&#45;&gt;Node4 -->
<g id="edge3" class="edge">
<title>Node1&#45;&gt;Node4</title>
<path fill="none" stroke="midnightblue" d="M358.14,-112.32C368.99,-104.18 385.45,-91.84 398.45,-82.09"/>
<polygon fill="midnightblue" stroke="midnightblue" points="400.89,-84.63 406.79,-75.83 396.69,-79.03 400.89,-84.63"/>
</g>
<!-- Node7 -->
<g id="node7" class="node">
<title>Node7</title>
<g id="a_node7"><a xlink:href="menuException_8hpp.html" target="_top" xlink:title="Arquivo da classe MenuException.">
<polygon fill="white" stroke="black" points="475.07,-56.5 475.07,-75.5 588.07,-75.5 588.07,-56.5 475.07,-56.5"/>
<text text-anchor="middle" x="531.57" y="-63.5" font-family="Helvetica,sans-Serif" font-size="10.00">menuException.hpp</text>
</a>
</g>
</g>
<!-- Node1&#45;&gt;Node7 -->
<g id="edge7" class="edge">
<title>Node1&#45;&gt;Node7</title>
<path fill="none" stroke="midnightblue" d="M375.88,-112.44C407.41,-103.24 457.7,-88.56 492.56,-78.39"/>
<polygon fill="midnightblue" stroke="midnightblue" points="493.78,-81.68 502.39,-75.52 491.81,-74.96 493.78,-81.68"/>
</g>
<!-- Node8 -->
<g id="node8" class="node">
<title>Node8</title>
<g id="a_node8"><a xlink:href="usuarioExisteException_8hpp.html" target="_top" xlink:title=" ">
<polygon fill="white" stroke="black" points="17.57,-56.5 17.57,-75.5 169.57,-75.5 169.57,-56.5 17.57,-56.5"/>
<text text-anchor="middle" x="93.57" y="-63.5" font-family="Helvetica,sans-Serif" font-size="10.00">usuarioExisteException.hpp</text>
</a>
</g>
</g>
<!-- Node1&#45;&gt;Node8 -->
<g id="edge9" class="edge">
<title>Node1&#45;&gt;Node8</title>
<path fill="none" stroke="midnightblue" d="M306.48,-112.44C262.25,-103 191.03,-87.8 143.29,-77.61"/>
<polygon fill="midnightblue" stroke="midnightblue" points="143.98,-74.18 133.47,-75.52 142.52,-81.03 143.98,-74.18"/>
</g>
<!-- Node9 -->
<g id="node9" class="node">
<title>Node9</title>
<g id="a_node9"><a xlink:href="hospitalNaoExisteException_8hpp.html" target="_top" xlink:title="Arquivo da classe HospitalNaoExisteException.">
<polygon fill="white" stroke="black" points="187.57,-56.5 187.57,-75.5 361.57,-75.5 361.57,-56.5 187.57,-56.5"/>
<text text-anchor="middle" x="274.57" y="-63.5" font-family="Helvetica,sans-Serif" font-size="10.00">hospitalNaoExisteException.hpp</text>
</a>
</g>
</g>
<!-- Node1&#45;&gt;Node9 -->
<g id="edge12" class="edge">
<title>Node1&#45;&gt;Node9</title>
<path fill="none" stroke="midnightblue" d="M335,-112.32C324.15,-104.18 307.69,-91.84 294.69,-82.09"/>
<polygon fill="midnightblue" stroke="midnightblue" points="296.45,-79.03 286.35,-75.83 292.25,-84.63 296.45,-79.03"/>
</g>
<!-- Node4&#45;&gt;Node2 -->
<g id="edge5" class="edge">
<title>Node4&#45;&gt;Node2</title>
<path fill="none" stroke="midnightblue" d="M381.33,-56.44C335.66,-45.95 259,-28.33 215.76,-18.4"/>
<polygon fill="midnightblue" stroke="midnightblue" points="216.31,-14.93 205.78,-16.1 214.75,-21.75 216.31,-14.93"/>
</g>
<!-- Node5 -->
<g id="node5" class="node">
<title>Node5</title>
<g id="a_node5"><a xlink:title=" ">
<polygon fill="white" stroke="#bfbfbf" points="278.57,-0.5 278.57,-19.5 338.57,-19.5 338.57,-0.5 278.57,-0.5"/>
<text text-anchor="middle" x="308.57" y="-7.5" font-family="Helvetica,sans-Serif" font-size="10.00">iostream</text>
</a>
</g>
</g>
<!-- Node4&#45;&gt;Node5 -->
<g id="edge4" class="edge">
<title>Node4&#45;&gt;Node5</title>
<path fill="none" stroke="midnightblue" d="M400.9,-56.32C383.18,-47.62 355.67,-34.12 335.28,-24.11"/>
<polygon fill="midnightblue" stroke="midnightblue" points="336.72,-20.92 326.2,-19.65 333.63,-27.2 336.72,-20.92"/>
</g>
<!-- Node6 -->
<g id="node6" class="node">
<title>Node6</title>
<g id="a_node6"><a xlink:title=" ">
<polygon fill="white" stroke="#bfbfbf" points="390.57,-0.5 390.57,-19.5 446.57,-19.5 446.57,-0.5 390.57,-0.5"/>
<text text-anchor="middle" x="418.57" y="-7.5" font-family="Helvetica,sans-Serif" font-size="10.00">iomanip</text>
</a>
</g>
</g>
<!-- Node4&#45;&gt;Node6 -->
<g id="edge6" class="edge">
<title>Node4&#45;&gt;Node6</title>
<path fill="none" stroke="midnightblue" d="M418.57,-56.08C418.57,-49.01 418.57,-38.86 418.57,-29.99"/>
<polygon fill="midnightblue" stroke="midnightblue" points="422.07,-29.75 418.57,-19.75 415.07,-29.75 422.07,-29.75"/>
</g>
<!-- Node7&#45;&gt;Node5 -->
<g id="edge8" class="edge">
<title>Node7&#45;&gt;Node5</title>
<path fill="none" stroke="midnightblue" d="M496.24,-56.44C456.07,-46.72 390.65,-30.88 348.63,-20.7"/>
<polygon fill="midnightblue" stroke="midnightblue" points="349.28,-17.26 338.73,-18.3 347.63,-24.06 349.28,-17.26"/>
</g>
<!-- Node8&#45;&gt;Node2 -->
<g id="edge11" class="edge">
<title>Node8&#45;&gt;Node2</title>
<path fill="none" stroke="midnightblue" d="M108.03,-56.32C122.07,-47.9 143.62,-34.97 160.11,-25.07"/>
<polygon fill="midnightblue" stroke="midnightblue" points="162.37,-27.8 169.15,-19.65 158.77,-21.8 162.37,-27.8"/>
</g>
<!-- Node8&#45;&gt;Node5 -->
<g id="edge10" class="edge">
<title>Node8&#45;&gt;Node5</title>
<path fill="none" stroke="midnightblue" d="M127.64,-56.44C165.95,-46.82 228.1,-31.21 268.66,-21.02"/>
<polygon fill="midnightblue" stroke="midnightblue" points="269.63,-24.39 278.48,-18.56 267.93,-17.6 269.63,-24.39"/>
</g>
<!-- Node9&#45;&gt;Node2 -->
<g id="edge14" class="edge">
<title>Node9&#45;&gt;Node2</title>
<path fill="none" stroke="midnightblue" d="M259.95,-56.32C245.62,-47.82 223.56,-34.73 206.82,-24.8"/>
<polygon fill="midnightblue" stroke="midnightblue" points="208.54,-21.75 198.16,-19.65 204.97,-27.77 208.54,-21.75"/>
</g>
<!-- Node9&#45;&gt;Node5 -->
<g id="edge13" class="edge">
<title>Node9&#45;&gt;Node5</title>
<path fill="none" stroke="midnightblue" d="M280.19,-56.08C284.94,-48.53 291.89,-37.49 297.72,-28.23"/>
<polygon fill="midnightblue" stroke="midnightblue" points="300.69,-30.08 303.06,-19.75 294.77,-26.35 300.69,-30.08"/>
</g>
</g>
</svg>
