<?xml version="1.0" encoding="UTF-8" standalone="no"?>
<!DOCTYPE svg PUBLIC "-//W3C//DTD SVG 1.1//EN"
 "http://www.w3.org/Graphics/SVG/1.1/DTD/svg11.dtd">
<!-- Generated by graphviz version 2.43.0 (0)
 -->
<!-- Title: include/usuario.hpp Pages: 1 -->
<svg width="539pt" height="196pt"
 viewBox="0.00 0.00 539.00 196.00" xmlns="http://www.w3.org/2000/svg" xmlns:xlink="http://www.w3.org/1999/xlink">
<g id="graph0" class="graph" transform="scale(1 1) rotate(0) translate(4 192)">
<title>include/usuario.hpp</title>
<polygon fill="white" stroke="transparent" points="-4,4 -4,-192 535,-192 535,4 -4,4"/>
<!-- Node1 -->
<g id="node1" class="node">
<title>Node1</title>
<g id="a_node1"><a xlink:title="Arquivo da classe Usuario.">
<polygon fill="#bfbfbf" stroke="black" points="241,-168.5 241,-187.5 353,-187.5 353,-168.5 241,-168.5"/>
<text text-anchor="middle" x="297" y="-175.5" font-family="Helvetica,sans-Serif" font-size="10.00">include/usuario.hpp</text>
</a>
</g>
</g>
<!-- Node2 -->
<g id="node2" class="node">
<title>Node2</title>
<g id="a_node2"><a xlink:href="cidadao_8hpp.html" target="_top" xlink:title="Arquivo da classe Cidadao.">
<polygon fill="white" stroke="black" points="309,-112.5 309,-131.5 423,-131.5 423,-112.5 309,-112.5"/>
<text text-anchor="middle" x="366" y="-119.5" font-family="Helvetica,sans-Serif" font-size="10.00">include/cidadao.hpp</text>
</a>
</g>
</g>
<!-- Node1&#45;&gt;Node2 -->
<g id="edge1" class="edge">
<title>Node1&#45;&gt;Node2</title>
<path fill="none" stroke="midnightblue" d="M316.04,-162.1C328.46,-152.38 344.24,-140.03 354.71,-131.83"/>
<polygon fill="midnightblue" stroke="midnightblue" points="313.8,-159.4 308.09,-168.32 318.12,-164.92 313.8,-159.4"/>
</g>
<!-- Node7 -->
<g id="node7" class="node">
<title>Node7</title>
<g id="a_node7"><a xlink:href="prefeito_8hpp.html" target="_top" xlink:title="Arquivo da classe Prefeito.">
<polygon fill="white" stroke="black" points="33,-112.5 33,-131.5 147,-131.5 147,-112.5 33,-112.5"/>
<text text-anchor="middle" x="90" y="-119.5" font-family="Helvetica,sans-Serif" font-size="10.00">include/prefeito.hpp</text>
</a>
</g>
</g>
<!-- Node1&#45;&gt;Node7 -->
<g id="edge6" class="edge">
<title>Node1&#45;&gt;Node7</title>
<path fill="none" stroke="midnightblue" d="M254.18,-165.83C215.09,-155.63 158.17,-140.78 122.65,-131.52"/>
<polygon fill="midnightblue" stroke="midnightblue" points="253.64,-169.31 264.2,-168.44 255.41,-162.53 253.64,-169.31"/>
</g>
<!-- Node9 -->
<g id="node9" class="node">
<title>Node9</title>
<g id="a_node9"><a xlink:href="secretario_8hpp.html" target="_top" xlink:title="Arquivo da classe Secretario.">
<polygon fill="white" stroke="black" points="165.5,-112.5 165.5,-131.5 290.5,-131.5 290.5,-112.5 165.5,-112.5"/>
<text text-anchor="middle" x="228" y="-119.5" font-family="Helvetica,sans-Serif" font-size="10.00">include/secretario.hpp</text>
</a>
</g>
</g>
<!-- Node1&#45;&gt;Node9 -->
<g id="edge9" class="edge">
<title>Node1&#45;&gt;Node9</title>
<path fill="none" stroke="midnightblue" d="M277.96,-162.1C265.54,-152.38 249.76,-140.03 239.29,-131.83"/>
<polygon fill="midnightblue" stroke="midnightblue" points="275.88,-164.92 285.91,-168.32 280.2,-159.4 275.88,-164.92"/>
</g>
<!-- Node11 -->
<g id="node11" class="node">
<title>Node11</title>
<g id="a_node11"><a xlink:href="usuario_8cpp.html" target="_top" xlink:title=" ">
<polygon fill="white" stroke="black" points="441,-112.5 441,-131.5 531,-131.5 531,-112.5 441,-112.5"/>
<text text-anchor="middle" x="486" y="-119.5" font-family="Helvetica,sans-Serif" font-size="10.00">src/usuario.cpp</text>
</a>
</g>
</g>
<!-- Node1&#45;&gt;Node11 -->
<g id="edge12" class="edge">
<title>Node1&#45;&gt;Node11</title>
<path fill="none" stroke="midnightblue" d="M337.01,-165.57C372.67,-155.38 424.04,-140.7 456.19,-131.52"/>
<polygon fill="midnightblue" stroke="midnightblue" points="335.6,-162.33 326.95,-168.44 337.52,-169.06 335.6,-162.33"/>
</g>
<!-- Node3 -->
<g id="node3" class="node">
<title>Node3</title>
<g id="a_node3"><a xlink:href="sistema_8hpp.html" target="_top" xlink:title="Arquivo da classe Sistema.">
<polygon fill="white" stroke="black" points="110.5,-56.5 110.5,-75.5 225.5,-75.5 225.5,-56.5 110.5,-56.5"/>
<text text-anchor="middle" x="168" y="-63.5" font-family="Helvetica,sans-Serif" font-size="10.00">include/sistema.hpp</text>
</a>
</g>
</g>
<!-- Node2&#45;&gt;Node3 -->
<g id="edge2" class="edge">
<title>Node2&#45;&gt;Node3</title>
<path fill="none" stroke="midnightblue" d="M324.56,-109.7C287.19,-99.51 233.06,-84.74 199.23,-75.52"/>
<polygon fill="midnightblue" stroke="midnightblue" points="324.06,-113.19 334.63,-112.44 325.9,-106.44 324.06,-113.19"/>
</g>
<!-- Node6 -->
<g id="node6" class="node">
<title>Node6</title>
<g id="a_node6"><a xlink:href="cidadao_8cpp.html" target="_top" xlink:title=" ">
<polygon fill="white" stroke="black" points="365,-56.5 365,-75.5 457,-75.5 457,-56.5 365,-56.5"/>
<text text-anchor="middle" x="411" y="-63.5" font-family="Helvetica,sans-Serif" font-size="10.00">src/cidadao.cpp</text>
</a>
</g>
</g>
<!-- Node2&#45;&gt;Node6 -->
<g id="edge5" class="edge">
<title>Node2&#45;&gt;Node6</title>
<path fill="none" stroke="midnightblue" d="M380.05,-104.14C387.89,-94.74 397.33,-83.4 403.71,-75.75"/>
<polygon fill="midnightblue" stroke="midnightblue" points="377.14,-102.16 373.43,-112.08 382.52,-106.64 377.14,-102.16"/>
</g>
<!-- Node4 -->
<g id="node4" class="node">
<title>Node4</title>
<g id="a_node4"><a xlink:href="main_8cpp.html" target="_top" xlink:title=" ">
<polygon fill="white" stroke="black" points="76.5,-0.5 76.5,-19.5 155.5,-19.5 155.5,-0.5 76.5,-0.5"/>
<text text-anchor="middle" x="116" y="-7.5" font-family="Helvetica,sans-Serif" font-size="10.00">src/main.cpp</text>
</a>
</g>
</g>
<!-- Node3&#45;&gt;Node4 -->
<g id="edge3" class="edge">
<title>Node3&#45;&gt;Node4</title>
<path fill="none" stroke="midnightblue" d="M152.32,-48.72C143.16,-39.2 131.95,-27.56 124.43,-19.75"/>
<polygon fill="midnightblue" stroke="midnightblue" points="149.96,-51.31 159.41,-56.08 155,-46.45 149.96,-51.31"/>
</g>
<!-- Node5 -->
<g id="node5" class="node">
<title>Node5</title>
<g id="a_node5"><a xlink:href="sistema_8cpp.html" target="_top" xlink:title=" ">
<polygon fill="white" stroke="black" points="173.5,-0.5 173.5,-19.5 266.5,-19.5 266.5,-0.5 173.5,-0.5"/>
<text text-anchor="middle" x="220" y="-7.5" font-family="Helvetica,sans-Serif" font-size="10.00">src/sistema.cpp</text>
</a>
</g>
</g>
<!-- Node3&#45;&gt;Node5 -->
<g id="edge4" class="edge">
<title>Node3&#45;&gt;Node5</title>
<path fill="none" stroke="midnightblue" d="M183.68,-48.72C192.84,-39.2 204.05,-27.56 211.57,-19.75"/>
<polygon fill="midnightblue" stroke="midnightblue" points="181,-46.45 176.59,-56.08 186.04,-51.31 181,-46.45"/>
</g>
<!-- Node7&#45;&gt;Node3 -->
<g id="edge7" class="edge">
<title>Node7&#45;&gt;Node3</title>
<path fill="none" stroke="midnightblue" d="M110.77,-106.62C125.02,-96.76 143.46,-83.99 155.5,-75.65"/>
<polygon fill="midnightblue" stroke="midnightblue" points="108.76,-103.75 102.53,-112.32 112.75,-109.51 108.76,-103.75"/>
</g>
<!-- Node8 -->
<g id="node8" class="node">
<title>Node8</title>
<g id="a_node8"><a xlink:href="prefeito_8cpp.html" target="_top" xlink:title=" ">
<polygon fill="white" stroke="black" points="0,-56.5 0,-75.5 92,-75.5 92,-56.5 0,-56.5"/>
<text text-anchor="middle" x="46" y="-63.5" font-family="Helvetica,sans-Serif" font-size="10.00">src/prefeito.cpp</text>
</a>
</g>
</g>
<!-- Node7&#45;&gt;Node8 -->
<g id="edge8" class="edge">
<title>Node7&#45;&gt;Node8</title>
<path fill="none" stroke="midnightblue" d="M76.27,-104.14C68.6,-94.74 59.37,-83.4 53.13,-75.75"/>
<polygon fill="midnightblue" stroke="midnightblue" points="73.7,-106.54 82.73,-112.08 79.13,-102.12 73.7,-106.54"/>
</g>
<!-- Node9&#45;&gt;Node3 -->
<g id="edge10" class="edge">
<title>Node9&#45;&gt;Node3</title>
<path fill="none" stroke="midnightblue" d="M210.82,-105.54C200.12,-95.91 186.74,-83.87 177.82,-75.83"/>
<polygon fill="midnightblue" stroke="midnightblue" points="208.59,-108.24 218.36,-112.32 213.27,-103.03 208.59,-108.24"/>
</g>
<!-- Node10 -->
<g id="node10" class="node">
<title>Node10</title>
<g id="a_node10"><a xlink:href="secretario_8cpp.html" target="_top" xlink:title=" ">
<polygon fill="white" stroke="black" points="243.5,-56.5 243.5,-75.5 346.5,-75.5 346.5,-56.5 243.5,-56.5"/>
<text text-anchor="middle" x="295" y="-63.5" font-family="Helvetica,sans-Serif" font-size="10.00">src/secretario.cpp</text>
</a>
</g>
</g>
<!-- Node9&#45;&gt;Node10 -->
<g id="edge11" class="edge">
<title>Node9&#45;&gt;Node10</title>
<path fill="none" stroke="midnightblue" d="M246.83,-105.82C258.84,-96.15 273.97,-83.95 284.04,-75.83"/>
<polygon fill="midnightblue" stroke="midnightblue" points="244.35,-103.32 238.76,-112.32 248.75,-108.77 244.35,-103.32"/>
</g>
</g>
</svg>
