<?xml version="1.0" encoding="UTF-8" standalone="no"?>
<!DOCTYPE svg PUBLIC "-//W3C//DTD SVG 1.1//EN"
 "http://www.w3.org/Graphics/SVG/1.1/DTD/svg11.dtd">
<!-- Generated by graphviz version 2.43.0 (0)
 -->
<!-- Title: include/usuarioExisteException.hpp Pages: 1 -->
<svg width="550pt" height="263pt"
 viewBox="0.00 0.00 550.00 263.00" xmlns="http://www.w3.org/2000/svg" xmlns:xlink="http://www.w3.org/1999/xlink">
<g id="graph0" class="graph" transform="scale(1 1) rotate(0) translate(4 259)">
<title>include/usuarioExisteException.hpp</title>
<polygon fill="white" stroke="transparent" points="-4,4 -4,-259 546,-259 546,4 -4,4"/>
<!-- Node1 -->
<g id="node1" class="node">
<title>Node1</title>
<g id="a_node1"><a xlink:title=" ">
<polygon fill="#bfbfbf" stroke="black" points="208,-235.5 208,-254.5 398,-254.5 398,-235.5 208,-235.5"/>
<text text-anchor="middle" x="303" y="-242.5" font-family="Helvetica,sans-Serif" font-size="10.00">include/usuarioExisteException.hpp</text>
</a>
</g>
</g>
<!-- Node2 -->
<g id="node2" class="node">
<title>Node2</title>
<g id="a_node2"><a xlink:href="usuarioExisteException_8cpp.html" target="_top" xlink:title=" ">
<polygon fill="white" stroke="black" points="89.5,-168.5 89.5,-198.5 228.5,-198.5 228.5,-168.5 89.5,-168.5"/>
<text text-anchor="start" x="97.5" y="-186.5" font-family="Helvetica,sans-Serif" font-size="10.00">exceptions/usuarioExiste</text>
<text text-anchor="middle" x="159" y="-175.5" font-family="Helvetica,sans-Serif" font-size="10.00">Exception.cpp</text>
</a>
</g>
</g>
<!-- Node1&#45;&gt;Node2 -->
<g id="edge1" class="edge">
<title>Node1&#45;&gt;Node2</title>
<path fill="none" stroke="midnightblue" d="M272.97,-231.59C249.62,-221.94 217.22,-208.56 192.94,-198.52"/>
<polygon fill="midnightblue" stroke="midnightblue" points="271.79,-234.89 282.37,-235.48 274.46,-228.42 271.79,-234.89"/>
</g>
<!-- Node3 -->
<g id="node3" class="node">
<title>Node3</title>
<g id="a_node3"><a xlink:href="usuario_8hpp.html" target="_top" xlink:title="Arquivo da classe Usuario.">
<polygon fill="white" stroke="black" points="247,-174 247,-193 359,-193 359,-174 247,-174"/>
<text text-anchor="middle" x="303" y="-181" font-family="Helvetica,sans-Serif" font-size="10.00">include/usuario.hpp</text>
</a>
</g>
</g>
<!-- Node1&#45;&gt;Node3 -->
<g id="edge2" class="edge">
<title>Node1&#45;&gt;Node3</title>
<path fill="none" stroke="midnightblue" d="M303,-225.32C303,-214.5 303,-201.4 303,-193.01"/>
<polygon fill="midnightblue" stroke="midnightblue" points="299.5,-225.48 303,-235.48 306.5,-225.48 299.5,-225.48"/>
</g>
<!-- Node5 -->
<g id="node5" class="node">
<title>Node5</title>
<g id="a_node5"><a xlink:href="sistema_8hpp.html" target="_top" xlink:title="Arquivo da classe Sistema.">
<polygon fill="white" stroke="black" points="316.5,-56.5 316.5,-75.5 431.5,-75.5 431.5,-56.5 316.5,-56.5"/>
<text text-anchor="middle" x="374" y="-63.5" font-family="Helvetica,sans-Serif" font-size="10.00">include/sistema.hpp</text>
</a>
</g>
</g>
<!-- Node1&#45;&gt;Node5 -->
<g id="edge15" class="edge">
<title>Node1&#45;&gt;Node5</title>
<path fill="none" stroke="midnightblue" d="M351.54,-232.66C400.54,-218.33 473.6,-188.44 507,-132 511.53,-124.35 512.18,-119.22 507,-112 496.1,-96.8 450.45,-83.65 415.65,-75.55"/>
<polygon fill="midnightblue" stroke="midnightblue" points="350.46,-229.32 341.78,-235.4 352.35,-236.06 350.46,-229.32"/>
</g>
<!-- Node4 -->
<g id="node4" class="node">
<title>Node4</title>
<g id="a_node4"><a xlink:href="cidadao_8hpp.html" target="_top" xlink:title="Arquivo da classe Cidadao.">
<polygon fill="white" stroke="black" points="384,-112.5 384,-131.5 498,-131.5 498,-112.5 384,-112.5"/>
<text text-anchor="middle" x="441" y="-119.5" font-family="Helvetica,sans-Serif" font-size="10.00">include/cidadao.hpp</text>
</a>
</g>
</g>
<!-- Node3&#45;&gt;Node4 -->
<g id="edge3" class="edge">
<title>Node3&#45;&gt;Node4</title>
<path fill="none" stroke="midnightblue" d="M332.04,-169.98C358.84,-158.42 397.92,-141.58 421.26,-131.51"/>
<polygon fill="midnightblue" stroke="midnightblue" points="330.57,-166.8 322.77,-173.98 333.34,-173.23 330.57,-166.8"/>
</g>
<!-- Node9 -->
<g id="node9" class="node">
<title>Node9</title>
<g id="a_node9"><a xlink:href="prefeito_8hpp.html" target="_top" xlink:title="Arquivo da classe Prefeito.">
<polygon fill="white" stroke="black" points="0,-112.5 0,-131.5 114,-131.5 114,-112.5 0,-112.5"/>
<text text-anchor="middle" x="57" y="-119.5" font-family="Helvetica,sans-Serif" font-size="10.00">include/prefeito.hpp</text>
</a>
</g>
</g>
<!-- Node3&#45;&gt;Node9 -->
<g id="edge8" class="edge">
<title>Node3&#45;&gt;Node9</title>
<path fill="none" stroke="midnightblue" d="M257.99,-171.61C210.24,-160.07 135.81,-142.06 92.18,-131.51"/>
<polygon fill="midnightblue" stroke="midnightblue" points="257.21,-175.03 267.75,-173.98 258.86,-168.22 257.21,-175.03"/>
</g>
<!-- Node11 -->
<g id="node11" class="node">
<title>Node11</title>
<g id="a_node11"><a xlink:href="secretario_8hpp.html" target="_top" xlink:title="Arquivo da classe Secretario.">
<polygon fill="white" stroke="black" points="240.5,-112.5 240.5,-131.5 365.5,-131.5 365.5,-112.5 240.5,-112.5"/>
<text text-anchor="middle" x="303" y="-119.5" font-family="Helvetica,sans-Serif" font-size="10.00">include/secretario.hpp</text>
</a>
</g>
</g>
<!-- Node3&#45;&gt;Node11 -->
<g id="edge11" class="edge">
<title>Node3&#45;&gt;Node11</title>
<path fill="none" stroke="midnightblue" d="M303,-163.82C303,-153 303,-139.9 303,-131.51"/>
<polygon fill="midnightblue" stroke="midnightblue" points="299.5,-163.98 303,-173.98 306.5,-163.98 299.5,-163.98"/>
</g>
<!-- Node13 -->
<g id="node13" class="node">
<title>Node13</title>
<g id="a_node13"><a xlink:href="usuario_8cpp.html" target="_top" xlink:title=" ">
<polygon fill="white" stroke="black" points="132,-112.5 132,-131.5 222,-131.5 222,-112.5 132,-112.5"/>
<text text-anchor="middle" x="177" y="-119.5" font-family="Helvetica,sans-Serif" font-size="10.00">src/usuario.cpp</text>
</a>
</g>
</g>
<!-- Node3&#45;&gt;Node13 -->
<g id="edge14" class="edge">
<title>Node3&#45;&gt;Node13</title>
<path fill="none" stroke="midnightblue" d="M275.84,-169.67C251.39,-158.13 216.15,-141.49 195.02,-131.51"/>
<polygon fill="midnightblue" stroke="midnightblue" points="274.41,-172.87 284.95,-173.98 277.4,-166.54 274.41,-172.87"/>
</g>
<!-- Node4&#45;&gt;Node5 -->
<g id="edge4" class="edge">
<title>Node4&#45;&gt;Node5</title>
<path fill="none" stroke="midnightblue" d="M422.17,-105.82C410.16,-96.15 395.03,-83.95 384.96,-75.83"/>
<polygon fill="midnightblue" stroke="midnightblue" points="420.25,-108.77 430.24,-112.32 424.65,-103.32 420.25,-108.77"/>
</g>
<!-- Node8 -->
<g id="node8" class="node">
<title>Node8</title>
<g id="a_node8"><a xlink:href="cidadao_8cpp.html" target="_top" xlink:title=" ">
<polygon fill="white" stroke="black" points="450,-56.5 450,-75.5 542,-75.5 542,-56.5 450,-56.5"/>
<text text-anchor="middle" x="496" y="-63.5" font-family="Helvetica,sans-Serif" font-size="10.00">src/cidadao.cpp</text>
</a>
</g>
</g>
<!-- Node4&#45;&gt;Node8 -->
<g id="edge7" class="edge">
<title>Node4&#45;&gt;Node8</title>
<path fill="none" stroke="midnightblue" d="M457.29,-105C467.04,-95.43 479.05,-83.64 487.09,-75.75"/>
<polygon fill="midnightblue" stroke="midnightblue" points="454.77,-102.58 450.08,-112.08 459.67,-107.57 454.77,-102.58"/>
</g>
<!-- Node6 -->
<g id="node6" class="node">
<title>Node6</title>
<g id="a_node6"><a xlink:href="main_8cpp.html" target="_top" xlink:title=" ">
<polygon fill="white" stroke="black" points="282.5,-0.5 282.5,-19.5 361.5,-19.5 361.5,-0.5 282.5,-0.5"/>
<text text-anchor="middle" x="322" y="-7.5" font-family="Helvetica,sans-Serif" font-size="10.00">src/main.cpp</text>
</a>
</g>
</g>
<!-- Node5&#45;&gt;Node6 -->
<g id="edge5" class="edge">
<title>Node5&#45;&gt;Node6</title>
<path fill="none" stroke="midnightblue" d="M358.32,-48.72C349.16,-39.2 337.95,-27.56 330.43,-19.75"/>
<polygon fill="midnightblue" stroke="midnightblue" points="355.96,-51.31 365.41,-56.08 361,-46.45 355.96,-51.31"/>
</g>
<!-- Node7 -->
<g id="node7" class="node">
<title>Node7</title>
<g id="a_node7"><a xlink:href="sistema_8cpp.html" target="_top" xlink:title=" ">
<polygon fill="white" stroke="black" points="379.5,-0.5 379.5,-19.5 472.5,-19.5 472.5,-0.5 379.5,-0.5"/>
<text text-anchor="middle" x="426" y="-7.5" font-family="Helvetica,sans-Serif" font-size="10.00">src/sistema.cpp</text>
</a>
</g>
</g>
<!-- Node5&#45;&gt;Node7 -->
<g id="edge6" class="edge">
<title>Node5&#45;&gt;Node7</title>
<path fill="none" stroke="midnightblue" d="M389.68,-48.72C398.84,-39.2 410.05,-27.56 417.57,-19.75"/>
<polygon fill="midnightblue" stroke="midnightblue" points="387,-46.45 382.59,-56.08 392.04,-51.31 387,-46.45"/>
</g>
<!-- Node9&#45;&gt;Node5 -->
<g id="edge9" class="edge">
<title>Node9&#45;&gt;Node5</title>
<path fill="none" stroke="midnightblue" d="M117.3,-110.73C177.21,-100.52 267.99,-85.06 324.01,-75.52"/>
<polygon fill="midnightblue" stroke="midnightblue" points="116.5,-107.31 107.23,-112.44 117.68,-114.21 116.5,-107.31"/>
</g>
<!-- Node10 -->
<g id="node10" class="node">
<title>Node10</title>
<g id="a_node10"><a xlink:href="prefeito_8cpp.html" target="_top" xlink:title=" ">
<polygon fill="white" stroke="black" points="11,-56.5 11,-75.5 103,-75.5 103,-56.5 11,-56.5"/>
<text text-anchor="middle" x="57" y="-63.5" font-family="Helvetica,sans-Serif" font-size="10.00">src/prefeito.cpp</text>
</a>
</g>
</g>
<!-- Node9&#45;&gt;Node10 -->
<g id="edge10" class="edge">
<title>Node9&#45;&gt;Node10</title>
<path fill="none" stroke="midnightblue" d="M57,-101.8C57,-92.91 57,-82.78 57,-75.75"/>
<polygon fill="midnightblue" stroke="midnightblue" points="53.5,-102.08 57,-112.08 60.5,-102.08 53.5,-102.08"/>
</g>
<!-- Node11&#45;&gt;Node5 -->
<g id="edge12" class="edge">
<title>Node11&#45;&gt;Node5</title>
<path fill="none" stroke="midnightblue" d="M322.59,-106.1C335.37,-96.38 351.61,-84.03 362.39,-75.83"/>
<polygon fill="midnightblue" stroke="midnightblue" points="320.25,-103.48 314.41,-112.32 324.49,-109.06 320.25,-103.48"/>
</g>
<!-- Node12 -->
<g id="node12" class="node">
<title>Node12</title>
<g id="a_node12"><a xlink:href="secretario_8cpp.html" target="_top" xlink:title=" ">
<polygon fill="white" stroke="black" points="195.5,-56.5 195.5,-75.5 298.5,-75.5 298.5,-56.5 195.5,-56.5"/>
<text text-anchor="middle" x="247" y="-63.5" font-family="Helvetica,sans-Serif" font-size="10.00">src/secretario.cpp</text>
</a>
</g>
</g>
<!-- Node11&#45;&gt;Node12 -->
<g id="edge13" class="edge">
<title>Node11&#45;&gt;Node12</title>
<path fill="none" stroke="midnightblue" d="M286.67,-105.25C276.74,-95.67 264.41,-83.79 256.16,-75.83"/>
<polygon fill="midnightblue" stroke="midnightblue" points="284.37,-107.9 294,-112.32 289.23,-102.86 284.37,-107.9"/>
</g>
</g>
</svg>
